<svg width="30" height="30" viewBox="0 0 30 30" fill="none" xmlns="http://www.w3.org/2000/svg">
<path d="M9.55122 12.9463C9.55122 13.8338 9.99372 14.2351 9.99372 14.4776C9.99372 14.5976 9.95372 14.6376 9.83372 14.7188L9.30872 15.0413C9.26872 15.0813 9.14872 15.0813 9.06747 15.0813C9.06747 15.0813 8.74622 15.1213 8.26247 14.0738C7.69872 14.7988 6.77247 15.2826 5.84622 15.2013C5.24247 15.2426 3.50997 14.8801 3.59122 12.9876C3.55122 11.4963 4.87872 10.5701 6.36997 10.6501C6.65122 10.6501 7.21497 10.6501 8.18247 10.8926V10.2888C8.30247 9.28131 7.61872 8.47631 6.40997 8.59756C6.36997 8.59756 5.68497 8.59756 4.59747 9.00006C4.31622 9.16131 4.31622 9.16131 4.19497 9.16131C3.91372 9.16131 4.03372 8.35506 4.07372 8.19506C4.23622 7.95256 5.48372 7.51006 6.61122 7.51006C7.41622 7.47006 8.18247 7.67131 8.82622 8.19506C9.34997 8.75756 9.55122 9.48256 9.51122 10.2488L9.55122 12.9463ZM6.12872 14.1963C7.37622 14.1963 7.94122 13.3901 8.06122 12.9876C8.10122 12.5838 8.10122 12.3826 8.10122 11.9001C7.69872 11.8588 7.13497 11.7376 6.53122 11.7376C5.96747 11.6988 4.83997 11.9801 4.87997 12.9876C4.95997 13.7126 5.40372 14.2351 6.12872 14.1951M12.8137 15.0801C12.4912 15.1201 12.37 14.9188 12.2887 14.6776L10.3575 8.27506C10.3175 8.15381 10.3175 8.03381 10.3175 7.95256C10.3175 7.83256 10.3575 7.79131 10.4787 7.79131H11.325C11.6462 7.75131 11.7675 8.03381 11.8475 8.19506L13.2575 13.6713L14.5862 8.19506C14.6275 8.07381 14.7075 7.75131 15.1112 7.79131H15.795C15.835 7.79131 16.2375 7.79131 16.3187 8.19506L17.6062 13.7526L19.0162 8.19506C19.0162 8.15381 19.1375 7.75131 19.54 7.79131H20.345C20.3862 7.79131 20.5875 7.75131 20.5075 8.11381C20.5075 8.15381 20.6275 7.67131 18.4525 14.7188C18.4125 14.9601 18.2912 15.1613 17.9287 15.1213H17.2037C16.7612 15.1613 16.6812 14.7188 16.6812 14.6788L15.27 9.36256L13.9812 14.6788C13.9812 14.7188 13.9412 15.1213 13.4575 15.1213H12.8537V15.0813L12.8137 15.0801ZM23.445 15.3213C23.2037 15.3213 22.1575 15.3213 21.23 14.8788C21.0687 14.8376 20.9075 14.5963 20.9075 14.4351V13.9926C20.9075 13.6701 21.15 13.7101 21.23 13.7513C21.6325 13.9113 21.8337 14.0326 22.3575 14.1538C23.7675 14.4763 24.4112 14.1138 24.5725 13.9926C25.0975 13.6701 25.1362 12.9851 24.735 12.6238C24.3312 12.3013 24.17 12.3013 22.68 11.8176C22.5587 11.7376 21.03 11.2551 21.03 9.76381C20.9887 8.67631 21.995 7.54881 23.7275 7.54881C24.2512 7.54881 25.54 7.71006 25.9425 8.15256C25.9825 8.19381 25.9825 8.31506 25.9825 8.43506V8.83756C25.9825 8.99881 25.9425 9.12006 25.8212 9.12006C25.4987 9.07881 25.0162 8.67631 23.8887 8.67631C23.6062 8.67631 22.3175 8.71631 22.3987 9.64256C22.3987 10.3676 23.4862 10.6501 23.6062 10.7301C25.0162 11.1738 25.5387 11.2551 26.0225 11.9388C26.7075 12.7838 26.345 13.7913 26.1837 14.0726C25.4187 15.4826 23.5262 15.3226 23.4462 15.3226M25.0575 19.4301C22.3587 21.4051 18.3725 22.4913 15.03 22.4913C10.452 22.5651 6.01723 20.8951 2.62497 17.8201C2.34247 17.5776 2.58372 17.2563 2.90622 17.4976C6.67135 19.6068 10.9143 20.7159 15.23 20.7188C18.4512 20.7188 21.6325 20.0351 24.6137 18.7863C25.0962 18.5851 25.5 19.0676 25.0575 19.4301ZM26.1837 18.1426C25.8612 17.6988 23.8475 17.9801 23.0025 18.0213C22.72 18.0613 22.68 17.8588 22.9625 17.6988C24.5325 16.6113 27.11 16.8938 27.3912 17.2563C27.7137 17.5776 27.3512 20.1963 25.8212 21.4438C25.58 21.6063 25.3787 21.4838 25.4987 21.2826C25.7812 20.3976 26.5062 18.5851 26.1837 18.1413" fill="#C0A3CF"/>
</svg>
