<svg width="30" height="30" viewBox="0 0 30 30" fill="none" xmlns="http://www.w3.org/2000/svg">
<path d="M16.1025 15C17.565 15 18.75 16.1187 18.75 17.5C18.75 18.8813 17.565 20 16.1025 20H13.25C12.3075 20 11.8363 20 11.5425 19.7075C11.25 19.4125 11.25 18.9425 11.25 18V15M16.1025 15C17.565 15 18.75 13.8813 18.75 12.5C18.75 11.1187 17.565 10 16.1025 10H13.25C12.3075 10 11.8363 10 11.5425 10.2925C11.25 10.5875 11.25 11.0575 11.25 12V15M16.1025 15H11.25" stroke="#C0A3CF" stroke-width="1.5" stroke-linecap="round" stroke-linejoin="round"/>
<path d="M27.5 15C26.837 15 26.2011 14.7366 25.7322 14.2678C25.2634 13.7989 25 13.163 25 12.5V10C25 5.8625 24.1375 5 20 5H10C5.8625 5 5 5.8625 5 10V12.5C5 13.163 4.73661 13.7989 4.26777 14.2678C3.79893 14.7366 3.16304 15 2.5 15M2.5 15C3.16304 15 3.79893 15.2634 4.26777 15.7322C4.73661 16.2011 5 16.837 5 17.5V20C5 24.1375 5.8625 25 10 25H20C24.1375 25 25 24.1375 25 20V17.5C25 16.837 25.2634 16.2011 25.7322 15.7322C26.2011 15.2634 26.837 15 27.5 15" stroke="#C0A3CF" stroke-width="1.5" stroke-linecap="round" stroke-linejoin="round"/>
</svg>
