<svg width="31" height="31" viewBox="0 0 31 31" fill="none" xmlns="http://www.w3.org/2000/svg">
<path d="M19.4516 10.9031V20.9515M23.471 10.9031V20.9515M16.4371 13.9176H26.4855M16.4371 17.937H26.4855M16.4371 20.9515L15.6292 21.3555C14.7616 21.7903 13.7972 21.9959 12.8278 21.9527C11.8583 21.9095 10.916 21.619 10.0906 21.1088C9.26513 20.5985 8.58395 19.8856 8.11186 19.0378C7.63977 18.1899 7.39247 17.2354 7.39349 16.265V15.5897C7.39358 14.6197 7.64158 13.6658 8.11396 12.8186C8.58633 11.9714 9.2674 11.259 10.0925 10.749C10.9176 10.239 11.8594 9.94833 12.8284 9.90461C13.7974 9.86089 14.7615 10.0656 15.6292 10.4992L16.4371 10.9031M3.37411 21.9564V9.89828L15.4322 2.86438L27.4903 9.89828V21.9564L15.4322 28.9903L3.37411 21.9564Z" stroke="#C0A3CF"/>
</svg>
