<svg width="30" height="30" viewBox="0 0 30 30" fill="none" xmlns="http://www.w3.org/2000/svg">
<path d="M25.9425 5.99L22.3925 23.8775C22.3237 24.2243 22.1581 24.5446 21.9151 24.8014C21.672 25.0582 21.3613 25.241 21.0188 25.3288L15.9325 26.635C15.3208 26.7921 14.6793 26.7921 14.0675 26.635L8.98001 25.3288C8.63811 25.2407 8.32803 25.0579 8.08544 24.8013C7.84285 24.5448 7.67762 24.225 7.60876 23.8788L4.05751 5.99C4.00356 5.71816 4.01054 5.43774 4.07795 5.16892C4.14537 4.9001 4.27154 4.64956 4.44738 4.43535C4.62322 4.22113 4.84437 4.04856 5.0949 3.93006C5.34543 3.81155 5.61911 3.75006 5.89626 3.75H24.1038C24.3809 3.75006 24.6546 3.81155 24.9051 3.93006C25.1556 4.04856 25.3768 4.22113 25.5526 4.43535C25.7285 4.64956 25.8546 4.9001 25.9221 5.16892C25.9895 5.43774 25.9965 5.71816 25.9425 5.99Z" stroke="#C0A3CF" stroke-width="1.5" stroke-linecap="round" stroke-linejoin="round"/>
<path d="M19.9975 14.8638L18.8838 20.4363C18.8416 20.647 18.7458 20.8432 18.6057 21.0061C18.4655 21.1691 18.2858 21.2931 18.0838 21.3663L15.4262 22.3288C15.1512 22.4284 14.85 22.4284 14.575 22.3288L11.8925 21.3575C11.6946 21.2826 11.5193 21.1583 11.3832 20.9964C11.2471 20.8344 11.1547 20.6403 11.115 20.4325L10.8375 19.04M19.9975 14.8638L21.0713 9.49876C21.0931 9.38985 21.0905 9.27745 21.0636 9.16968C21.0367 9.06191 20.9862 8.96146 20.9158 8.87558C20.8453 8.7897 20.7567 8.72055 20.6562 8.67311C20.5558 8.62567 20.4461 8.60112 20.335 8.60126H8.75M19.9975 14.8638H10.0025" stroke="#C0A3CF" stroke-width="1.5" stroke-linecap="round" stroke-linejoin="round"/>
</svg>
