<svg width="25" height="32" viewBox="0 0 25 32" fill="none" xmlns="http://www.w3.org/2000/svg">
<path d="M13.736 14.4417H11.1922V10.1907H13.736V14.4417ZM13.736 0H11.1922V4.32593H13.736V0ZM16.8047 10.3359H14.261V14.5166H16.8047V10.3359ZM10.7085 5.13392H8.16345V9.38495H10.706L10.7085 5.13392ZM13.736 5.13392H11.1922V9.38495H13.736V5.13392ZM24.5972 12.2447C24.0322 11.5116 22.7397 11.2914 21.771 11.6591C21.6497 9.90016 21.0835 8.43397 20.196 7.11304L19.631 6.52748L19.3085 7.55335C18.621 9.53248 18.3797 12.8325 19.146 14.9569C18.5689 15.4783 17.9342 15.7546 17.2897 15.7649H0.0884507C-0.235299 19.3555 0.329701 24.1217 1.78345 27.3469C3.19595 30.4268 5.4172 31.9656 8.24345 31.9656C14.3809 31.9656 18.9834 26.8362 21.0835 17.4512C21.891 17.4512 23.7485 17.4512 24.6772 14.2238C24.7172 14.1512 24.9597 13.2706 24.9997 12.9778L24.5972 12.2447ZM4.61095 10.3382H2.0272V14.5189H4.57095V10.3359L4.61095 10.3382ZM7.6397 10.3382H5.09595V14.5189H7.63845L7.6397 10.3382ZM10.7072 10.3382H8.16595V14.5189H10.7085L10.7072 10.3382ZM7.6397 5.13392H5.09595V9.38495H7.63845L7.6397 5.13392Z" fill="#C0A3CF"/>
</svg>
