<svg width="30" height="30" viewBox="0 0 30 30" fill="none" xmlns="http://www.w3.org/2000/svg">
<path fill-rule="evenodd" clip-rule="evenodd" d="M19.2441 18.3825C19.3564 18.0937 19.4836 17.8094 19.5785 17.5151C20.1145 15.8518 20.6461 14.187 21.1735 12.5208C21.3762 11.8807 21.5984 11.2505 21.9973 10.7004C22.6282 9.83109 23.5071 9.3757 24.5473 9.21656C24.957 9.15571 25.3706 9.12392 25.7848 9.1214C27.0192 9.10968 28.2542 9.11788 29.4889 9.11906C29.5545 9.11906 29.6201 9.12585 29.7132 9.13124C29.6829 9.20249 29.6665 9.25429 29.6403 9.30093C29.1821 10.1198 28.7328 10.9437 28.261 11.7544C27.4395 13.1658 26.6166 14.5767 25.7693 15.9726C25.2258 16.8677 24.6364 17.7351 23.9677 18.5447C23.4743 19.1419 22.9549 19.7128 22.2928 20.1314C21.8417 20.4166 21.3598 20.5835 20.8128 20.5807C18.8726 20.5701 16.9324 20.5779 14.9923 20.5751C14.4155 20.5741 13.9217 20.3545 13.5026 19.965C12.9019 19.4069 12.5433 18.6966 12.2499 17.9475C11.7146 16.5799 11.4148 15.1465 11.0707 13.7255C10.9095 13.0603 10.7262 12.4003 10.5516 11.7384C10.5403 11.6955 10.5183 11.6555 10.493 11.5938L10.3578 11.7209C9.6012 12.4725 8.93487 13.3008 8.33862 14.1813C8.1762 14.4213 8.12159 14.7377 8.03088 15.023C7.69713 16.0706 7.39291 17.1284 7.03151 18.1662C6.68534 19.1604 6.06471 19.9512 5.09463 20.4185C4.53205 20.691 3.91745 20.8392 3.29252 20.8533C2.35971 20.8739 1.42643 20.8762 0.493384 20.8847C0.270259 20.8868 0.259946 20.8685 0.318071 20.6526C0.71815 19.1672 1.2251 17.7197 1.86026 16.3186C2.5151 14.8732 3.28643 13.4948 4.25815 12.236C4.91979 11.3789 5.65057 10.5881 6.5651 9.99023C7.02893 9.68718 7.52206 9.44765 8.08315 9.3846C8.17549 9.37406 8.26901 9.36749 8.36182 9.36749C10.3489 9.36655 12.3359 9.38671 14.3227 9.35835C15.3884 9.34312 16.1599 9.79312 16.7377 10.6509C17.097 11.1844 17.3541 11.7668 17.5704 12.3684C18.0066 13.582 18.2778 14.8404 18.5841 16.0898C18.7594 16.8049 18.9546 17.5151 19.1417 18.2273C19.1557 18.2808 19.1785 18.3319 19.1974 18.3839L19.2441 18.3825Z" fill="#C0A3CF"/>
</svg>
