<svg width="38" height="38" viewBox="0 0 38 38" fill="none" xmlns="http://www.w3.org/2000/svg">
    <path fill-rule="evenodd" clip-rule="evenodd" d="M7.2691 11.4016C7.09524 11.6043 6.99996 11.8604 7 12.125V25.625C7 26.5201 7.36348 27.3785 8.01048 28.0115C8.65748 28.6444 9.535 29 10.45 29H26.55C27.465 29 28.3425 28.6444 28.9895 28.0115C29.6365 27.3785 30 26.5201 30 25.625V12.1363C30.0015 11.9685 29.9648 11.8026 29.8923 11.6506C29.8199 11.4985 29.7137 11.3643 29.5814 11.2576C29.3767 11.0923 29.1199 11.0013 28.8546 11H8.15C7.9821 11 7.81623 11.0359 7.66405 11.1053C7.51187 11.1747 7.37706 11.2758 7.2691 11.4016ZM9.3 14.8407V25.625C9.3 25.9234 9.42116 26.2095 9.63682 26.4205C9.85249 26.6315 10.145 26.75 10.45 26.75H26.55C26.855 26.75 27.1475 26.6315 27.3631 26.4205C27.5788 26.2095 27.7 25.9234 27.7 25.625V14.8407L19.313 23.0454C19.0974 23.2563 18.8049 23.3748 18.5 23.3748C18.195 23.3748 17.9026 23.2563 17.6869 23.0454L9.3 14.8407Z" fill="#3E0E71"/>
    <path d="M32.2917 0H5.45833C4.07818 0.00384829 2.75566 0.553818 1.77974 1.52974C0.803818 2.50566 0.253848 3.82818 0.25 5.20833V32.0417C0.253848 33.4218 0.803818 34.7443 1.77974 35.7203C2.75566 36.6962 4.07818 37.2462 5.45833 37.25H32.2917C33.673 37.25 34.9978 36.7013 35.9745 35.7245C36.9513 34.7478 37.5 33.423 37.5 32.0417V5.20833C37.5 3.827 36.9513 2.50224 35.9745 1.52549C34.9978 0.548733 33.673 0 32.2917 0ZM35.4167 32.0417C35.4112 32.8688 35.0802 33.6605 34.4953 34.2453C33.9105 34.8302 33.1188 35.1612 32.2917 35.1667H5.45833C4.63122 35.1612 3.83953 34.8302 3.25466 34.2453C2.66979 33.6605 2.33879 32.8688 2.33333 32.0417V5.20833C2.33879 4.38122 2.66979 3.58953 3.25466 3.00466C3.83953 2.41979 4.63122 2.08879 5.45833 2.08333H32.2917C33.1188 2.08879 33.9105 2.41979 34.4953 3.00466C35.0802 3.58953 35.4112 4.38122 35.4167 5.20833V32.0417Z" fill="#C0A3CF"/>
</svg>