<svg width="30" height="30" viewBox="0 0 30 30" fill="none" xmlns="http://www.w3.org/2000/svg">
<path d="M10.8337 10.8337C9.72862 10.8337 8.66876 10.3947 7.88732 9.6133C7.10588 8.83186 6.66687 7.772 6.66687 6.66687C6.66687 5.56175 7.10588 4.50189 7.88732 3.72045C8.66876 2.93901 9.72862 2.5 10.8337 2.5H15V10.8337M10.8337 10.8337H15M10.8337 10.8337C9.72879 10.8337 8.66909 11.2727 7.88776 12.054C7.10644 12.8353 6.6675 13.895 6.6675 15C6.6675 16.105 7.10644 17.1647 7.88776 17.946C8.66909 18.7273 9.72879 19.1663 10.8337 19.1663H15V10.8337" stroke="#C0A3CF" stroke-width="1.5"/>
<path d="M23.3337 15C23.3337 16.1051 22.8947 17.165 22.1133 17.9464C21.3318 18.7279 20.272 19.1669 19.1669 19.1669C18.0617 19.1669 17.0019 18.7279 16.2204 17.9464C15.439 17.165 15 16.1051 15 15C15 13.8949 15.439 12.835 16.2204 12.0536C17.0019 11.2721 18.0617 10.8331 19.1669 10.8331C20.272 10.8331 21.3318 11.2721 22.1133 12.0536C22.8947 12.835 23.3337 13.8949 23.3337 15ZM10.8337 19.1675H15V23.3338C14.9997 24.1577 14.7552 24.9631 14.2972 25.6481C13.8393 26.333 13.1885 26.8668 12.4272 27.182C11.6659 27.4971 10.8283 27.5794 10.0202 27.4185C9.21208 27.2577 8.46984 26.8608 7.88731 26.278C7.30477 25.6953 6.9081 24.953 6.74744 24.1448C6.58679 23.3367 6.66937 22.4991 6.98474 21.7379C7.30011 20.9767 7.83411 20.326 8.51922 19.8683C9.20433 19.4106 10.0098 19.1675 10.8337 19.1675Z" stroke="#C0A3CF" stroke-width="1.5"/>
<path d="M15 2.5H19.1663C20.2714 2.5 21.3312 2.93901 22.1127 3.72045C22.8941 4.50189 23.3331 5.56175 23.3331 6.66687C23.3331 7.772 22.8941 8.83186 22.1127 9.6133C21.3312 10.3947 20.2714 10.8337 19.1663 10.8337H15V2.5Z" stroke="#C0A3CF" stroke-width="1.5"/>
</svg>
