<svg width="30" height="30" viewBox="0 0 30 30" fill="none" xmlns="http://www.w3.org/2000/svg">
<path d="M10.4157 23.5851C9.42424 22.8047 8.36721 22.057 7.64299 21.0047C6.1219 19.1484 4.95003 16.9969 4.15081 14.7375C3.66565 13.268 3.50159 11.693 2.87581 10.2797C2.22424 9.25311 2.98831 8.1328 4.11096 7.80701C4.61018 7.71092 5.49143 7.23748 4.42971 7.57733C3.47815 8.27576 3.38675 6.94217 4.36174 6.8578C5.02737 6.76873 5.27346 6.22498 5.04612 5.73279C4.33128 5.26639 6.78049 4.75311 5.54768 4.05701C4.26331 2.67186 7.343 2.40467 6.58362 3.97967C6.40315 5.18904 8.73518 3.75701 8.19378 5.15389C8.74456 5.8242 10.2563 5.30623 10.2164 6.24842C11.018 6.30467 11.2946 6.97733 12.0446 7.02889C12.825 7.38045 14.2383 7.65936 14.5032 8.53826C13.7297 9.14998 11.9367 7.27264 11.8524 8.96951C12.0867 11.475 12.0258 14.0555 12.9422 16.4414C13.3758 17.8851 14.4258 19.0219 15.375 20.1469C16.2844 21.2484 17.5125 22.0242 18.7688 22.6781C19.868 23.1961 21.0539 23.5406 22.2539 23.7562C22.7391 23.3836 23.5992 22.0031 24.3563 22.5844C24.3938 23.2406 22.8516 23.9531 24.2836 23.8828C25.125 23.6297 25.7086 24.532 26.4024 23.7164C27.0399 24.4734 29.0555 23.2336 28.6008 24.7781C27.9867 25.1742 27.0914 24.9351 26.475 25.4812C25.4602 24.975 24.6539 25.9336 23.5313 25.814C22.2844 26.0367 21.0164 26.1281 19.7508 26.1281C17.6766 25.964 15.5578 25.8961 13.5867 25.1742C12.4758 24.8508 11.3907 24.218 10.4157 23.5851ZM12.1664 24.3445C13.2516 24.8133 14.3133 25.3078 15.5016 25.4578C17.3883 25.7203 19.3383 26.1234 21.2321 25.7555C20.3742 25.3687 19.4883 25.9055 18.6352 25.4789C17.611 25.6992 16.5117 25.4226 15.4711 25.2867C14.2875 24.7594 13.0102 24.3961 11.9016 23.7117C10.5164 23.2055 12.6188 24.3609 12.9914 24.4547C13.8563 24.9469 12.0399 24.2015 11.7821 23.9976C11.0578 23.5898 10.9641 23.6765 11.7094 24.089C11.8594 24.1758 12.0094 24.2695 12.1664 24.3445ZM10.1016 22.8844C11.1539 23.2734 10.0969 22.1437 9.61643 22.2094C9.40315 21.839 8.80081 21.6047 9.22503 21.4055C8.46096 21.6703 8.42346 20.3976 8.06487 20.5781C7.25628 20.3226 7.75081 19.418 6.78753 18.8625C6.70081 18.2765 5.83128 17.7703 5.55471 16.8867C5.43284 16.4344 4.57268 15.1383 5.10003 16.3453C5.55003 17.5078 6.33987 18.5039 6.99846 19.4976C7.5094 20.4445 8.11409 21.4336 9.04221 22.0242C9.35628 22.3289 9.65862 22.7906 10.1016 22.8844ZM7.07112 19.5586C7.10862 19.3992 7.26331 19.9008 7.07112 19.5586V19.5586ZM11.3602 23.3508C11.025 23.2195 11.5946 23.2476 11.3602 23.3508V23.3508ZM11.9321 23.5594C11.6719 23.7211 11.8735 23.2711 11.9321 23.5594V23.5594ZM12.6469 23.857C12.1219 23.6531 12.9867 23.5336 12.6469 23.857V23.857ZM13.8703 24.539C13.2094 24.4242 14.0789 24.2344 13.8703 24.539V24.539ZM11.5196 22.9008C10.8375 22.8961 12.0469 22.5586 11.5196 22.9008V22.9008ZM12.0563 23.168C11.8641 23.2476 12.0399 22.9875 12.0563 23.168V23.168ZM14.7352 24.839C15.1664 25.1109 17.25 25.4344 15.9446 24.9515C15.7266 24.9984 13.5235 24.3281 14.7352 24.839ZM10.4813 21.5273C9.81331 21.3281 10.4391 21.3469 10.4813 21.5273V21.5273ZM11.7282 22.2539C11.0555 22.0805 12.0539 22.0289 11.7282 22.2539V22.2539ZM12.7782 22.8984C12.0211 22.7226 13.2422 22.7226 12.7782 22.8984V22.8984ZM9.97268 20.9742C10.4789 21.3609 12.0117 21.0234 10.7461 20.7422C10.1719 20.4351 8.87346 20.2265 9.75706 20.9273L9.97268 20.9742ZM13.4883 23.1211C12.6047 22.9148 13.6992 22.7625 13.4883 23.1211V23.1211ZM12.4196 22.2703C13.6547 22.6195 11.3813 21.4875 12.1149 22.1414L12.2789 22.2164L12.4196 22.2703ZM14.5617 23.5078C13.5047 23.3484 15.7313 23.5195 14.5617 23.5078V23.5078ZM9.52268 20.2969C9.2344 20.3156 9.47815 20.0789 9.52268 20.2969V20.2969ZM16.5399 24.6187C16.1602 24.9117 16.5727 24.225 16.5399 24.6187V24.6187ZM11.5196 21.5203C11.1539 21.5109 11.4492 21.314 11.5196 21.5203V21.5203ZM9.63518 20.1609C8.71409 19.8656 10.3055 20.1211 9.63518 20.1609V20.1609ZM7.39924 18.7172C6.66799 18.1383 7.31487 18.3937 7.39924 18.7172V18.7172ZM13.2657 22.439C13.1438 22.2984 13.2071 22.4695 13.2657 22.439V22.439ZM16.9172 24.6797C16.718 24.7617 16.9055 24.4664 16.9172 24.6797V24.6797ZM12.9422 22.1062C12.3703 22.0219 13.0078 21.8297 12.9422 22.1062V22.1062ZM10.2235 20.3812C9.4219 20.0437 10.7227 20.3273 10.2235 20.3812V20.3812ZM14.8242 23.2406C14.0649 23.0906 15.6024 22.9312 14.8242 23.2406V23.2406ZM12.4313 21.6164C13.3289 21.7312 11.3625 21.0047 12.2344 21.5508L12.4313 21.6164ZM15.5508 23.5359C16.3899 23.0344 16.1133 24.7101 16.9735 23.6765C17.8219 23.0578 16.2399 24.443 17.2852 23.7867C18.0422 23.2805 19.1578 24.0258 19.8633 24.2695C20.3696 24.2437 20.8641 24.7078 21.3844 24.4265C22.3852 24.157 19.425 24.0258 20.2008 23.5476C19.2844 23.8148 18.6071 23.2289 18.1571 22.643C17.1282 22.4062 15.9399 21.8812 15.4266 20.9695C15.218 20.6273 15.7289 21.0187 15.2461 20.4586C14.6274 19.9078 14.318 19.282 13.9032 18.6117C13.4063 18.3469 13.3477 17.5664 13.2985 18.5859C13.3032 17.9437 12.6985 17.5101 12.5508 17.6906C12.5485 17.0719 13.1977 17.3812 12.743 16.9242C12.6446 16.282 12.3235 15.614 12.2274 14.8898C12.0774 14.5406 12.2063 13.793 11.7141 14.5828C11.536 15.4195 11.6555 13.5562 11.9344 14.1703C12.3 13.5445 11.8032 13.6172 11.7821 13.7039C12.0211 13.1742 11.9321 12.4242 11.7188 12.7101C11.8453 12.15 11.9203 10.6476 11.5289 10.9148C11.7657 10.3289 11.9789 8.23358 10.95 9.0328C10.5328 9.03983 9.81331 9.1828 9.47112 9.35389C10.5399 9.94217 9.36331 9.56717 8.92737 9.47342C8.87112 10.0195 8.43987 9.78279 7.90081 9.78748C8.76096 9.89295 7.48128 10.6664 6.98909 10.3664C6.3469 10.6734 7.54221 11.4375 7.00081 11.6742C7.06643 12.0305 6.01878 11.5453 6.10081 12.368C5.47971 12.1055 6.01643 13.343 6.32581 12.9258C7.38284 13.2117 7.07112 13.8656 7.0969 14.4844C6.92346 14.8453 6.24612 13.6359 6.9469 13.6922C6.39378 12.7945 6.33518 13.3687 5.87815 13.7836C5.77268 13.814 7.04768 14.3765 6.24612 14.6555C6.95159 14.7656 6.97268 15.382 7.11565 15.7711C7.53987 16.2117 7.45315 15.2836 7.9594 15.8133C7.63831 15.3398 6.26018 14.482 7.36878 14.7562C7.36174 14.2805 7.16721 13.8961 7.5094 13.9055C7.8469 13.2961 7.1555 15.4101 7.91487 14.6344C8.12581 14.543 8.17737 14.025 8.55471 14.6836C9.10315 15.2226 8.75393 15.614 7.97815 15.1195C8.11643 15.5906 9.01409 15.757 8.84534 16.493C9.02346 17.1398 9.27424 16.9008 9.49221 16.8633C9.66331 17.4914 9.7594 17.0297 9.76878 16.7297C10.5516 16.8984 10.3688 17.3601 10.6125 17.6836C11.1516 17.9273 9.84143 16.0336 10.7672 17.114C11.7422 17.993 11.1328 18.3609 10.2586 18.2203C10.8117 18.1758 10.9899 18.968 11.6813 18.9398C12.3117 19.2398 12.7407 20.393 11.6532 19.9125C11.2758 19.5726 9.93987 19.1531 11.0321 19.8C12.0399 20.2664 12.8391 20.5453 13.8117 21.1312C14.5055 21.6281 14.8078 22.1953 15.0703 22.3078C14.4867 22.5867 13.3102 22.0851 14.1844 21.9305C13.6383 21.832 13.0266 21.5555 13.5492 22.2351C13.9922 22.6055 15.1219 22.568 15.3258 22.6078C15.1547 22.9851 14.8594 23.0156 15.3328 23.0437C14.8055 23.3297 15.5016 23.3742 15.5508 23.5359ZM14.4727 20.489C14.1516 20.1539 14.0696 19.5258 14.4164 20.0719C14.5922 20.1422 14.986 21.0984 14.4727 20.489ZM17.986 22.7203C17.9907 22.8726 18.1852 22.7062 17.986 22.7203V22.7203ZM13.9664 19.6664C13.9524 19.1578 14.0813 20.0578 13.9664 19.6664V19.6664ZM13.6172 19.1953C13.2117 18.4172 14.1258 19.418 13.6172 19.1953V19.1953ZM9.3844 16.275C9.50159 16.6805 9.62112 16.2117 9.3844 16.275V16.275ZM12.7524 18.1008C12.8977 17.5547 12.9235 18.5601 12.7524 18.1008V18.1008ZM10.3735 16.4461C10.2071 16.1437 10.725 16.7297 10.3735 16.4461V16.4461ZM12.4149 17.1C12.0328 16.2445 12.6867 16.6312 12.4992 17.2406L12.4149 17.1ZM8.89456 14.7539C8.72346 14.4726 8.44221 13.6476 8.53128 13.3969C8.61331 13.807 9.40315 15.1617 8.91799 13.957C8.38362 12.9492 9.55784 14.2851 9.67971 14.5359C9.73596 14.7867 9.34924 14.468 9.61174 15.0539C9.13362 14.3859 9.3305 15.4242 8.89456 14.7539ZM7.80706 14.0039C7.85159 13.35 8.0555 14.4515 7.80706 14.0039V14.0039ZM8.29456 14.1726C8.52893 13.6781 8.69065 14.8594 8.29456 14.1726V14.1726ZM7.118 13.2609C6.71253 12.8578 6.41956 12.4875 7.13674 13.0101C7.41331 13.0219 6.52268 12.1664 7.20237 12.7383C7.91956 12.8695 7.55628 13.9125 7.118 13.2609ZM7.73674 13.2445C7.86096 13.4742 7.97112 13.0125 7.73674 13.2445V13.2445ZM8.11643 13.3664C7.76018 12.6984 8.55003 13.6476 8.11643 13.3664V13.3664ZM7.36174 12.6445C6.18518 11.5969 8.84065 13.193 7.55393 12.839L7.36174 12.6445ZM10.7344 14.6039C10.2235 14.2992 10.5985 12.4523 10.7719 13.7156C11.2664 13.5562 10.7438 14.3672 11.1141 14.3601C11.0578 14.8711 10.8914 15.0562 10.7344 14.6039ZM11.9836 15.3422C12.0328 14.7844 12.0891 15.7219 11.9836 15.3422V15.3422ZM11.7657 15.1265C11.7727 15.4078 11.8219 14.8898 11.7657 15.1265V15.1265ZM7.59143 12.3C6.8344 11.257 9.78987 13.357 8.07659 12.5648C7.89612 12.5156 7.68049 12.4992 7.59143 12.3ZM9.99612 13.5726C9.92346 12.6937 10.1555 13.718 9.99612 13.5726V13.5726ZM11.8196 14.7445C11.8313 15.075 11.9602 14.243 11.8196 14.7445V14.7445ZM7.70862 11.9015C8.15862 11.8055 9.5719 12.6914 8.27346 12.1547C8.12815 11.993 7.82112 12.0656 7.70862 11.9015ZM11.5688 13.8258C11.6157 12.9258 11.8383 13.289 11.5711 13.9547L11.5688 13.8258ZM8.04143 11.5875C8.22425 11.318 7.55393 10.3734 8.13753 11.2476C8.39065 11.4469 8.86643 11.5828 8.44456 11.6672C9.11018 12.2531 8.28518 11.8265 8.04143 11.5875ZM11.3789 13.5445C11.4891 14.1445 11.5055 12.5203 11.3789 13.5445V13.5445ZM7.6594 10.643C7.7344 10.8281 7.80003 10.582 7.6594 10.643V10.643ZM8.52893 11.1609C8.75393 10.6898 8.94378 11.6836 8.52893 11.1609V11.1609ZM10.9828 12.525C10.9828 12.3445 11.0297 12.7875 10.9828 12.525V12.525ZM10.8422 12.2109C10.5024 11.3695 11.1586 12.6562 10.8422 12.2109V12.2109ZM10.6336 11.6601C10.575 11.3133 10.8282 12.0961 10.6336 11.6601V11.6601ZM10.9735 11.107C10.7391 10.6945 11.2688 9.29061 11.3274 10.1625C11.0813 10.8398 11.2571 11.2195 11.4282 10.3101C11.7469 9.59295 11.3602 11.7211 10.9735 11.107ZM11.3227 9.01873C11.3461 9.17108 11.4258 8.89451 11.3227 9.01873V9.01873ZM10.7391 20.5312C10.6008 20.4094 10.7555 20.6086 10.7391 20.5312V20.5312ZM11.9414 21.1406C12.6117 21.314 12.6071 21.0375 12.0024 20.9555C11.6766 20.6531 10.65 20.332 11.5688 20.918C11.6321 21.0703 11.8242 21.0656 11.9414 21.1406ZM9.56487 19.5609C9.93284 19.8375 10.9547 20.339 10.0899 19.6664C10.3805 19.3289 9.53206 19.1484 9.81331 18.9211C9.09612 18.4828 9.24846 18.5226 9.75003 18.5367C8.88987 18.1523 9.87425 18.1805 9.82737 17.9836C9.49456 17.918 8.17971 17.3976 8.95315 18.0258C8.16565 17.625 8.76565 18.1758 8.52659 18.1172C7.72034 17.8969 9.24378 18.7312 8.40003 18.5226C8.86174 18.8883 9.64221 19.4601 8.59456 18.9094C8.46096 19.1086 9.3469 19.4109 9.56487 19.5609ZM10.8235 20.2851C10.0735 19.6805 12.3539 20.7773 10.8235 20.2851V20.2851ZM17.2688 24.1875C17.0578 24.4476 17.2875 23.8828 17.2688 24.1875V24.1875ZM17.9297 24.4664C18.2836 24.1242 17.9438 25.0125 18.5157 24.382C18.5227 23.932 18.4992 23.6648 17.8594 24.2133C17.6836 24.3117 17.6039 24.7265 17.9297 24.4664ZM7.41799 17.864C6.65628 17.4398 7.30784 17.4375 7.41799 17.864V17.864ZM8.12346 18.3281C7.18596 17.9344 7.86096 17.8922 8.12346 18.3281V18.3281ZM12.1477 20.7539C12.5414 21.1031 13.9524 21.0094 12.6235 20.7961C12.4289 20.5055 11.3766 20.5758 12.1477 20.7539ZM17.6789 24.1687C17.093 24.3961 18.2813 23.6625 17.6789 24.1687V24.1687ZM18.9352 25.0336C18.675 25.1039 18.9399 24.8719 18.9352 25.0336V25.0336ZM18.9375 24.8062C18.2883 24.8484 19.6078 24.0961 18.9375 24.8062V24.8062ZM5.67659 16.4086C5.10706 15.5953 5.32268 15.2297 4.7719 14.564C4.66643 14.0555 3.82737 12.9023 4.33831 14.1234C4.80471 14.8383 4.94299 15.9445 5.67659 16.4086ZM18.7266 24.5812C18.2227 24.2344 19.9594 23.7844 18.7266 24.5812V24.5812ZM19.6664 24.9492C19.2774 24.839 20.2852 24.4195 19.6664 24.9492V24.9492ZM7.20706 16.964C6.75237 16.9312 7.38518 16.7015 7.20706 16.964V16.964ZM19.4719 24.6961C20.0696 24.3117 19.3336 24.3703 19.3641 24.7312L19.4719 24.6961ZM11.3672 19.589C11.0508 19.6101 11.3461 19.3289 11.3672 19.589V19.589ZM11.8688 19.8773C11.6227 19.9265 11.7071 19.5539 11.8688 19.8773V19.8773ZM20.4305 24.9562C21.1969 24.4031 19.9664 24.8508 20.2711 25.0617L20.4305 24.9562ZM20.1352 24.8156C19.4789 25.0476 20.761 24.293 20.1352 24.8156V24.8156ZM21.6328 25.8117C21.1242 25.7226 22.0524 25.5328 21.6328 25.8117V25.8117ZM7.59143 16.7742C8.15159 16.9008 9.83206 18.1547 8.84065 16.8609C8.33206 16.7109 8.63674 15.4687 8.11878 15.689C8.46565 16.2703 8.40471 16.5164 7.67346 16.1508C6.75706 15.7031 7.15784 16.3711 7.33831 16.5562C7.09456 16.6148 7.66409 16.7695 7.59143 16.7742ZM5.03674 14.7562C5.13753 14.3414 4.11096 12.4711 4.55159 13.8187C4.71096 14.1023 4.69456 14.6367 5.03674 14.7562ZM9.72659 17.6484C9.43831 17.407 9.71253 17.6133 9.72659 17.6484V17.6484ZM10.4367 17.8148C9.65159 17.6344 10.4367 17.3742 10.4367 17.8148V17.8148ZM16.6008 21.6984C16.1367 21.6937 16.4836 21.3984 16.6008 21.6984V21.6984ZM16.8961 21.9164C16.7274 21.9492 16.8539 21.7476 16.8961 21.9164V21.9164ZM19.3407 23.4539C19.0477 23.4328 19.575 23.2805 19.3407 23.4539V23.4539ZM6.31174 15.082C5.59221 14.8969 6.9844 14.8219 6.31174 15.082V15.082ZM16.0594 21.2226C15.6305 21.3305 16.05 20.7867 16.0594 21.2226V21.2226ZM6.0469 14.4633C5.64612 14.3672 6.47815 14.318 6.0469 14.4633V14.4633ZM7.29846 15.0703C7.16721 15.1242 7.29143 14.9273 7.29846 15.0703V15.0703ZM22.5844 24.443C23.1399 24.3305 24.4055 24.7265 24.6094 24.2953C23.9344 24.2789 22.2774 23.8195 22.2 24.4031L22.3477 24.4265L22.5844 24.443ZM7.6969 15.1711C7.35471 15.1547 7.70862 14.7305 7.6969 15.1711V15.1711ZM4.40393 12.8859C3.8344 12.7594 4.25393 12.0469 4.40393 12.8859V12.8859ZM5.18909 13.0828C4.46956 12.8414 5.19846 12.8133 5.18909 13.0828V13.0828ZM5.63674 13.3031C5.50784 13.2 5.53596 13.4367 5.63674 13.3031V13.3031ZM8.46331 15.1148C8.1469 15.0258 8.5969 14.993 8.46331 15.1148V15.1148ZM5.33909 12.8062C4.42971 12.7125 5.26174 12.1711 5.33909 12.8062V12.8062ZM3.72893 11.7609C3.5719 11.8711 3.70549 11.468 3.72893 11.7609V11.7609ZM3.96799 11.5805C3.76174 11.625 3.92815 11.2336 3.96799 11.5805V11.5805ZM5.29221 12.3703C5.85237 12.15 4.27268 11.9156 5.17737 12.3281L5.29221 12.3703ZM23.0086 23.3133C22.5539 23.2125 23.3672 22.9851 23.0086 23.3133V23.3133ZM25.1485 24.4242C24.7875 24.4781 25.2914 24 25.1485 24.4242V24.4242ZM5.42581 11.6765C4.98284 11.7586 5.48674 11.2664 5.42581 11.6765V11.6765ZM3.54378 10.4156C3.44299 9.8367 3.45706 8.81717 4.42503 9.1617C3.13362 9.41951 5.32034 10.7672 5.04378 9.70311C5.58753 9.72889 6.10549 9.38201 5.8219 9.90936C6.89299 9.79217 7.63362 8.86404 8.66721 8.99295C9.47346 8.88514 10.3524 8.80545 11.2196 8.48201C11.9321 8.43045 12.6188 7.6617 12.2297 7.20701C11.2571 7.12498 10.2375 7.24686 9.16409 7.46014C7.97346 7.70858 6.89065 8.17733 5.68831 8.38123C4.51643 8.53826 5.92268 8.81483 5.58753 8.87576C4.97581 9.0867 6.31643 9.23201 5.50784 9.45467C5.00862 9.35858 4.48831 9.18748 4.70159 8.66248C3.57893 8.8078 2.59221 9.2742 3.48049 10.4156H3.54378ZM6.24846 9.03748C6.51096 8.06717 7.65706 9.83436 6.67971 9.16639C6.56253 9.07733 6.37034 9.00701 6.24846 9.03748ZM6.30003 8.56639C6.50159 8.72576 6.67971 8.28514 6.30003 8.56639V8.56639ZM6.78284 8.57576C6.818 8.13045 7.88674 8.81248 6.95862 8.73514L6.78284 8.57576ZM7.44143 8.30858C7.51174 8.55936 7.68284 8.02733 7.44143 8.30858V8.30858ZM7.61018 8.19608C8.01096 7.71326 9.88128 7.88905 8.51253 8.1492C8.1469 7.87264 7.86565 8.31326 7.61018 8.19608ZM10.0524 7.82108C9.99143 6.50389 11.2664 8.28748 10.0524 7.82108V7.82108ZM10.7461 7.81639C10.9992 7.15311 11.7305 7.5492 10.8633 7.68279C10.8821 7.75311 10.8375 8.02498 10.7461 7.81639ZM5.15393 11.3367C4.35003 10.9336 5.91096 10.8726 5.15393 11.3367V11.3367ZM5.71409 11.4914C5.13753 11.3765 5.97893 11.2101 5.71409 11.4914V11.4914ZM4.06409 10.3219C3.55315 10.1953 4.49768 9.98905 4.06409 10.3219V10.3219ZM26.4117 24.3023C26.0813 24.4758 26.4235 23.9156 26.4117 24.3023V24.3023ZM24.1407 22.7531C23.85 22.7906 24.2063 22.3078 24.1407 22.7531V22.7531ZM27.0375 24.4523C27.6422 24.4547 28.8703 24.2648 27.5532 24.2648C27.3469 24.2953 26.3508 24.2906 27.0375 24.4523ZM6.20628 11.2195C6.69612 11.1867 6.97268 10.6805 6.11018 10.7086C4.77659 10.5703 7.28674 11.1656 5.93909 10.9945C5.75862 11.114 6.19456 11.2523 6.20628 11.2195ZM6.63753 11.4375C6.48518 11.6039 6.58596 11.1234 6.63753 11.4375V11.4375ZM7.14846 10.0734C6.85315 10.0031 7.3594 9.81092 7.14846 10.0734V10.0734ZM5.51956 7.35467C6.39378 7.05701 7.58675 6.7242 7.99925 7.49998C7.57971 6.99608 7.83049 6.49686 8.22659 7.23748C8.78674 7.98514 9.068 6.89764 8.70237 6.64686C9.11721 7.16248 9.59065 7.40623 8.98128 6.67967C9.64456 5.88279 7.65471 6.78514 7.20237 6.77576C6.98674 6.87186 4.95706 7.29139 5.51956 7.35467ZM6.03284 6.37498C6.53206 5.99998 7.7555 6.59998 6.97034 6.00233C6.89299 5.93201 5.24768 6.45467 6.03284 6.37498ZM7.84925 6.44998C8.43284 6.46404 7.59846 5.66717 8.29221 6.02811C8.17737 5.65545 7.48362 5.58514 7.14378 5.43748C6.95159 5.77733 7.53284 6.45467 7.84925 6.44998ZM6.35159 4.79998C5.99768 4.94061 6.55315 4.52811 6.35159 4.79998V4.79998ZM7.09221 4.97811C8.03206 4.85389 6.85315 4.57498 6.90237 4.96873L7.09221 4.97811ZM5.70706 3.89529C5.04612 3.03045 6.95159 4.04061 6.27893 3.13592C5.71409 2.68592 5.17034 3.64217 5.70706 3.89529ZM14.1938 8.46561C14.4961 7.92889 12.9422 7.74139 13.9899 8.27576C14.0883 8.30858 14.0649 8.50311 14.1938 8.46561Z" fill="#C0A3CF"/>
</svg>
