<svg width="38" height="38" viewBox="0 0 38 38" fill="none" xmlns="http://www.w3.org/2000/svg">
    <path d="M15.6822 29C15.9044 29 16.0717 28.9928 16.184 28.9784C16.3142 28.9524 16.4316 28.8845 16.5173 28.7858C16.6284 28.673 16.684 28.5086 16.684 28.2926L16.6766 27.2901C16.6716 26.6505 16.6692 26.1441 16.6692 25.7709L16.321 25.8303C16.0425 25.8731 15.7604 25.89 15.4785 25.8807C15.1244 25.8746 14.7714 25.8403 14.423 25.7781C14.0538 25.7096 13.7063 25.5579 13.4083 25.3354C13.0967 25.1063 12.8642 24.7905 12.7416 24.43L12.5898 24.0898C12.4628 23.8215 12.3024 23.5694 12.1121 23.3392C11.9412 23.1033 11.7145 22.9106 11.451 22.7777L11.3454 22.7057C11.2727 22.6537 11.2068 22.5932 11.1491 22.5257C11.0941 22.4637 11.048 22.3946 11.0121 22.3205C10.9825 22.2521 11.0072 22.1957 11.0862 22.1513C11.2253 22.0945 11.3766 22.0717 11.5269 22.0847L11.8306 22.1297C12.0343 22.1681 12.2849 22.2857 12.5824 22.4825C12.8787 22.6793 13.1237 22.9349 13.3175 23.2493C13.5508 23.6524 13.8317 23.9596 14.1601 24.1708C14.4508 24.3706 14.7966 24.481 15.1526 24.4876C15.4859 24.4876 15.7742 24.4636 16.0174 24.4156C16.2536 24.3685 16.4831 24.2936 16.7007 24.1924C16.7908 23.5348 17.0377 23.0291 17.4413 22.6751C16.9173 22.6248 16.3979 22.5357 15.8877 22.4087C15.3899 22.2743 14.9111 22.0808 14.4619 21.8327C13.9919 21.5851 13.5766 21.2499 13.2398 20.8464C12.9188 20.4528 12.6534 19.9368 12.4435 19.2984C12.2256 18.5806 12.1214 17.8347 12.1343 17.0863C12.1343 15.8984 12.5336 14.8862 13.3323 14.0499C12.9583 13.1559 12.9935 12.1533 13.4379 11.0422C13.7329 10.9522 14.1681 11.0182 14.7434 11.2402C15.3199 11.461 15.7421 11.6506 16.01 11.809C16.2778 11.9649 16.4926 12.0969 16.6544 12.2049C17.6027 11.9486 18.5828 11.8202 19.5671 11.8234C20.5671 11.8234 21.538 11.9511 22.4799 12.2067L23.054 11.8521C23.449 11.617 23.9144 11.401 24.4502 11.2042C24.9872 11.0062 25.397 10.9522 25.6797 11.0422C26.1365 12.1533 26.1766 13.1553 25.8001 14.0481C26.6 14.8844 27 15.8972 27 17.0863C27 17.9215 26.8963 18.6613 26.6889 19.3056C26.4815 19.95 26.2136 20.466 25.8853 20.8536C25.5424 21.2527 25.1253 21.5855 24.6557 21.8345C24.2074 22.0843 23.7283 22.2779 23.2299 22.4105C22.7191 22.537 22.1991 22.6254 21.6744 22.6751C22.2003 23.1167 22.4633 23.8144 22.4633 24.7684V28.2908C22.4633 28.4588 22.4886 28.5944 22.5392 28.6976C22.5631 28.7471 22.5968 28.7915 22.6384 28.8283C22.6801 28.8651 22.7288 28.8934 22.7817 28.9118C22.8929 28.9502 22.9916 28.9742 23.078 28.9838C23.1644 28.9934 23.2879 28.9988 23.4484 29H15.6822Z" fill="#3E0E71"/>
    <path d="M32.5417 0H5.70833C4.32818 0.00384829 3.00566 0.553818 2.02974 1.52974C1.05382 2.50566 0.503848 3.82818 0.5 5.20833V32.0417C0.503848 33.4218 1.05382 34.7443 2.02974 35.7203C3.00566 36.6962 4.32818 37.2462 5.70833 37.25H32.5417C33.923 37.25 35.2478 36.7013 36.2245 35.7245C37.2013 34.7478 37.75 33.423 37.75 32.0417V5.20833C37.75 3.827 37.2013 2.50224 36.2245 1.52549C35.2478 0.548733 33.923 0 32.5417 0ZM35.6667 32.0417C35.6612 32.8688 35.3302 33.6605 34.7453 34.2453C34.1605 34.8302 33.3688 35.1612 32.5417 35.1667H5.70833C4.88122 35.1612 4.08953 34.8302 3.50466 34.2453C2.91979 33.6605 2.58879 32.8688 2.58333 32.0417V5.20833C2.58879 4.38122 2.91979 3.58953 3.50466 3.00466C4.08953 2.41979 4.88122 2.08879 5.70833 2.08333H32.5417C33.3688 2.08879 34.1605 2.41979 34.7453 3.00466C35.3302 3.58953 35.6612 4.38122 35.6667 5.20833V32.0417Z" fill="#C0A3CF"/>
</svg>