<svg width="30" height="30" viewBox="0 0 30 30" fill="none" xmlns="http://www.w3.org/2000/svg">
<path d="M25.9425 5.99L22.3925 23.8775C22.3237 24.2243 22.1581 24.5446 21.9151 24.8014C21.672 25.0582 21.3613 25.241 21.0188 25.3288L15.9325 26.635C15.3208 26.7921 14.6793 26.7921 14.0675 26.635L8.98001 25.3288C8.63811 25.2407 8.32803 25.0579 8.08544 24.8013C7.84285 24.5448 7.67762 24.225 7.60876 23.8788L4.05751 5.99C4.00356 5.71816 4.01054 5.43774 4.07795 5.16892C4.14537 4.9001 4.27154 4.64956 4.44738 4.43535C4.62322 4.22113 4.84437 4.04856 5.0949 3.93006C5.34543 3.81155 5.61911 3.75006 5.89626 3.75H24.1038C24.3809 3.75006 24.6546 3.81155 24.9051 3.93006C25.1556 4.04856 25.3768 4.22113 25.5526 4.43535C25.7285 4.64956 25.8546 4.9001 25.9221 5.16892C25.9895 5.43774 25.9965 5.71816 25.9425 5.99Z" stroke="#C0A3CF" stroke-width="1.5" stroke-linecap="round" stroke-linejoin="round"/>
<path d="M21.25 8.60126H9.66502C9.55395 8.60112 9.44423 8.62567 9.34379 8.67311C9.24336 8.72055 9.15472 8.7897 9.08427 8.87558C9.01382 8.96146 8.96333 9.06191 8.93643 9.16968C8.90954 9.27745 8.90693 9.38985 8.92877 9.49876L10.0025 14.8638H19.9975L18.8838 20.4363C18.8416 20.647 18.7458 20.8432 18.6057 21.0061C18.4656 21.1691 18.2858 21.2931 18.0838 21.3663L15.4263 22.3288C15.1513 22.4284 14.85 22.4284 14.575 22.3288L11.9163 21.3663C11.7142 21.2931 11.5345 21.1691 11.3943 21.0061C11.2542 20.8432 11.1584 20.647 11.1163 20.4363L10.8363 19.0375" stroke="#C0A3CF" stroke-width="1.5" stroke-linecap="round" stroke-linejoin="round"/>
</svg>
