<svg width="23" height="24" viewBox="0 0 23 24" fill="none" xmlns="http://www.w3.org/2000/svg">
<path d="M19.1804 1.63757H3.47977C2.09238 1.63757 0.967667 2.76228 0.967667 4.14968V19.8503C0.967667 21.2377 2.09238 22.3625 3.47977 22.3625H19.1804C20.5678 22.3625 21.6925 21.2377 21.6925 19.8503V4.14968C21.6925 2.76228 20.5678 1.63757 19.1804 1.63757Z" stroke="#C0A3CF" stroke-width="1.5" stroke-linecap="round" stroke-linejoin="round"/>
<path d="M10.7021 11.058V17.3383C10.7021 17.6714 10.5697 17.9909 10.3342 18.2264C10.0986 18.462 9.77916 18.5943 9.44603 18.5943H7.56195M17.9244 11.058H15.4123C15.0792 11.058 14.7597 11.1903 14.5241 11.4259C14.2886 11.6614 14.1562 11.9809 14.1562 12.314V13.5701C14.1562 13.9032 14.2886 14.2227 14.5241 14.4583C14.7597 14.6938 15.0792 14.8261 15.4123 14.8261H16.6683C17.0015 14.8261 17.3209 14.9585 17.5565 15.194C17.7921 15.4296 17.9244 15.7491 17.9244 16.0822V17.3383C17.9244 17.6714 17.7921 17.9909 17.5565 18.2264C17.3209 18.462 17.0015 18.5943 16.6683 18.5943H14.1562" stroke="#C0A3CF" stroke-width="1.5" stroke-linecap="round" stroke-linejoin="round"/>
</svg>
