<svg width="31" height="31" viewBox="0 0 31 31" fill="none" xmlns="http://www.w3.org/2000/svg">
<path d="M19.8996 5.73516L19.97 5.77535C19.0179 6.27777 16.2973 7.89808 16.2973 9.96052C16.2973 10.6564 16.6954 11.3271 17.0685 11.9576C17.3976 12.5128 17.7078 13.0353 17.7078 13.5126C17.7078 14.7147 16.5359 15.6479 15.874 16.0775L15.7484 16.0047C15.9983 15.6994 16.3061 15.1882 16.3061 14.6431C16.3061 13.892 15.9205 13.2916 15.5298 12.6824C15.1254 12.0531 14.7159 11.4138 14.7159 10.5848C14.7159 7.70591 18.6285 6.16096 19.8996 5.73516ZM14.7561 7.2575C16.3299 5.85072 18.0495 4.31331 18.0495 2.00091C18.0495 0.95462 17.6211 0.286399 17.4089 0.0188599L17.3398 0.0577975C17.39 0.266302 17.4654 0.650655 17.4654 1.15308C17.4654 3.25822 15.6793 4.73283 13.951 6.16222C12.3294 7.50368 10.7581 8.80244 10.7581 10.5408C10.7581 13.0341 13.2174 14.5677 14.2562 15.2159L14.3353 15.2661L14.3981 15.2284C14.342 15.1664 14.2826 15.1028 14.2198 15.0375C13.4209 14.1871 12.2076 12.8972 12.2076 10.9239C12.2076 9.53849 13.4297 8.44447 14.7561 7.2575ZM14.1896 19.7025C16.4053 19.7025 17.9553 19.3847 18.6436 19.19L19.6886 19.7929C18.6926 20.2991 16.4844 20.6847 14.1846 20.6847C11.4803 20.6847 8.52356 20.1044 8.51476 19.3307C8.50848 18.9036 9.47564 18.6198 10.5182 18.4364L10.581 18.4728C10.581 18.4728 10.228 18.5997 10.2318 18.8911C10.2368 19.3307 12.0154 19.7025 14.1884 19.7025M9.75574 22.4294C9.75574 21.9182 10.8096 21.6757 11.2919 21.579L11.3547 21.6167C11.2718 21.6782 11.2266 21.7624 11.2266 21.834C11.2266 22.1694 12.3947 22.4758 14.1858 22.4758C15.7911 22.4758 16.6829 22.2786 17.2129 22.1518L18.4564 22.8715C18.3999 22.9117 17.1753 23.6817 14.1833 23.6817C12.0091 23.6817 9.75574 23.139 9.75574 22.4294ZM20.4686 20.2589C21.9508 19.4136 23.4342 18.4138 23.5183 16.8085C23.5736 15.7547 22.6052 14.9822 21.5463 15.1882L21.6028 15.0475V15.045C21.8691 14.9646 22.1982 14.8993 22.5662 14.8993C23.7507 14.8993 24.6588 15.609 24.7744 16.6025C25.008 18.5946 22.1844 19.8909 20.603 20.3368L20.4686 20.2589ZM22.9493 24.012C22.9619 25.3811 18.3044 26.195 14.1419 26.2314C10.5483 26.2628 4.75414 25.5846 4.74158 24.2155C4.73404 23.2697 7.25369 22.6153 8.62278 22.4269L8.76723 22.5085C8.76723 22.5085 6.72614 22.982 6.73242 23.8424C6.73996 24.7003 11.0344 25.4426 14.1356 25.4163C18.94 25.3736 22.1919 24.591 22.5763 23.5297L22.6441 23.4907C22.7848 23.5937 22.9456 23.7633 22.9493 24.012ZM8.33389 26.8004C10.1111 27.0844 11.9088 27.2209 13.7085 27.2087C21.5061 27.1408 23.7067 25.2241 24.0459 24.8071L24.1049 24.8422C24.0245 26.3596 19.9009 27.6206 14.8151 27.6646C12.2264 27.6872 9.87004 27.3883 8.17688 26.8921L8.33389 26.8004ZM11.6021 15.1405C10.2469 15.2447 7.33659 15.6756 7.33659 16.4418C7.33659 17.0221 10.0044 17.8397 14.1846 17.8397C17.9452 17.8397 20.3192 17.1301 20.8731 16.86L20.0654 16.389C19.4876 16.546 17.3411 17.0246 14.1846 17.0246C12.3256 17.0246 9.12269 16.6817 9.12269 16.1579C9.12269 15.6881 11.1211 15.3264 11.6951 15.2221L11.7315 15.2159L11.6021 15.1405Z" fill="#C0A3CF"/>
</svg>
