<svg width="25" height="25" viewBox="0 0 25 25" fill="none" xmlns="http://www.w3.org/2000/svg">
<path d="M24.2439 12.3086C24.2439 10.8063 23.1056 9.54202 21.5775 9.18127L25 0.0220947H8.03904L11.4693 9.21018C9.98923 9.60002 8.89822 10.8422 8.89822 12.3162C8.89822 13.3994 9.49548 14.36 10.4027 14.9522C10.0449 15.4145 9.63064 15.8408 9.1613 16.2451C8.27791 16.9967 7.29822 17.5742 6.24002 17.9573C5.28494 17.3721 4.87127 16.3391 5.24509 15.4143C6.70154 15.01 7.76072 13.7748 7.76072 12.3231C7.76072 10.5393 6.16072 9.09416 4.20212 9.09416C2.23611 9.09416 0.637086 10.5461 0.637086 12.3305C0.637086 13.2119 1.03455 14.0205 1.67166 14.5981C1.6158 14.6996 1.56033 14.8002 1.50447 14.9086C0.971265 15.9059 0.366187 17.0326 0.134937 18.2969C-0.326586 20.8244 0.429469 22.8547 2.25213 24.003C3.27908 24.6461 4.40974 24.9711 5.62752 24.9711C7.72009 24.9711 9.84568 24.0174 11.8988 23.0926C13.3636 22.4358 14.8758 21.749 16.3642 21.4172C16.9136 21.2944 17.4865 21.2219 18.0916 21.1426C19.3168 20.9838 20.5826 20.8176 21.7209 20.218C23.05 19.5176 23.9572 18.3471 24.2203 17.0037C24.4185 15.9705 24.2203 14.9307 23.7105 14.0205C24.0587 13.5176 24.245 12.9203 24.2439 12.3086ZM22.6922 12.3086C22.6922 13.3125 21.7926 14.1289 20.6863 14.1289C19.5801 14.1289 18.6804 13.3125 18.6804 12.3086C18.6804 11.9834 18.776 11.6731 18.9429 11.4059C19.0064 11.3043 19.0865 11.2037 19.1656 11.1168C19.2494 11.0274 19.3429 10.9476 19.4443 10.8787L19.4527 10.8711C19.516 10.8278 19.5877 10.7842 19.6594 10.7414C19.6594 10.7414 19.6672 10.7414 19.6672 10.7338C19.699 10.7194 19.731 10.6979 19.7633 10.6834C19.7709 10.6834 19.7785 10.6758 19.7867 10.6758C19.8189 10.6621 19.8586 10.6477 19.898 10.633C19.9357 10.6198 19.9729 10.6054 20.0095 10.5897C20.0174 10.5897 20.0256 10.5819 20.0332 10.5819C20.0652 10.5752 20.0972 10.5606 20.1287 10.5537C20.1371 10.5537 20.1531 10.5461 20.1607 10.5461C20.2004 10.5393 20.2324 10.5317 20.272 10.5246H20.2804L20.3996 10.5026C20.4078 10.5026 20.423 10.5026 20.4314 10.4957C20.4635 10.4957 20.4949 10.4881 20.5269 10.4881H20.5666C20.6062 10.4881 20.6467 10.4813 20.6939 10.4813H20.7976C20.8289 10.4813 20.8535 10.4813 20.8847 10.4881H20.9008C20.9648 10.4959 21.0281 10.5026 21.0922 10.5172C21.9994 10.6903 22.6922 11.4274 22.6922 12.3086ZM10.2592 1.46643H22.7791L19.9058 9.1592C19.7867 9.18127 19.667 9.21702 19.548 9.25295L16.5238 3.6553L13.491 9.21682C13.3713 9.18108 13.2439 9.15901 13.1172 9.13752L10.2592 1.46643ZM15.95 11.6797C15.799 11.0006 15.4168 10.3942 14.8758 9.94631L16.5238 6.92737L18.1869 10.0112C17.6933 10.459 17.3353 11.0297 17.192 11.6797H15.95ZM11.9629 10.5391C12.0025 10.5313 12.0345 10.5246 12.0742 10.517H12.0978C12.1299 10.5102 12.1621 10.5102 12.1933 10.5024H12.2254C12.2574 10.5024 12.281 10.4955 12.3131 10.4955H12.6236C12.6549 10.4955 12.6793 10.5024 12.7029 10.5024C12.7166 10.5011 12.7303 10.5039 12.7426 10.5102C12.7746 10.517 12.7982 10.517 12.8304 10.5246C12.8379 10.5246 12.8463 10.5246 12.8623 10.5315C12.9021 10.5391 12.9418 10.5459 12.9736 10.5535H12.9814C13.0135 10.5604 13.0455 10.5672 13.0767 10.5819C13.0851 10.5819 13.0927 10.5895 13.1088 10.5895C13.1324 10.5963 13.1644 10.6039 13.1881 10.6184C13.1965 10.6184 13.2041 10.6252 13.2125 10.6252C13.2437 10.6399 13.276 10.6475 13.308 10.6619H13.3156C13.3553 10.6756 13.3873 10.6901 13.4193 10.7123H13.4271C13.459 10.7268 13.491 10.7481 13.523 10.7625C13.5308 10.7625 13.5308 10.7703 13.5383 10.7703C13.5703 10.784 13.5941 10.8061 13.6261 10.8205L13.6345 10.8274C13.7299 10.8924 13.8176 10.9649 13.9045 11.0373L13.9129 11.0442C13.9924 11.1235 14.0717 11.2104 14.1357 11.3043C14.3426 11.5934 14.4623 11.933 14.4623 12.3014C14.4623 13.3055 13.5627 14.1211 12.4564 14.1211C11.3502 14.1211 10.4506 13.3055 10.4506 12.3014C10.4424 11.4561 11.0871 10.7412 11.9629 10.5391ZM4.13045 10.4879C5.23689 10.4879 6.1363 11.3043 6.1363 12.3082C6.1363 13.3121 5.23689 14.1285 4.13045 14.1285C3.024 14.1285 2.12459 13.3123 2.12459 12.3082C2.12459 11.3043 3.0242 10.4879 4.13045 10.4879ZM22.6441 16.751C22.4693 17.6748 21.8398 18.4844 20.9168 18.968C20.0492 19.4235 18.9826 19.5676 17.8603 19.7119C17.2478 19.7912 16.6031 19.8781 15.982 20.0155C14.3265 20.384 12.7349 21.1065 11.1908 21.7992C9.21697 22.6881 7.35388 23.5258 5.62752 23.5258C4.72791 23.5258 3.9238 23.2948 3.16013 22.811C1.40916 21.7131 1.49607 19.6547 1.70369 18.5278C1.89431 17.4727 2.42771 16.4832 2.93728 15.5371C2.96853 15.4791 2.99295 15.4287 3.0242 15.3707C3.19972 15.4288 3.38285 15.4723 3.57361 15.5012C3.27146 17.0324 4.13045 18.6141 5.80212 19.3946L6.10486 19.5387L6.43084 19.4303C7.824 18.9824 9.11326 18.2531 10.2515 17.278C10.8963 16.7287 11.4457 16.1367 11.9072 15.4936C12.0902 15.5227 12.2734 15.5303 12.4564 15.5303C14.1121 15.5303 15.5045 14.4971 15.9027 13.1102H17.2394C17.6377 14.5041 19.0306 15.5301 20.6863 15.5301C21.347 15.5301 21.9597 15.3641 22.4845 15.0824C22.6922 15.624 22.7554 16.1871 22.6441 16.751Z" fill="#C0A3CF"/>
</svg>
