<svg width="30" height="30" viewBox="0 0 30 30" fill="none" xmlns="http://www.w3.org/2000/svg">
<path d="M11.25 20V18.75M15 20V18.75M18.75 20V18.75M8.54375 5C7.92125 5.01833 7.38083 5.11917 6.9225 5.3025C6.49157 5.4653 6.11872 5.75245 5.85125 6.1275C5.61375 6.4925 5.495 6.9775 5.495 7.5825V11.5375C5.495 12.4708 5.2475 13.2217 4.7525 13.79C4.25833 14.34 3.5075 14.7067 2.5 14.89V15.0538C3.525 15.2371 4.27583 15.6125 4.7525 16.18C5.2475 16.73 5.495 17.4717 5.495 18.405V22.4437C5.495 23.0304 5.61375 23.5067 5.85125 23.8725C6.08958 24.2567 6.4375 24.5317 6.895 24.6975C7.35333 24.88 7.90333 24.9804 8.545 24.9988M21.455 5C22.0775 5.01833 22.6179 5.11917 23.0763 5.3025C23.5346 5.485 23.8917 5.76 24.1475 6.1275C24.385 6.4925 24.5038 6.9775 24.5038 7.5825V11.5375C24.5038 12.4708 24.7513 13.2217 25.2463 13.79C25.7404 14.34 26.4913 14.7067 27.4988 14.89V15.0538C26.4738 15.2371 25.7229 15.6125 25.2463 16.18C24.7513 16.73 24.5038 17.4717 24.5038 18.405V22.4437C24.5038 23.0304 24.385 23.5067 24.1475 23.8725C23.9092 24.2567 23.5612 24.5317 23.1037 24.6975C22.6454 24.88 22.0954 24.9804 21.4538 24.9988" stroke="#C0A3CF" stroke-width="1.5" stroke-linecap="round" stroke-linejoin="round"/>
</svg>
