<svg width="30" height="30" viewBox="0 0 30 30" fill="none" xmlns="http://www.w3.org/2000/svg">
<path d="M7.62375 7.39752C3.42 7.39752 0 10.8075 0 15C0 19.1925 3.42 22.6038 7.62375 22.6038H22.375C26.58 22.6038 30 19.1913 30 15C30 10.8088 26.58 7.39752 22.3762 7.39752H7.62375ZM7.47125 9.81252C8.0875 9.82752 8.74625 10.125 9.0625 10.5913C9.5225 11.165 9.66 11.925 10.1813 12.4575C10.8813 13.2225 11.68 13.895 12.3263 14.71C12.9388 15.4538 13.375 16.3275 13.7563 17.2075C13.9113 17.4988 13.9125 17.8575 14.1437 18.1075C14.2562 18.2575 14.8113 18.6675 14.6912 18.8125C14.76 18.9625 15.2788 19.17 15.0988 19.315C14.8563 19.365 14.5825 19.375 14.3962 19.1813C14.3288 19.3388 14.1687 19.2563 14.045 19.235L14.0138 19.3275C13.6013 19.355 13.2937 18.9363 13.0988 18.6213C12.71 18.4113 12.2675 18.2838 11.8713 18.0638C11.8475 18.4263 11.9275 18.8738 11.5825 19.1075C11.565 19.8038 12.6362 19.19 12.735 19.7075C12.6587 19.7163 12.5738 19.6963 12.5125 19.755C12.2338 20.0263 11.9125 19.5488 11.59 19.7463C11.1575 19.9638 11.115 20.1413 10.5775 20.1863C10.5487 20.1413 10.56 20.1113 10.585 20.085C10.735 19.91 10.7475 19.7038 11.005 19.6288C10.74 19.5875 10.5175 19.7338 10.2937 19.8488C10.0037 19.9675 10.0062 19.5813 9.55875 19.87C9.50875 19.8288 9.53375 19.7925 9.56125 19.7613C9.675 19.6238 9.82375 19.6025 9.9925 19.6113C9.16375 19.1488 8.77375 20.1738 8.39125 19.665C8.27625 19.695 8.2325 19.7975 8.16 19.8713C8.0975 19.8025 8.145 19.72 8.1475 19.6388C8.0725 19.6038 7.97875 19.5875 8.00125 19.4675C7.855 19.4175 7.75125 19.505 7.64375 19.5875C7.54375 19.5113 7.71 19.4 7.74 19.3213C7.8275 19.17 8.0275 19.29 8.12875 19.1813C8.41625 19.0175 8.81875 19.2813 9.14875 19.2375C9.4025 19.27 9.71625 19.01 9.58875 18.75C9.3175 18.4038 9.365 17.9513 9.36 17.5375C9.32625 17.2975 8.74625 16.99 8.5775 16.73C8.37 16.4963 8.20875 16.225 8.0475 15.9575C7.46375 14.8325 7.6475 13.385 6.9125 12.3388C6.58 12.5225 6.1475 12.4363 5.86125 12.19C5.70625 12.3313 5.69875 12.515 5.68625 12.7113C5.31625 12.34 5.3625 11.6413 5.66 11.2288C5.78 11.0663 5.925 10.9325 6.0875 10.8138C6.12375 10.7888 6.13625 10.7625 6.135 10.7213C6.28125 10.0625 6.85375 9.79627 7.47125 9.81252ZM22.9813 10.3875C23.6775 10.3875 24.3312 10.6575 24.8225 11.1475C25.3137 11.6375 25.585 12.2913 25.585 12.985C25.5861 13.3266 25.5193 13.6649 25.3884 13.9804C25.2575 14.2958 25.0651 14.5821 24.8225 14.8225V14.8238L23.695 15.9488C23.394 16.2474 23.0252 16.4687 22.62 16.5938L22.6 16.6L22.5938 16.62C22.464 16.9635 22.2619 17.2752 22.0012 17.5338L20.8737 18.6588C20.3812 19.1488 19.7275 19.4188 19.03 19.4188C18.3325 19.4188 17.68 19.1488 17.1875 18.6588C16.9459 18.4176 16.7543 18.1312 16.6235 17.8159C16.4927 17.5006 16.4254 17.1626 16.4254 16.8213C16.4254 16.4799 16.4927 16.1419 16.6235 15.8266C16.7543 15.5113 16.9459 15.2249 17.1875 14.9838L18.315 13.8588C18.6143 13.5598 18.9826 13.3391 19.3875 13.2163L19.4088 13.2088L19.4163 13.1888C19.5478 12.8451 19.7501 12.5329 20.01 12.2725L21.1375 11.1475C21.3791 10.9053 21.6664 10.7135 21.9826 10.583C22.2989 10.4525 22.6391 10.3861 22.9813 10.3875ZM22.98 11.5088C22.7851 11.5079 22.5919 11.5457 22.4117 11.6199C22.2315 11.6942 22.0678 11.8034 21.93 11.9413L20.8037 13.0663C20.6532 13.2165 20.537 13.3975 20.463 13.5969C20.389 13.7962 20.359 14.0092 20.375 14.2213L20.3813 14.2938C20.4225 14.625 20.5688 14.9238 20.8037 15.1575C20.9662 15.32 21.145 15.4225 21.3625 15.4938C21.3736 15.559 21.3794 15.6251 21.38 15.6913C21.3809 15.8376 21.3526 15.9825 21.2968 16.1178C21.241 16.253 21.1588 16.3757 21.055 16.4788L20.985 16.5488C20.6172 16.4286 20.2831 16.223 20.01 15.9488C19.6352 15.5767 19.3838 15.0985 19.29 14.5788L19.2775 14.5063L19.22 14.5525C19.1818 14.5837 19.1455 14.6171 19.1112 14.6525L17.9825 15.7763C17.775 15.9831 17.6337 16.247 17.5766 16.5344C17.5195 16.8217 17.549 17.1196 17.6616 17.3901C17.7741 17.6606 17.9646 17.8915 18.2087 18.0535C18.4528 18.2156 18.7395 18.3014 19.0325 18.3C19.4125 18.3 19.7912 18.155 20.08 17.8675L21.2075 16.7425C21.3453 16.6055 21.4546 16.4425 21.5292 16.2631C21.6038 16.0836 21.6422 15.8912 21.6422 15.6969C21.6422 15.5026 21.6038 15.3102 21.5292 15.1307C21.4546 14.9513 21.3453 14.7883 21.2075 14.6513C21.0529 14.4986 20.8669 14.3813 20.6625 14.3075C20.6513 14.2414 20.6455 14.1746 20.645 14.1075C20.6448 13.9463 20.6767 13.7866 20.739 13.6379C20.8012 13.4891 20.8925 13.3543 21.0075 13.2413C21.4457 13.3885 21.8361 13.651 22.1379 14.0011C22.4396 14.3513 22.6416 14.7762 22.7225 15.2313L22.735 15.3038L22.7925 15.2563C22.8311 15.2252 22.8679 15.1918 22.9025 15.1563L24.03 14.0325C24.3073 13.7552 24.4631 13.3791 24.4631 12.9869C24.4631 12.5947 24.3073 12.2186 24.03 11.9413C23.8922 11.8034 23.7285 11.6942 23.5483 11.6199C23.3681 11.5457 23.1749 11.5079 22.98 11.5088ZM10.5125 17.955C10.4125 18.3413 10.3812 18.9963 9.88 19.015C9.83875 19.2363 10.0337 19.32 10.2112 19.2488C10.3875 19.1688 10.4713 19.3125 10.5312 19.4563C10.8038 19.4963 11.2063 19.365 11.2213 19.0438C10.815 18.81 10.6888 18.365 10.5125 17.955Z" fill="#C0A3CF"/>
</svg>
