<svg width="38" height="38" viewBox="0 0 38 38" fill="none" xmlns="http://www.w3.org/2000/svg">
    <path d="M32.0417 0H5.20833C3.82818 0.00384829 2.50566 0.553818 1.52974 1.52974C0.553818 2.50566 0.00384829 3.82818 0 5.20833V32.0417C0.00384829 33.4218 0.553818 34.7443 1.52974 35.7203C2.50566 36.6962 3.82818 37.2462 5.20833 37.25H32.0417C33.423 37.25 34.7478 36.7013 35.7245 35.7245C36.7013 34.7478 37.25 33.423 37.25 32.0417V5.20833C37.25 3.827 36.7013 2.50224 35.7245 1.52549C34.7478 0.548733 33.423 0 32.0417 0ZM35.1667 32.0417C35.1612 32.8688 34.8302 33.6605 34.2453 34.2453C33.6605 34.8302 32.8688 35.1612 32.0417 35.1667H5.20833C4.38122 35.1612 3.58953 34.8302 3.00466 34.2453C2.41979 33.6605 2.08879 32.8688 2.08333 32.0417V5.20833C2.08879 4.38122 2.41979 3.58953 3.00466 3.00466C3.58953 2.41979 4.38122 2.08879 5.20833 2.08333H32.0417C32.8688 2.08879 33.6605 2.41979 34.2453 3.00466C34.8302 3.58953 35.1612 4.38122 35.1667 5.20833V32.0417Z" fill="#C0A3CF"/>
    <path d="M7.28333 13.0833C7.28333 12.5308 7.50282 12.0009 7.89352 11.6102C8.28422 11.2195 8.81412 11 9.36666 11C9.91919 11 10.4491 11.2195 10.8398 11.6102C11.2305 12.0009 11.45 12.5308 11.45 13.0833V26.625C11.45 27.1775 11.2305 27.7074 10.8398 28.0981C10.4491 28.4888 9.91919 28.7083 9.36666 28.7083C8.81412 28.7083 8.28422 28.4888 7.89352 28.0981C7.50282 27.7074 7.28333 27.1775 7.28333 26.625V13.0833Z" fill="#3E0E71"/>
    <path d="M9.08333 10.1667C10.2339 10.1667 11.1667 9.23393 11.1667 8.08333C11.1667 6.93274 10.2339 6 9.08333 6C7.93274 6 7 6.93274 7 8.08333C7 9.23393 7.93274 10.1667 9.08333 10.1667Z" fill="#3E0E71"/>
    <path d="M30.7084 18.5424V26.6257C30.7084 27.1783 30.4889 27.7082 30.0982 28.0989C29.7075 28.4896 29.1776 28.7091 28.625 28.7091C28.0725 28.7091 27.5426 28.4896 27.1519 28.0989C26.7612 27.7082 26.5417 27.1783 26.5417 26.6257V18.5424C26.5417 17.6501 26.1872 16.7943 25.5562 16.1633C24.9253 15.5323 24.0695 15.1778 23.1771 15.1778C22.2848 15.1778 21.429 15.5323 20.798 16.1633C20.167 16.7943 19.8125 17.6501 19.8125 18.5424V26.6257C19.8125 27.1783 19.593 27.7082 19.2023 28.0989C18.8116 28.4896 18.2817 28.7091 17.7292 28.7091C17.1767 28.7091 16.6468 28.4896 16.2561 28.0989C15.8654 27.7082 15.6459 27.1783 15.6459 26.6257V13.0841C15.6545 12.5342 15.8767 12.0093 16.2656 11.6204C16.6544 11.2316 17.1794 11.0093 17.7292 11.0007C18.0821 10.9911 18.431 11.077 18.739 11.2493C19.0471 11.4217 19.3028 11.6741 19.4792 11.9799C20.6248 11.3306 21.9207 10.9935 23.2374 11.0022C24.5541 11.011 25.8455 11.3652 26.9823 12.0296C28.1192 12.694 29.0617 13.6452 29.7156 14.7882C30.3694 15.9311 30.7118 17.2257 30.7084 18.5424Z" fill="#3E0E71"/>
</svg>