<svg width="30" height="30" viewBox="0 0 30 30" fill="none" xmlns="http://www.w3.org/2000/svg">
<path d="M15.0001 12.3375C17.4526 8.27833 19.6046 6.24917 21.4563 6.25C24.2338 6.25 25.9876 9.4775 27.0113 13.8575C27.9888 18.0425 27.7063 23.75 24.2338 23.75C22.6863 23.75 20.5563 21.4675 18.4713 18.425C17.1416 16.4993 15.9802 14.4626 15.0001 12.3375ZM15.0001 12.3375C12.3017 8.27833 9.93464 6.24917 7.8988 6.25C4.84255 6.25 2.9138 9.4775 1.7863 13.8575C0.712554 18.0438 1.02505 23.75 4.8438 23.75C6.5463 23.75 8.89005 21.4675 11.1813 18.425C12.708 16.3942 13.9809 14.365 15.0001 12.3375Z" stroke="#C0A3CF" stroke-width="1.5" stroke-linecap="round" stroke-linejoin="round"/>
</svg>
