<svg width="30" height="30" viewBox="0 0 30 30" fill="none" xmlns="http://www.w3.org/2000/svg">
<path d="M17.175 5.28753C16.4246 4.39314 15.7102 3.46907 15.0337 2.51753C15.0299 2.51212 15.0249 2.5077 15.019 2.50464C15.0131 2.50159 15.0066 2.5 15 2.5C14.9934 2.5 14.9868 2.50159 14.981 2.50464C14.9751 2.5077 14.97 2.51212 14.9662 2.51753C14.2898 3.46949 13.5754 4.39398 12.825 5.28878C3.80999 16.7725 14.2475 24.52 14.2475 24.52L14.3312 24.5788C14.4112 25.7775 14.6075 27.5 14.6075 27.5H15.3925C15.3925 27.5 15.5887 25.785 15.6675 24.5875L15.7537 24.52C15.7537 24.52 26.19 16.7725 17.1762 5.28878M15 24.3525C15 24.3525 14.5325 23.9525 14.4062 23.7525L14.405 23.7325L14.9712 11.23C14.9726 11.2233 14.9763 11.2172 14.9817 11.2129C14.987 11.2085 14.9937 11.2061 15.0006 11.2061C15.0075 11.2061 15.0142 11.2085 15.0196 11.2129C15.0249 11.2172 15.0286 11.2233 15.03 11.23L15.595 23.7325V23.7538C15.4687 23.9538 15 24.3525 15 24.3525Z" fill="#C0A3CF"/>
</svg>
