<svg width="30" height="30" viewBox="0 0 30 30" fill="none" xmlns="http://www.w3.org/2000/svg">
<g clip-path="url(#clip0_75_336)">
<path d="M12.4066 0V0.00046875C12.3068 -0.013125 10.6943 0.567656 9.6546 0.990234C8.25116 1.56211 7.16178 2.10727 6.4896 2.5793C6.27257 2.73328 6.00819 2.98945 5.90952 3.13477L5.90788 3.12984C5.90155 3.14095 5.89614 3.15255 5.89171 3.16453C5.88655 3.17391 5.87952 3.18469 5.87624 3.19266C5.85765 3.24208 5.84851 3.29455 5.84928 3.34734L5.86428 3.36141C5.86827 3.40992 5.87952 3.46453 5.90366 3.5243C5.96272 3.66961 6.13522 3.8468 6.33069 4.0282C6.33069 4.0282 8.35124 5.99906 8.59663 6.28055C9.71366 7.57031 10.1998 8.84156 10.2452 10.5945C10.2726 11.7206 10.0587 12.7109 9.52733 13.8598C8.5828 15.9213 6.58944 18.1966 3.51514 20.7213L3.56178 20.7056C3.54069 20.7225 3.51303 20.7464 3.49264 20.7623C3.12467 21.053 2.57952 21.5979 2.30249 21.9431C1.88905 22.4609 1.56257 23.0102 1.42171 23.4326C1.17186 24.1955 1.29444 24.9673 1.77561 25.6802C2.39342 26.5884 3.62413 27.5154 5.05921 28.1461C5.79046 28.4688 7.02046 28.882 7.94718 29.1134C9.48632 29.5041 12.4659 29.9264 14.1049 29.9897C14.4363 30.0035 14.8812 30.0035 14.8994 29.9897C14.9358 29.967 15.1903 29.4816 15.4856 28.8778C16.4934 26.8205 17.2198 24.8904 17.6151 23.2418C17.8512 22.2429 18.0373 20.9121 18.1598 19.3364C18.1917 18.8958 18.2053 17.4199 18.1781 16.9205C18.1371 16.1032 18.0649 15.4402 17.9512 14.7909C17.9425 14.7466 17.9371 14.7017 17.9348 14.6566C21.5859 13.572 25.6148 12.5892 28.2912 12.1798L28.7046 12.1163L28.6408 12.0159C28.2776 11.4527 28.028 11.1033 27.7282 10.7309C26.8563 9.65039 25.7986 8.77406 24.5041 8.0475C22.7241 7.05281 20.4216 6.27633 17.5062 5.69953C16.9568 5.59055 15.7495 5.38148 14.7687 5.23172L14.6773 5.06789C14.1412 4.12336 13.5511 2.95219 13.2058 2.16211C12.9382 1.54898 12.6837 0.840469 12.543 0.331875C12.4657 0.0229688 12.457 0.0046875 12.4066 0ZM12.334 0.231562H12.3387C12.3429 0.23625 12.3609 0.36375 12.3792 0.513516C12.4566 1.14914 12.5974 1.76227 12.8201 2.42531C12.9879 2.92453 12.9879 2.89758 12.7926 2.83852C12.3295 2.71148 10.2544 2.35289 8.75108 2.14383C8.51038 2.11219 8.306 2.08031 8.306 2.07562C8.28796 2.05734 9.39116 1.48102 9.87702 1.25391C10.499 0.967969 12.2067 0.254297 12.334 0.231562ZM7.95632 2.26641L8.1335 2.32547C9.09632 2.65242 11.5165 3.11602 12.8515 3.225C13.0015 3.23859 13.1285 3.25195 13.1327 3.25195C13.1374 3.25664 13.0108 3.32461 12.847 3.40172C12.2025 3.72422 11.4935 4.11914 11.0032 4.42359C10.8916 4.49297 10.7894 4.55156 10.739 4.57547L10.2862 4.50164L9.85874 4.08281C9.30655 3.54503 8.75107 3.01065 8.19233 2.47969L7.95632 2.26641ZM7.77468 2.4075L8.41499 3.20672C8.76467 3.64734 9.11882 4.07859 9.19592 4.17398C9.26413 4.25812 9.31382 4.31977 9.32319 4.33805C8.86967 4.25906 8.38428 4.17211 8.01069 4.09148C7.73811 4.03242 7.21616 3.90984 6.80741 3.76922C6.76522 3.75281 6.71718 3.735 6.67147 3.71789V3.66984C6.67616 3.36516 7.06194 2.91094 7.71561 2.44805L7.77468 2.4075ZM13.2058 3.49641C13.2096 3.49484 13.2127 3.49516 13.2152 3.49734C13.2333 3.49734 13.2555 3.53766 13.3099 3.66023C13.4646 4.00078 13.9462 4.91813 14.0644 5.09531L14.0794 5.11969C13.2211 4.98384 12.3636 4.84399 11.5066 4.70016C11.5343 4.67993 11.5635 4.66176 11.5938 4.64578C12.0708 4.38234 12.5519 4.04648 12.979 3.68766C13.0833 3.60141 13.1784 3.52008 13.1969 3.50648C13.1989 3.50233 13.202 3.49882 13.2058 3.49641ZM7.07975 4.26398C7.08421 4.25977 7.15686 4.28742 7.25225 4.31906C7.46978 4.39198 7.68941 4.45849 7.91085 4.51852C8.11012 4.57333 8.30989 4.6263 8.51014 4.67742C8.78249 4.74539 9.00983 4.80938 9.01405 4.80938C9.04616 4.84125 9.50483 6.30797 9.65928 6.87117C9.71835 7.08445 9.76382 7.26609 9.75936 7.26609C9.75467 7.27078 9.70452 7.19344 9.64546 7.08891C9.11413 6.15375 8.27413 5.20453 7.30218 4.44117C7.17514 4.35047 7.07952 4.26867 7.07952 4.26398H7.07975ZM9.30936 4.87758C9.30936 4.88648 9.30936 4.88227 9.31405 4.88227C9.33702 4.88227 9.43686 4.89563 9.55944 4.92281C10.3312 5.09531 11.7164 5.35875 12.6016 5.50875C12.7516 5.53148 12.8695 5.55891 12.8695 5.56781C12.8695 5.57719 12.8156 5.60883 12.7472 5.64516C12.5972 5.7225 11.9932 6.08109 11.7933 6.21703C11.2894 6.55336 10.8354 6.91617 10.5084 7.24312C10.4274 7.32419 10.3456 7.4045 10.263 7.48406C10.263 7.48406 10.2361 7.40672 10.2131 7.31133C10.0498 6.67992 9.70921 5.74477 9.40007 5.08617C9.35014 4.98187 9.30936 4.88648 9.30936 4.87758ZM13.2469 5.63109C13.2738 5.64047 13.3195 5.79492 13.4102 6.13547C13.5805 6.81493 13.6539 7.51507 13.6282 8.21508C13.6188 8.40586 13.6097 8.58305 13.6005 8.60602L13.5872 8.65078L13.3512 8.57344C12.8653 8.41922 12.0752 8.18789 11.3988 7.99711C11.0126 7.89258 10.6992 7.79742 10.6992 7.78852C10.6992 7.76109 11.2624 7.19789 11.5031 6.98461C11.9616 6.58031 13.2056 5.61773 13.2469 5.63109ZM13.5598 5.6768C13.5733 5.6632 15.4404 5.98523 16.2895 6.14883C16.9209 6.27141 17.838 6.46242 17.8926 6.48516C17.9196 6.49453 17.8244 6.5482 17.52 6.68484C16.3212 7.22508 15.4308 7.71141 14.5453 8.30156C14.3137 8.45625 14.1183 8.58305 14.114 8.58305C14.1094 8.58305 14.1049 8.45133 14.1049 8.29242C14.1049 7.42969 13.9329 6.55781 13.6148 5.82211C13.583 5.74945 13.5553 5.68125 13.5598 5.6768ZM18.3869 6.63023C18.4005 6.64359 18.3417 7.01203 18.2871 7.23C18.1235 7.90664 17.6833 8.91047 17.1433 9.855C17.0475 10.0228 16.961 10.159 16.9519 10.1634C16.9427 10.1679 16.8211 10.0995 16.68 10.0177C16.1533 9.70875 15.5536 9.41883 14.8997 9.14625C14.718 9.06891 14.5589 9.00539 14.5544 8.99602C14.5226 8.96906 15.9851 8.0018 16.7569 7.53844C17.3702 7.16602 18.3691 6.61219 18.3869 6.63023ZM18.7326 6.68484C18.7734 6.68484 19.5998 6.91172 20.0311 7.03898C21.0984 7.3568 22.3242 7.80656 23.1234 8.16984L23.4548 8.31938L23.2237 8.37398C21.2714 8.82352 19.5996 9.34172 17.9873 9.99539C17.8556 10.05 17.7375 10.095 17.7286 10.095C17.7197 10.095 17.7654 9.99094 17.8244 9.86391C18.3103 8.83289 18.6232 7.75664 18.7005 6.83906C18.705 6.75281 18.7191 6.68484 18.7326 6.68484ZM10.5037 8.57391C10.5173 8.56031 11.1485 8.71031 11.4893 8.8057C12.0073 8.95102 13.1062 9.31898 13.1062 9.3457C13.1062 9.35039 12.9832 9.45492 12.8379 9.58195C12.243 10.077 11.6707 10.5994 10.9849 11.2624C10.7808 11.4577 10.6085 11.6163 10.5994 11.6163C10.59 11.6163 10.5855 11.5894 10.59 11.553C10.6943 10.7902 10.672 9.8093 10.5267 8.81484C10.5126 8.68758 10.4993 8.57836 10.5037 8.57391ZM23.7684 8.58773C23.7773 8.59688 23.4778 9.06867 23.2868 9.33656C23.0144 9.72727 22.6148 10.2452 21.7113 11.3803C21.3132 11.8801 20.9166 12.3811 20.5216 12.8834C20.34 13.1105 20.19 13.3012 20.1851 13.3012C20.1808 13.3012 20.1218 13.2192 20.0583 13.1196C19.5497 12.3565 18.941 11.6892 18.2189 11.0899C18.109 10.9967 17.9972 10.9057 17.8835 10.8171C17.8333 10.7808 17.7921 10.7445 17.7921 10.7398C17.7921 10.7264 18.5641 10.3948 19.1501 10.1588C20.1766 9.74086 21.5747 9.24164 22.624 8.91891C23.1733 8.74664 23.7593 8.57859 23.7684 8.58773ZM24.1181 8.67844C24.1362 8.67375 24.2454 8.72859 24.3769 8.8057C25.4805 9.43687 26.5612 10.2499 27.4151 11.0852C27.6558 11.3215 28.2504 11.9386 28.2412 11.943C28.2412 11.943 28.0324 11.9618 27.7873 11.9798C25.8755 12.1252 23.4279 12.529 21.0759 13.0966C20.9166 13.133 20.7759 13.1648 20.7668 13.1648C20.7576 13.1648 20.9346 12.9877 21.1573 12.7744C22.5377 11.4438 23.1689 10.6038 23.9135 9.105C24.018 8.88281 24.109 8.69203 24.1181 8.67844ZM14.0053 9.71391C14.0686 9.7275 14.6587 10.0043 15.1038 10.227C15.5126 10.4311 16.1259 10.758 16.1576 10.7855C16.1623 10.7899 15.9443 10.9034 15.6762 11.0353C14.8756 11.4334 14.0922 11.8651 13.3282 12.3295C13.1102 12.4612 12.9288 12.5702 12.9244 12.5702C12.9061 12.5702 12.9108 12.552 13.0333 12.3295C13.4421 11.5849 13.7693 10.6948 13.9554 9.82734C13.9734 9.75937 13.9917 9.71391 14.0053 9.71391ZM13.4147 9.82266C13.4283 9.83625 13.274 10.395 13.1784 10.6992C12.9921 11.2758 12.679 11.9977 12.3745 12.5428C12.3019 12.6698 12.1929 12.8564 12.1338 12.9607L12.0204 13.1421L11.7663 12.8972C11.471 12.6112 11.2303 12.4336 10.9216 12.2745C10.7988 12.2112 10.7037 12.1568 10.7037 12.1479C10.7037 12.1113 11.4804 11.4075 12.0752 10.8989C12.5018 10.5309 13.4011 9.80906 13.4147 9.82266ZM17.025 11.3077L17.2476 11.453C17.7562 11.7844 18.3553 12.2252 18.814 12.6108C19.0727 12.8241 19.5722 13.2741 19.6723 13.3828L19.7269 13.4419L19.3589 13.5466C17.279 14.1232 15.6715 14.6362 13.796 15.3265C13.5869 15.4038 13.41 15.4671 13.3964 15.4671C13.3692 15.4671 13.3465 15.4896 13.8143 15.0581C15.0131 13.9549 16.076 12.7383 16.8663 11.553L17.025 11.3077ZM16.0758 11.5439C16.0851 11.5533 15.4631 12.4291 15.0907 12.9241C14.6454 13.5145 13.8551 14.5045 13.3099 15.1493C13.083 15.4174 12.888 15.6396 12.8787 15.6441C12.8651 15.6488 12.8604 15.5808 12.8604 15.4762C12.8604 14.9269 12.72 14.3409 12.4748 13.8415C12.3703 13.6327 12.3523 13.5827 12.3752 13.56C12.4615 13.4827 13.7824 12.7291 14.6177 12.2796C15.1812 11.9796 16.0624 11.535 16.0758 11.5439ZM10.3359 12.9516C10.3493 12.9516 10.4536 13.0062 10.5719 13.0697C10.8483 13.2203 11.1098 13.3967 11.3529 13.5966C11.3623 13.6055 11.2441 13.7011 11.0897 13.8145C10.6584 14.1232 10.0045 14.6184 9.62296 14.9227C9.22335 15.2405 9.20975 15.2494 9.25499 15.1814C9.55499 14.7227 9.70499 14.4637 9.86389 14.1321C10.0101 13.8237 10.1374 13.5067 10.2452 13.1829C10.2816 13.0516 10.3268 12.9516 10.3359 12.9516ZM11.8664 14.1499C11.8891 14.1457 11.9163 14.1867 12.0387 14.3684C12.2974 14.7544 12.4973 15.2723 12.5473 15.69L12.5564 15.7805L11.9344 16.0214C10.8218 16.4527 9.79546 16.8797 9.10077 17.198C8.84688 17.3168 8.59398 17.4378 8.3421 17.5608C8.11944 17.6742 7.93803 17.7607 7.93803 17.7563C7.93803 17.7518 8.07866 17.6473 8.25116 17.52C9.60913 16.5347 10.7855 15.4538 11.6665 14.373C11.7619 14.2596 11.8481 14.1551 11.857 14.1504L11.8664 14.1499ZM11.1626 14.3227V14.3231C11.1808 14.3412 10.6629 14.9269 10.3087 15.2857C9.43218 16.1801 8.56475 16.8797 7.4885 17.5608C7.3521 17.647 7.22975 17.7241 7.21616 17.733C7.18452 17.7513 7.22507 17.7059 7.69757 17.1928C7.97449 16.8957 8.23669 16.5852 8.48319 16.2623C8.65569 16.0397 8.68733 16.0078 8.93717 15.8311C9.60514 15.3492 11.1445 14.3046 11.1626 14.3227ZM17.2502 14.8617C17.3144 15.1095 17.433 16.2975 17.4654 17.0838C17.4748 17.2702 17.4698 17.3927 17.4605 17.3927C17.4244 17.3927 16.6933 16.9615 16.1714 16.6343C15.7191 16.3495 14.8638 15.7826 14.723 15.6703C15.5611 15.3875 16.4036 15.1179 17.2502 14.8617ZM14.2345 15.8442C14.2941 15.87 14.3833 15.9192 14.5636 16.0305C15.499 16.6165 16.7709 17.3248 17.3158 17.561C17.4837 17.6337 17.5017 17.6063 17.1157 17.8699C16.2893 18.4329 15.2585 18.9867 13.9962 19.5452C13.7735 19.6451 13.5872 19.7224 13.5827 19.7224C13.5733 19.7224 13.6008 19.6085 13.6371 19.4723C13.9411 18.3415 14.1143 17.1977 14.1234 16.2804C14.1258 16.0514 14.1267 15.9382 14.1326 15.8803L14.2345 15.8442ZM13.5396 16.0915C13.5616 16.203 13.5445 17.1152 13.5098 17.3791C13.4285 18.0485 13.289 18.7094 13.0926 19.3545C13.0425 19.5225 12.9966 19.6636 12.9876 19.6725C12.9694 19.6952 12.3473 19.0866 12.143 18.8503C11.7891 18.4416 11.512 18.0333 11.3076 17.6337C11.213 17.4485 11.0763 17.1169 11.0604 17.0435C11.7281 16.7724 12.3994 16.5103 13.0741 16.2572C13.2187 16.2028 13.3889 16.1463 13.5396 16.0915ZM10.5858 17.2399C10.5968 17.2561 10.624 17.3166 10.6493 17.3927C10.7946 17.7877 11.1211 18.3689 11.4028 18.7413C11.7117 19.1501 12.116 19.5863 12.4521 19.8722C12.5611 19.9629 12.6607 20.0494 12.6745 20.063C12.7017 20.0904 12.7108 20.0857 11.9705 20.3674C11.1126 20.6944 10.177 21.0213 9.10522 21.3663C8.84913 21.4489 8.59327 21.5322 8.33764 21.6162C8.29663 21.6298 8.31093 21.6068 8.42882 21.4207C8.96014 20.5901 9.76803 18.9598 10.2223 17.8062C10.2996 17.6063 10.3767 17.4063 10.3903 17.3609C10.3966 17.3386 10.4058 17.3257 10.4144 17.3114L10.5858 17.2399ZM9.64592 17.6384C9.61499 17.7298 9.41788 18.1425 9.21421 18.5414C8.77358 19.3999 8.29241 20.2446 7.64764 21.2709C7.53843 21.4479 7.43436 21.6115 7.4203 21.6295C7.3978 21.6614 7.38866 21.6525 7.31577 21.5119C7.16132 21.2072 7.03452 20.817 6.96608 20.4581C6.89811 20.104 6.91171 19.4864 6.98905 19.1048C7.02421 18.9368 7.03968 18.8735 7.07343 18.833C7.92006 18.4117 8.77787 18.0133 9.64592 17.6381V17.6384ZM17.4926 17.9196V18.1102C17.4926 19.1229 17.3836 20.5125 17.2247 21.525C17.1975 21.7022 17.1748 21.8477 17.1703 21.8524C17.1703 21.8524 17.0383 21.8159 16.8841 21.7704C16.1606 21.5406 15.461 21.2411 14.7954 20.876C14.3548 20.6353 13.7149 20.2399 13.733 20.2219C13.7374 20.2172 13.928 20.1176 14.1501 19.9992C15.0405 19.5363 15.8941 19.0366 16.6345 18.5414C16.9115 18.3553 17.329 18.056 17.4197 17.9742L17.4926 17.9196ZM6.23132 19.2642C6.24866 19.2652 6.2435 19.3024 6.21678 19.4637C6.19414 19.6247 6.17749 19.7865 6.16686 19.9488C6.13053 20.6121 6.23952 21.1031 6.56647 21.7751C6.65741 21.9612 6.73007 22.1156 6.72538 22.1201C6.69374 22.1475 3.68741 23.0283 2.74288 23.287C2.46139 23.3644 2.21624 23.4323 2.19796 23.4368C2.16608 23.4462 2.16163 23.4417 2.17522 23.3644C2.27975 22.6969 2.78858 21.825 3.4971 21.0893C3.96913 20.5988 4.346 20.3126 4.99077 19.9448C5.20663 19.822 5.47499 19.6723 5.70725 19.5441C5.88022 19.45 6.05491 19.3567 6.23132 19.2642ZM13.3144 20.5308H13.3148C13.3195 20.5261 13.428 20.5852 13.5598 20.662C14.5317 21.2255 15.885 21.7479 17.0383 22.0158L17.1426 22.0383L16.9976 22.1203C16.3938 22.4562 14.4089 23.2828 12.3792 24.041C12.0839 24.15 11.7937 24.259 11.7394 24.2817C11.6848 24.3045 11.6344 24.318 11.6344 24.3134C11.6344 24.3087 11.7164 24.1498 11.8207 23.9545C12.3883 22.8919 12.9605 21.5979 13.2513 20.6988C13.2876 20.6126 13.3097 20.5355 13.3144 20.5308ZM12.5925 20.7666H12.593C12.5976 20.7712 12.5611 20.8669 12.5156 20.9759C12.1205 21.934 11.6027 22.9786 10.9397 24.15C10.7719 24.45 10.631 24.6905 10.6265 24.6905C10.6221 24.6905 10.4857 24.6084 10.3219 24.5088C9.35952 23.9182 8.50546 23.1916 7.94718 22.4878L7.86514 22.388L8.27858 22.2745C9.75889 21.8705 11.017 21.4345 12.2658 20.8988C12.443 20.8261 12.588 20.7666 12.5925 20.7666ZM17.0791 22.3336C17.0838 22.4381 16.8525 23.3735 16.6617 24.0502C16.5028 24.6178 16.3664 25.0627 16.1163 25.8483C16.0076 26.1938 15.9124 26.4795 15.9077 26.4795C15.903 26.4795 15.8761 26.4752 15.8487 26.4663C14.5001 26.2209 13.2921 25.8802 12.1568 25.4262C11.839 25.2989 11.385 25.0945 11.3576 25.0718C11.3487 25.0627 11.621 24.9356 11.9662 24.7859C14.0325 23.8821 16.1756 22.8558 16.9115 22.4154C16.9978 22.3608 17.0655 22.3336 17.0791 22.3336ZM6.72116 22.6875C6.73053 22.6969 6.15327 23.5277 5.34538 24.6586C5.06342 25.0537 4.73671 25.5166 4.61413 25.6891C4.47225 25.8892 4.33441 26.092 4.20069 26.2976L4.00991 26.5931L3.80577 26.4202C3.56507 26.2202 3.14741 25.7937 2.96108 25.5577C2.57061 25.0718 2.30694 24.5583 2.20264 24.0905C2.15249 23.8725 2.15249 23.7638 2.19796 23.7506C3.00273 23.5583 3.80821 23.369 4.61436 23.1825C5.15668 23.0576 5.69848 22.9305 6.23975 22.8012C6.50319 22.7377 6.71671 22.6875 6.72116 22.6875ZM7.30218 22.9102L7.44772 23.0735C8.10163 23.8048 8.76889 24.345 9.57725 24.8173C9.72257 24.8993 9.83178 24.9717 9.82264 24.9764C9.791 24.9989 7.01624 25.9842 5.73116 26.4295C5.2916 26.5852 4.85105 26.738 4.40952 26.888C4.40507 26.888 4.36405 26.8605 4.31882 26.8289L4.23678 26.7698L4.36874 26.5791C4.7953 25.9615 5.33132 25.2851 6.49827 23.8772L7.30218 22.9102ZM10.9263 25.5028C10.9308 25.4981 11.1302 25.5708 11.3758 25.6622C11.9662 25.8846 12.4336 26.0255 13.0603 26.1844C13.8323 26.3796 14.9496 26.5702 15.6084 26.625C15.7083 26.6337 15.7624 26.6428 15.7444 26.6564C15.7125 26.6745 15.0448 26.8973 14.5544 27.0516C13.7733 27.297 11.3894 28.0008 9.44577 28.5593C9.21771 28.626 8.98919 28.6912 8.76022 28.7548C8.71475 28.7637 8.56475 28.7224 8.56475 28.7044C8.56475 28.6955 8.67374 28.5548 8.80546 28.4004C9.45936 27.6192 10.1088 26.7471 10.6493 25.9207C10.7993 25.6936 10.9263 25.5073 10.9263 25.5028ZM10.1266 25.5258H10.1271C10.1315 25.5305 9.80905 26.0477 9.24585 26.9379C9.00538 27.3148 8.73725 27.7423 8.6421 27.8918C8.55116 28.0371 8.41452 28.2645 8.33741 28.3913L8.20616 28.6226L8.13819 28.6048C7.97436 28.5591 6.82546 28.155 6.521 28.0324C6.16028 27.8889 5.80723 27.7268 5.46327 27.5468C5.09999 27.3513 4.646 27.0607 4.68233 27.0516C4.69124 27.0469 5.31327 26.8791 6.06257 26.6747C8.05124 26.1342 9.15491 25.8211 9.87702 25.594C10.0087 25.553 10.1222 25.5211 10.1266 25.5258ZM15.7805 26.8514H15.7854C15.8034 26.8971 15.0675 28.9404 14.7994 29.5852C14.7408 29.7305 14.7178 29.767 14.6859 29.7623C14.6086 29.7577 13.5419 29.6084 12.8925 29.513C11.7619 29.3405 9.86319 29.0091 9.38671 28.8998L9.27796 28.8771L9.95436 28.7227C11.4075 28.3957 12.1069 28.2188 12.8154 28.0008C13.7304 27.721 14.6243 27.3763 15.4903 26.9695C15.6309 26.9062 15.7486 26.8563 15.7805 26.8519V26.8514Z" fill="#C0A3CF"/>
</g>
<defs>
<clipPath id="clip0_75_336">
<rect width="30" height="30" fill="white"/>
</clipPath>
</defs>
</svg>
