<svg width="30" height="30" viewBox="0 0 30 30" fill="none" xmlns="http://www.w3.org/2000/svg">
<g clip-path="url(#clip0_75_324)">
<path d="M27.5832 23.0255C25.9489 22.9807 24.701 23.1335 23.6335 23.5831C23.3304 23.7113 22.8471 23.7141 22.7977 24.094C22.9643 24.2689 22.9899 24.5297 23.1228 24.7449C23.3773 25.156 23.8076 25.7089 24.1913 25.9992C24.6106 26.3152 25.0428 26.6539 25.4923 26.9276C26.2924 27.4156 27.1852 27.694 27.9542 28.182C28.4084 28.4703 28.8586 28.8328 29.3018 29.1579C29.5207 29.3182 29.6682 29.5681 29.9517 29.6689V29.6231C29.8024 29.4328 29.764 29.1708 29.6267 28.9723L29.0224 28.3681C28.4318 27.5843 27.6821 26.896 26.8857 26.3246C26.2503 25.8678 24.8276 25.2516 24.563 24.5128L24.5164 24.4662C24.9668 24.4149 25.4942 24.252 25.9107 24.1402C26.6091 23.9534 27.2337 24.0019 27.9542 23.8151L28.9301 23.5369V23.351C28.5657 22.9774 28.3057 22.4822 27.9085 22.1435C26.8676 21.2574 25.7323 20.3728 24.5632 19.635C23.9149 19.2258 23.1139 18.9593 22.4264 18.6124C22.1949 18.4962 21.7892 18.4348 21.6364 18.2407C21.2757 17.7811 21.0788 17.198 20.8006 16.6615C20.2174 15.5381 19.6451 14.3124 19.1278 13.1304C18.7753 12.3249 18.5457 11.5301 18.1062 10.8078C15.9968 7.33971 13.7264 5.24604 10.2089 3.1887C9.4601 2.75112 8.55917 2.57815 7.6069 2.35198L6.07339 2.2594C5.7612 2.12932 5.43706 1.74752 5.14409 1.56166C3.97901 0.825024 0.989793 -0.776226 0.126355 1.3294C-0.418332 2.65784 0.941277 3.95416 1.42737 4.62799C1.76886 5.09956 2.2055 5.62948 2.44901 6.16057C2.61026 6.51026 2.63768 6.85995 2.77503 7.22909C3.11206 8.13916 3.40667 9.12963 3.84354 9.9701C4.06409 10.3957 4.3076 10.8436 4.58698 11.2245C4.75737 11.4579 5.05104 11.5615 5.09792 11.9213C4.81034 12.3232 4.79393 12.9467 4.63292 13.4548C3.90682 15.7446 4.18151 18.5899 5.23714 20.2838C5.56128 20.8048 6.32487 21.9197 7.37393 21.4922C8.29221 21.1177 8.08714 19.9596 8.34987 18.9371C8.4094 18.7055 8.37284 18.5351 8.48909 18.3795V18.4261L9.32581 20.0979C9.94479 21.0949 11.0424 22.1367 11.9735 22.8399C12.4561 23.2043 12.836 23.8341 13.4604 24.0474V24.0007H13.4138C13.2928 23.8121 13.1035 23.7342 12.9497 23.5833C12.5862 23.2264 12.1817 22.7831 11.8812 22.3749C11.0344 21.226 10.2863 19.9678 9.60518 18.6589C9.27917 18.0335 8.99628 17.3442 8.72159 16.7079C8.61542 16.4625 8.61729 16.0908 8.39651 15.9645C8.09628 16.4304 7.65307 16.8078 7.42057 17.3578C7.04979 18.2377 7.00128 19.3116 6.86393 20.4239C6.78237 20.4532 6.81823 20.4331 6.77065 20.4706C6.12331 20.314 5.89643 19.6484 5.6555 19.0763C5.04753 17.6316 4.93409 15.3052 5.46964 13.6409C5.60792 13.2106 6.23417 11.8556 5.98057 11.4574C5.85964 11.0611 5.4605 10.8312 5.23714 10.5281C4.96057 10.1536 4.68518 9.66026 4.4937 9.22713C3.99565 8.10096 3.76409 6.8358 3.23932 5.69698C2.98854 5.15229 2.5655 4.60104 2.21768 4.11776C1.83214 3.58127 1.40112 3.18565 1.10253 2.5376C0.996355 2.30698 0.852683 1.93784 1.00925 1.70182C1.05964 1.54151 1.13018 1.47471 1.28839 1.42268C1.55745 1.21479 2.30839 1.49229 2.58846 1.60854C3.33378 1.91791 3.95534 2.21276 4.58698 2.63112C4.88909 2.83151 5.19589 3.21987 5.56198 3.32791H5.98034C6.63401 3.47815 7.36643 3.37362 7.97792 3.55948C9.05815 3.88807 10.0259 4.39901 10.9048 4.95377C13.5818 6.64479 15.7718 9.05065 17.2695 11.9227C17.5102 12.3851 17.6147 12.8255 17.8271 13.316C18.2546 14.3049 18.7939 15.3221 19.2195 16.2898C19.6451 17.2538 20.059 18.2281 20.6604 19.0308C20.9764 19.4529 22.1958 19.6791 22.7506 19.9135C23.1396 20.0773 23.7769 20.2486 24.1449 20.471C24.848 20.895 25.5291 21.4003 26.1893 21.8644C26.5179 22.0969 27.5323 22.6069 27.5827 23.0262L27.5832 23.0255ZM6.81635 5.32549C6.47581 5.31916 6.23511 5.36206 5.98057 5.41807V5.46471H6.02628C6.18917 5.79799 6.47581 6.01315 6.67714 6.30049L7.1412 7.27643L7.18784 7.23073C7.47542 7.02752 7.60714 6.70338 7.60526 6.20815C7.48995 6.08627 7.47354 5.93534 7.37276 5.78979C7.24104 5.59666 6.9837 5.48768 6.81612 5.32573L6.81635 5.32549Z" fill="#C0A3CF"/>
</g>
<defs>
<clipPath id="clip0_75_324">
<rect width="30" height="30" fill="white"/>
</clipPath>
</defs>
</svg>
