<svg width="25" height="25" viewBox="0 0 25 25" fill="none" xmlns="http://www.w3.org/2000/svg">
<path d="M14.7198 0.0489502C14.5396 0.0489502 14.3718 0.0874919 14.2166 0.139575C14.5458 0.358325 14.7271 0.649992 14.8166 0.979159C14.8239 1.02395 14.8364 1.05624 14.8427 1.10103C14.8494 1.13964 14.8539 1.17859 14.8562 1.2177C14.8812 1.78541 14.7073 1.85728 14.5854 2.1927C14.3979 2.62499 14.45 3.08958 14.675 3.46353C14.6953 3.51382 14.7211 3.56169 14.7521 3.60624C14.5073 1.97291 15.8698 1.72812 16.1208 1.2177C16.1406 0.771867 15.7729 0.474992 15.4823 0.268742C15.2539 0.12523 14.9895 0.0493833 14.7198 0.0499919V0.0489502ZM16.7729 0.416659C16.7479 0.565617 16.7666 0.527075 16.7604 0.604159C16.7541 0.656242 16.7541 0.720825 16.7479 0.771867C16.7343 0.82395 16.7218 0.876033 16.7021 0.927075C16.6889 0.979158 16.6715 1.03089 16.65 1.08228L16.5802 1.2302C16.5593 1.25624 16.5479 1.28228 16.5281 1.30833L16.4896 1.36562C16.4589 1.40991 16.4266 1.453 16.3927 1.49478C16.3541 1.53437 16.3218 1.57916 16.276 1.61145V1.6177C16.2375 1.64999 16.1989 1.68853 16.1531 1.72187C16.0177 1.82499 15.8635 1.90208 15.7208 1.99895C15.676 2.0302 15.6302 2.05728 15.5916 2.09583C15.5481 2.12699 15.507 2.16147 15.4687 2.19895C15.4239 2.23749 15.3916 2.27603 15.3531 2.32187C15.3208 2.36041 15.2823 2.4052 15.2562 2.45103C15.2243 2.49497 15.194 2.54015 15.1656 2.58645C15.1396 2.63853 15.1208 2.68333 15.0948 2.73437C15.075 2.78645 15.0562 2.83124 15.0427 2.88333C15.0256 2.93652 15.0106 2.99039 14.9979 3.04478C14.9916 3.07083 14.9916 3.10312 14.9854 3.12812C14.9781 3.15416 14.9781 3.1802 14.9718 3.20624C14.9718 3.25833 14.9656 3.31562 14.9656 3.3677C14.9642 3.40589 14.9663 3.44444 14.9718 3.48333C14.9718 3.53471 14.9784 3.58853 14.9916 3.64478C14.9986 3.69687 15.009 3.74895 15.0229 3.80103C15.0437 3.85208 15.0562 3.90312 15.075 3.9552C15.0885 3.98645 15.1073 4.01978 15.1208 4.04583L13.6354 3.47083C13.3843 3.39999 13.1385 3.33541 12.8864 3.27708L12.4802 3.1802C12.0913 3.10312 11.6996 3.04513 11.3052 3.00624C11.2916 3.00624 11.2854 2.99999 11.2729 2.99999C10.6076 2.93291 9.93764 2.92419 9.2708 2.97395C8.87705 2.99999 8.4833 3.05103 8.08955 3.11562C7.79702 3.16646 7.50624 3.22691 7.21768 3.29687L6.92705 3.37395C6.83122 3.41249 6.73955 3.45728 6.64997 3.49687L6.43643 3.59374C6.42393 3.59999 6.41143 3.59999 6.40518 3.60624C6.33955 3.63853 6.28226 3.66458 6.22393 3.69687C6.14022 3.73421 6.0582 3.77523 5.9781 3.81978C5.9333 3.83853 5.88851 3.86458 5.84893 3.88437L5.79164 3.91562C5.73261 3.94895 5.67636 3.98159 5.62289 4.01353C5.57011 4.04356 5.51867 4.07589 5.46872 4.11041C5.42289 4.14166 5.3781 4.1677 5.33955 4.19999C5.3333 4.20728 5.32601 4.20728 5.31976 4.21353C5.28122 4.23958 5.23643 4.27187 5.19685 4.30416L5.18435 4.31666L5.08747 4.39374C5.07497 4.40103 5.06143 4.41353 5.04893 4.41978C5.01664 4.44583 4.98435 4.47812 4.95205 4.50312C4.9458 4.51666 4.93226 4.52395 4.92601 4.52916C4.88747 4.56874 4.84893 4.60103 4.81039 4.63958C4.8031 4.63958 4.80309 4.64583 4.79684 4.65208C4.75691 4.68739 4.71833 4.72422 4.68122 4.76249C4.67393 4.76874 4.67393 4.77499 4.66768 4.77499C4.63421 4.8086 4.6019 4.84334 4.5708 4.87916C4.5583 4.89166 4.53955 4.90416 4.52601 4.91666C4.49226 4.95833 4.45535 4.99734 4.4156 5.03332C4.40935 5.04583 4.39685 5.05312 4.3906 5.06458C4.33851 5.11666 4.29372 5.16874 4.24164 5.22083L4.22289 5.23958C4.11872 5.34999 4.00935 5.45937 3.89268 5.55624C3.77601 5.66041 3.65553 5.7552 3.53122 5.84062C3.28431 6.01672 3.01798 6.16387 2.73747 6.27916C2.60205 6.33749 2.45935 6.38958 2.31768 6.43437C2.04685 6.4927 1.76872 6.60208 1.53018 6.62187C1.4781 6.62187 1.4208 6.63437 1.36872 6.64062L1.20726 6.67916L1.05205 6.73749C0.99997 6.75833 0.948581 6.78194 0.897887 6.80832C0.852053 6.84062 0.801012 6.86666 0.755179 6.89895C0.709188 6.93218 0.665988 6.9691 0.626012 7.00937C0.58122 7.04062 0.535387 7.08645 0.496845 7.12499C0.458304 7.16978 0.419762 7.20833 0.38747 7.25416C0.355179 7.30624 0.316637 7.35103 0.290595 7.40312C0.256327 7.44982 0.226013 7.49929 0.19997 7.55103C0.173929 7.60937 0.147887 7.66145 0.129137 7.71874C0.109692 7.77221 0.090248 7.82812 0.0708035 7.88645C0.0583035 7.93853 0.0447619 7.99062 0.0395535 8.0427C0.0395535 8.04791 0.0322619 8.0552 0.0322619 8.06145C0.0197619 8.11978 0.0197619 8.19687 0.0124702 8.23541C0.0062202 8.28124 -2.97965e-05 8.31874 -2.97965e-05 8.36457C-0.00110046 8.47689 0.0253656 8.58777 0.0770535 8.68749V8.69374C0.0978869 8.73263 0.121845 8.77152 0.148929 8.81041C0.173234 8.8493 0.201012 8.88784 0.232262 8.92603C0.264554 8.95833 0.303095 8.99791 0.342679 9.0302C0.380606 9.06764 0.42135 9.10212 0.464554 9.13332C0.619762 9.26874 0.658303 9.31353 0.858303 9.41666C0.890595 9.43645 0.922887 9.44895 0.96247 9.46874C0.96872 9.46874 0.97497 9.47499 0.98122 9.47499C0.98122 9.48853 0.98122 9.49478 0.98747 9.50728C1.00283 9.6137 1.0308 9.7179 1.0708 9.8177C1.09164 9.85624 1.10414 9.89478 1.12289 9.93332C1.12983 9.94721 1.13678 9.95798 1.14372 9.96562C1.16872 10.0177 1.19476 10.0625 1.21976 10.1083L1.31664 10.2437C1.34893 10.2823 1.38851 10.3271 1.42705 10.3667C1.4656 10.4062 1.50414 10.4375 1.54997 10.476C1.54997 10.476 1.55622 10.4823 1.56247 10.4823C1.60066 10.5156 1.63955 10.5458 1.67914 10.5729C1.72409 10.6044 1.77146 10.6322 1.8208 10.6562C1.8656 10.6823 1.91768 10.7083 1.96872 10.7281C2.01075 10.7459 2.0539 10.7608 2.09789 10.7729C2.10518 10.7792 2.11143 10.7792 2.12393 10.7854C2.14997 10.7927 2.18226 10.799 2.20726 10.8052C2.18851 11.1542 2.18226 11.4823 2.23435 11.599C2.29164 11.7281 2.57601 11.3344 2.85934 10.8823C2.82185 11.3281 2.7958 11.851 2.85934 12.0062C2.93122 12.1677 3.31768 11.6635 3.65414 11.1083C8.23226 10.05 12.4093 13.2125 12.8479 17.6812C12.7646 16.9833 11.9052 16.5969 11.5114 16.6937C11.3177 17.1708 10.9885 17.7844 10.4593 18.1656C10.5041 17.7385 10.4854 17.301 10.3948 16.8739C10.2505 17.4685 9.97696 18.0241 9.59372 18.501C8.98122 18.5458 8.36768 18.2489 8.04476 17.8031C8.01872 17.7844 8.01247 17.7458 7.99268 17.7198C7.97254 17.6746 7.95518 17.6295 7.9406 17.5844C7.92168 17.5412 7.90871 17.4956 7.90205 17.4489C7.8965 17.4045 7.89441 17.3569 7.8958 17.3062V17.2094C7.90354 17.1636 7.91432 17.1183 7.92809 17.0739C7.9399 17.0295 7.95518 16.9844 7.97393 16.9385C7.99893 16.8937 8.01872 16.8479 8.05101 16.8031C8.16039 16.4927 8.16039 16.2406 7.96039 16.0927C7.9209 16.0685 7.87983 16.0469 7.83747 16.0281C7.81247 16.0219 7.78018 16.0094 7.75414 16.0021L7.70205 15.9833C7.65769 15.9696 7.61244 15.9588 7.56664 15.951C7.52256 15.9385 7.47703 15.9319 7.43122 15.9312C7.38434 15.9239 7.33701 15.9197 7.28955 15.9187C7.25726 15.9187 7.22497 15.925 7.19268 15.925C7.14442 15.9249 7.09639 15.9316 7.04997 15.9448C7.00553 15.9503 6.96039 15.9587 6.91455 15.9698C6.86842 15.9819 6.82317 15.9973 6.77914 16.0156C6.73434 16.0344 6.6958 16.0542 6.64997 16.0739C6.61143 16.0927 6.57289 16.1187 6.52705 16.1385C5.02289 17.1198 5.9208 19.4177 6.94685 20.0833C6.55935 20.1542 6.1656 20.2375 6.05622 20.3219L6.04268 20.3344C6.32046 20.501 6.61108 20.6455 6.91455 20.7677C7.32809 20.9031 7.76664 21.025 7.96039 21.0771V21.0833C8.49532 21.1931 9.04234 21.2323 9.58747 21.2C12.4479 21 14.7916 18.8239 15.2177 15.9573L15.2562 16.125C15.276 16.2417 15.301 16.3646 15.3146 16.4865V16.4927C15.3257 16.5517 15.3343 16.608 15.3406 16.6614V16.6864C15.3475 16.7455 15.3517 16.8017 15.3531 16.8552C15.36 16.926 15.3642 16.9969 15.3656 17.0677V17.1719C15.3656 17.2031 15.3729 17.2417 15.3729 17.2739C15.3729 17.3135 15.3656 17.3521 15.3656 17.3906V17.4812C15.3656 17.526 15.3593 17.5646 15.3593 17.6104C15.3607 17.6354 15.3587 17.6632 15.3531 17.6937C15.3531 17.7396 15.3468 17.7844 15.3468 17.8364C15.342 17.8552 15.3399 17.8743 15.3406 17.8937L15.3198 18.0427C15.3205 18.0621 15.3187 18.0816 15.3146 18.101C15.3073 18.1656 15.2948 18.2239 15.2885 18.2885V18.301L15.25 18.4823V18.501L15.2114 18.675C15.2114 18.6823 15.2041 18.6958 15.2041 18.701C15.1917 18.76 15.1768 18.8184 15.1593 18.876V18.8948C15.1385 18.958 15.1212 19.0184 15.1073 19.076C15.1017 19.083 15.0996 19.0871 15.101 19.0885L15.0427 19.2823C15.0177 19.3469 14.9979 19.4052 14.9718 19.4698C14.9458 19.5344 14.9271 19.5989 14.901 19.6573C14.875 19.7219 14.8489 19.7792 14.8239 19.8448H14.8166C14.7916 19.9021 14.7646 19.9667 14.7333 20.025L14.7135 20.0698C14.7073 20.076 14.7073 20.0833 14.701 20.0896C14.2729 20.9437 13.6516 21.6863 12.8864 22.2583C12.8343 22.2906 12.7833 22.3302 12.7312 22.3687C12.7187 22.3812 12.7 22.3875 12.6864 22.4C12.6401 22.4339 12.5929 22.4666 12.5448 22.4979L12.5635 22.5364H12.5708L12.8416 22.4979H12.8479C13.0152 22.4708 13.183 22.4406 13.351 22.4073C13.3968 22.401 13.4479 22.3875 13.4937 22.375L13.5843 22.3552C13.6291 22.3489 13.6739 22.3364 13.7198 22.3302C13.7583 22.3167 13.7968 22.3094 13.8354 22.2979C14.4812 22.1417 15.1073 21.9292 15.7083 21.6781C14.6715 23.0923 13.2912 24.2188 11.6979 24.951C12.4416 24.8989 13.1833 24.7771 13.9 24.5698C16.4941 23.8074 18.6851 22.0568 20.001 19.6948C19.7349 21.1898 19.142 22.6076 18.2646 23.8469C18.8901 23.4338 19.4682 22.9532 19.9885 22.4135C21.435 20.9057 22.384 18.9903 22.7073 16.926C22.926 17.9469 22.9906 18.9989 22.8948 20.0375C27.5552 13.5364 23.2812 6.79583 21.4927 5.02083C21.4864 5.00728 21.4802 5.00103 21.4802 4.98853C21.4739 4.99478 21.4739 4.99478 21.4739 5.00103C21.4739 4.99478 21.4739 4.99478 21.4666 4.98853C21.4652 5.06492 21.4611 5.14235 21.4541 5.22083C21.4364 5.36546 21.4149 5.50961 21.3896 5.65312C21.3583 5.79478 21.3187 5.93749 21.2802 6.0802C21.2343 6.21562 21.1833 6.35728 21.1239 6.4927C21.0652 6.6266 21.001 6.75796 20.9312 6.88645C20.7859 7.13881 20.6197 7.37854 20.4343 7.60312C20.3375 7.71874 20.2343 7.82187 20.1302 7.92603C20.0693 7.9817 20.0068 8.03554 19.9427 8.08749L19.7948 8.21666C19.6788 8.30665 19.5581 8.39044 19.4333 8.4677C19.3102 8.54763 19.1829 8.62099 19.0521 8.68749C18.9166 8.75069 18.7812 8.8111 18.6458 8.86874C18.3699 8.97342 18.0846 9.05121 17.7937 9.10103C17.6448 9.12708 17.4968 9.13958 17.3541 9.15312C17.2512 9.16035 17.148 9.16452 17.0448 9.16562C16.8979 9.16314 16.7513 9.15445 16.6052 9.13958C16.4577 9.12846 16.3111 9.10687 16.1666 9.07499C16.0201 9.04887 15.8757 9.01232 15.7343 8.96562H15.7271C15.8698 8.95208 16.0114 8.93958 16.1541 8.91353C16.4448 8.86309 16.7301 8.78532 17.0062 8.68124C17.1479 8.62916 17.2833 8.56458 17.4125 8.49999C17.5479 8.43541 17.6708 8.36457 17.8 8.28749C17.9236 8.20485 18.0441 8.11874 18.1614 8.02916C18.2781 7.93888 18.3878 7.84201 18.4906 7.73853C18.6 7.64166 18.6968 7.53228 18.7937 7.42187C18.8909 7.30589 18.9812 7.18992 19.0646 7.07395C19.0781 7.05416 19.0916 7.02812 19.1041 7.00937C19.1701 6.9052 19.2326 6.80173 19.2916 6.69895C19.4338 6.44191 19.5503 6.17151 19.6396 5.89166C19.6854 5.75624 19.7177 5.61457 19.75 5.47187C19.776 5.32395 19.8021 5.18228 19.8146 5.03958C19.8271 4.89166 19.8406 4.7427 19.8406 4.60103C19.8406 4.49687 19.8333 4.39374 19.8271 4.29062C19.814 4.14603 19.7966 4.00187 19.775 3.85833C19.7492 3.71293 19.7172 3.56871 19.6791 3.42603C19.6333 3.29062 19.5885 3.14791 19.5364 3.01249C19.4843 2.87708 19.4208 2.74166 19.3562 2.61249C19.2854 2.48263 19.2121 2.35555 19.1364 2.23124C19.0539 2.11062 18.9677 1.99251 18.8781 1.87708C18.7823 1.76596 18.6833 1.65589 18.5812 1.54687C18.5268 1.4915 18.4709 1.43766 18.4135 1.38541C18.1205 1.15833 17.8212 0.947561 17.5156 0.753117C17.4741 0.728627 17.4309 0.707047 17.3864 0.688534C17.195 0.571109 16.9886 0.47897 16.7729 0.416659Z" fill="#C0A3CF"/>
</svg>
