<svg width="30" height="30" viewBox="0 0 30 30" fill="none" xmlns="http://www.w3.org/2000/svg">
<path d="M9 9L9.81 8.414C9.6861 8.24286 9.51117 8.11536 9.31031 8.0498C9.10946 7.98423 8.893 7.98397 8.69198 8.04905C8.49097 8.11413 8.31574 8.2412 8.19142 8.41205C8.0671 8.58289 8.00009 8.78871 8 9H9ZM15 28C11.5522 28 8.24558 26.6304 5.80761 24.1924C3.36964 21.7544 2 18.4478 2 15H0C0 18.9782 1.58035 22.7936 4.3934 25.6066C7.20644 28.4196 11.0218 30 15 30V28ZM28 15C28 16.7072 27.6637 18.3977 27.0104 19.9749C26.3571 21.5521 25.3995 22.9852 24.1924 24.1924C22.9852 25.3995 21.5521 26.3571 19.9749 27.0104C18.3977 27.6637 16.7072 28 15 28V30C18.9782 30 22.7936 28.4196 25.6066 25.6066C28.4196 22.7936 30 18.9782 30 15H28ZM15 2C16.7072 2 18.3977 2.33626 19.9749 2.98957C21.5521 3.64288 22.9852 4.60045 24.1924 5.80761C25.3995 7.01477 26.3571 8.44788 27.0104 10.0251C27.6637 11.6023 28 13.2928 28 15H30C30 11.0218 28.4196 7.20644 25.6066 4.3934C22.7936 1.58035 18.9782 0 15 0V2ZM15 0C11.0218 0 7.20644 1.58035 4.3934 4.3934C1.58035 7.20644 0 11.0218 0 15H2C2 11.5522 3.36964 8.24558 5.80761 5.80761C8.24558 3.36964 11.5522 2 15 2V0ZM10 24V9H8V24H10ZM8.19 9.586L21.19 27.586L22.81 26.414L9.81 8.414L8.19 9.586ZM20 8V20H22V8H20Z" fill="#C0A3CF"/>
</svg>
