<svg width="24" height="25" viewBox="0 0 24 25" fill="none" xmlns="http://www.w3.org/2000/svg">
<g clip-path="url(#clip0_75_378)">
<path d="M9.93931 5.07964L5.76387 2.97173L1.17974 5.25962L5.46909 7.41353L9.93931 5.07964ZM11.8546 6.046L16.2328 8.25742L11.6905 10.5382L7.39453 8.38115L11.8546 6.046ZM17.7025 3.00317L22.201 5.25962L18.1772 7.27993L13.7901 5.06631L17.7025 3.00317ZM15.766 2.0314L11.7162 0L7.71055 2L11.8838 4.10439L15.766 2.0314ZM12.6002 19.4726V25L17.5058 22.5513L17.5014 17.0216L12.6002 19.4726ZM17.4992 15.0917L17.4934 9.62046L12.6002 12.0536V17.5269L17.4992 15.0917ZM23.3887 14.0669V19.6157L19.2041 21.7033L19.2005 16.1803L23.3887 14.0669ZM23.3887 12.1266V6.68931L19.1996 8.77339V14.2558L23.3887 12.1266ZM10.8684 12.0536L7.56426 10.391V17.5719L3.14897 8.19873C3.10073 8.09873 2.90273 7.9896 2.85195 7.9626L0 6.50713V19.1983L2.93765 20.773V14.1365L6.97725 21.9058C7.0188 21.9899 7.41802 22.7989 7.84761 23.0832C8.41782 23.4625 10.8662 24.9347 10.8662 24.9347L10.8684 12.0536Z" fill="#C0A3CF"/>
</g>
<defs>
<clipPath id="clip0_75_378">
<rect width="23.4375" height="25" fill="white"/>
</clipPath>
</defs>
</svg>
