<svg width="25" height="25" viewBox="0 0 25 25" fill="none" xmlns="http://www.w3.org/2000/svg">
<g clip-path="url(#clip0_75_316)">
<path fill-rule="evenodd" clip-rule="evenodd" d="M12.5 5.57229e-08C10.8677 -0.000192125 9.27404 0.496723 7.93111 1.42461C6.58819 2.35251 5.5597 3.66737 4.9825 5.19422C4.4053 6.72107 4.30678 8.38749 4.70004 9.97171C5.0933 11.5559 5.9597 12.9828 7.18393 14.0625C7.78571 14.5929 8.12679 15.2411 8.16607 15.8911C8.20357 16.525 7.96429 17.2982 7.14464 18.1179C6.14821 19.1143 4.73393 19.4696 3.6125 19.2304C3.10816 19.1371 2.64799 18.882 2.30179 18.5036C1.99821 18.1571 1.78571 17.6607 1.78571 16.9643C1.78571 16.7275 1.69165 16.5004 1.5242 16.3329C1.35676 16.1655 1.12966 16.0714 0.892857 16.0714C0.656057 16.0714 0.428955 16.1655 0.261512 16.3329C0.0940686 16.5004 0 16.7275 0 16.9643L0 18.4429C0 19.95 0.533929 21.3321 1.42143 22.4125C1.61027 22.4583 1.78311 22.5546 1.92143 22.6911L1.92679 22.6982C2.07799 22.8204 2.24205 22.9258 2.41607 23.0125C2.79643 23.2018 3.40179 23.4089 4.24107 23.4089C6.92857 23.4089 8.75 21.1946 9.53214 19.2304C9.6469 18.9632 9.86141 18.7513 10.13 18.6399C10.3986 18.5285 10.7001 18.5263 10.9703 18.6338C11.2405 18.7413 11.458 18.9501 11.5766 19.2156C11.6952 19.4811 11.7056 19.7824 11.6054 20.0554C10.9982 21.5857 9.73393 23.5482 7.76786 24.6929H17.2321C15.2661 23.5482 14.0036 21.5857 13.3929 20.0554C13.2835 19.7802 13.2878 19.4728 13.4051 19.2009C13.5223 18.929 13.7427 18.7148 14.0179 18.6054C14.293 18.496 14.6004 18.5003 14.8723 18.6175C15.1442 18.7348 15.3585 18.9552 15.4679 19.2304C16.25 21.1946 18.0714 23.4089 20.7589 23.4089C21.5982 23.4089 22.2036 23.2018 22.5821 23.0107C22.7567 22.9247 22.9214 22.8199 23.0732 22.6982L23.0786 22.6911C23.2169 22.5546 23.3897 22.4583 23.5786 22.4125C24.4979 21.2939 25.0003 19.8908 25 18.4429V16.9643C25 16.7275 24.9059 16.5004 24.7385 16.3329C24.571 16.1655 24.3439 16.0714 24.1071 16.0714C23.8703 16.0714 23.6432 16.1655 23.4758 16.3329C23.3084 16.5004 23.2143 16.7275 23.2143 16.9643C23.2143 17.6607 23 18.1571 22.6982 18.5036C22.3893 18.8589 21.9393 19.1107 21.3857 19.2304C20.2643 19.4696 18.8518 19.1143 17.8554 18.1179C17.0339 17.2964 16.7964 16.525 16.8339 15.8911C16.8732 15.2393 17.2143 14.5929 17.8161 14.0625C19.0403 12.9828 19.9067 11.5559 20.3 9.97171C20.6932 8.38749 20.5947 6.72107 20.0175 5.19422C19.4403 3.66737 18.4118 2.35251 17.0689 1.42461C15.726 0.496723 14.1323 -0.000192125 12.5 5.57229e-08ZM10.7786 9.375C10.7786 9.74725 10.6307 10.1043 10.3675 10.3675C10.1043 10.6307 9.74725 10.7786 9.375 10.7786C9.00275 10.7786 8.64575 10.6307 8.38252 10.3675C8.1193 10.1043 7.97143 9.74725 7.97143 9.375C7.97143 9.00275 8.1193 8.64575 8.38252 8.38252C8.64575 8.1193 9.00275 7.97143 9.375 7.97143C9.74725 7.97143 10.1043 8.1193 10.3675 8.38252C10.6307 8.64575 10.7786 9.00275 10.7786 9.375ZM15.625 10.7786C15.9973 10.7786 16.3543 10.6307 16.6175 10.3675C16.8807 10.1043 17.0286 9.74725 17.0286 9.375C17.0286 9.00275 16.8807 8.64575 16.6175 8.38252C16.3543 8.1193 15.9973 7.97143 15.625 7.97143C15.2527 7.97143 14.8957 8.1193 14.6325 8.38252C14.3693 8.64575 14.2214 9.00275 14.2214 9.375C14.2214 9.74725 14.3693 10.1043 14.6325 10.3675C14.8957 10.6307 15.2527 10.7786 15.625 10.7786Z" fill="#C0A3CF"/>
</g>
<defs>
<clipPath id="clip0_75_316">
<rect width="25" height="25" fill="white"/>
</clipPath>
</defs>
</svg>
