<svg width="30" height="30" viewBox="0 0 30 30" fill="none" xmlns="http://www.w3.org/2000/svg">
<path d="M25.7025 12.735C26.015 11.875 26.0937 11.015 26.015 10.1562C25.9375 9.29749 25.625 8.43749 25.2337 7.65624C24.5312 6.48499 23.515 5.54749 22.3437 4.99999C21.0937 4.45374 19.765 4.29749 18.4375 4.60999C17.8125 3.98499 17.1087 3.43749 16.3275 3.04749C15.5462 2.65749 14.6087 2.49999 13.75 2.49999C12.4086 2.49216 11.098 2.90193 9.99996 3.67249C8.90621 4.45249 8.12496 5.54749 7.73371 6.79749C6.79621 7.03124 6.01496 7.42249 5.23371 7.89124C4.53121 8.43749 3.98371 9.14124 3.51496 9.84374C2.81246 11.0162 2.57746 12.3437 2.73371 13.6725C2.89085 14.9973 3.43424 16.2467 4.29621 17.265C4.00094 18.0905 3.89416 18.9716 3.98371 19.8437C4.06246 20.7037 4.37496 21.5625 4.76496 22.3437C5.46871 23.5162 6.48371 24.4537 7.65621 25C8.90621 25.5475 10.2337 25.7037 11.5625 25.3912C12.1875 26.0162 12.89 26.5625 13.6712 26.9537C14.4525 27.345 15.39 27.5 16.25 27.5C17.5912 27.5082 18.9018 27.0988 20 26.3287C21.0937 25.5475 21.875 24.4537 22.265 23.2037C23.1477 23.0361 23.9779 22.6612 24.6875 22.11C25.39 21.5625 26.015 20.9375 26.4062 20.1562C27.1087 18.985 27.3437 17.6562 27.1875 16.3287C27.0312 15 26.5625 13.7512 25.7025 12.735ZM16.3275 25.8587C15.0775 25.8587 14.14 25.4675 13.2812 24.765C13.2812 24.765 13.3587 24.6862 13.4375 24.6862L18.4375 21.7962C18.5762 21.7336 18.6873 21.6225 18.75 21.4837C18.8125 21.3634 18.8394 21.2276 18.8275 21.0925V14.0625L20.9375 15.3125V21.0937C20.959 21.7123 20.8556 22.3288 20.6335 22.9065C20.4114 23.4842 20.0752 24.0113 19.6449 24.4561C19.2146 24.901 18.6991 25.2546 18.1291 25.4958C17.5591 25.737 16.9464 25.8596 16.3275 25.8587ZM6.24996 21.5625C5.70246 20.625 5.46871 19.5312 5.70246 18.4375C5.70246 18.4375 5.78121 18.5162 5.85871 18.5162L10.8587 21.4062C10.9787 21.4699 11.1147 21.4973 11.25 21.485C11.4062 21.485 11.5625 21.485 11.64 21.4062L17.7337 17.8912V20.3125L12.6562 23.2812C12.1298 23.5869 11.5482 23.7857 10.9448 23.8661C10.3414 23.9466 9.72807 23.9071 9.13996 23.75C7.88996 23.4375 6.87496 22.6562 6.24996 21.5625ZM4.92121 10.7037C5.47288 9.76945 6.32778 9.05218 7.34371 8.67124V14.61C7.34371 14.765 7.34371 14.9225 7.42121 15C7.48384 15.1387 7.59496 15.2499 7.73371 15.3125L13.8275 18.8287L11.7187 20.0787L6.71871 17.1875C6.18624 16.8866 5.71874 16.4831 5.34325 16.0003C4.96777 15.5176 4.69176 14.9651 4.53121 14.375C4.21871 13.2037 4.29621 11.7975 4.92121 10.7037ZM22.1875 14.6875L16.0937 11.1725L18.2025 9.92249L23.2025 12.8125C23.9837 13.2812 24.6087 13.9062 25 14.6875C25.3912 15.4687 25.625 16.3287 25.5462 17.2662C25.4713 18.1463 25.146 18.9865 24.6087 19.6875C24.0625 20.3912 23.3587 20.9375 22.5 21.25V15.3125C22.5 15.1562 22.5 15 22.4212 14.9225C22.4212 14.9225 22.3437 14.765 22.1875 14.6875ZM24.2962 11.5625C24.2962 11.5625 24.2187 11.485 24.14 11.485L19.14 8.59374C18.9837 8.51624 18.9062 8.51624 18.75 8.51624C18.5937 8.51624 18.4375 8.51624 18.3587 8.59374L12.265 12.11V9.68749L17.3437 6.71874C18.125 6.24999 18.9837 6.09374 19.9212 6.09374C20.7812 6.09374 21.64 6.40624 22.4212 6.95374C23.125 7.49999 23.75 8.20374 24.0625 8.98499C24.375 9.76624 24.4525 10.7037 24.2962 11.5625ZM11.1712 15.9375L9.06246 14.6875V8.82874C9.06246 7.96874 9.29621 7.03124 9.76496 6.32874C10.2337 5.54749 10.9375 4.99999 11.7187 4.60999C12.5149 4.2103 13.4173 4.07333 14.2962 4.21874C15.1562 4.29749 16.015 4.68749 16.7187 5.23499C16.7187 5.23499 16.64 5.31249 16.5625 5.31249L11.5625 8.20374C11.4237 8.26637 11.3126 8.37749 11.25 8.51624C11.1712 8.67249 11.1712 8.74999 11.1712 8.90624V15.9375ZM12.265 13.4375L15 11.875L17.7337 13.4375V16.5625L15 18.125L12.265 16.5625V13.4375Z" fill="#C0A3CF"/>
</svg>
