<svg width="30" height="30" viewBox="0 0 30 30" fill="none" xmlns="http://www.w3.org/2000/svg">
<g clip-path="url(#clip0_75_326)">
<path d="M29.45 18.4038C29.433 18.3508 29.4091 18.3004 29.3787 18.2538C29.2037 17.9246 28.7842 17.8283 28.12 17.965C26.0525 18.39 25.2525 18.1275 24.9625 17.94C26.64 15.38 28.0187 12.2875 28.7637 9.4025C29.1037 8.09 29.7612 4.99875 28.9162 3.49C28.8625 3.38639 28.7997 3.28768 28.7287 3.195C27.1162 1.1375 24.75 0.0312527 21.8875 0.00125265C20.0187 -0.0187473 18.425 0.433753 17.9925 0.600003C17.7784 0.560224 17.5633 0.526046 17.3475 0.497503C16.8061 0.399563 16.2576 0.346466 15.7075 0.338753C14.23 0.315003 12.9537 0.668753 11.895 1.38875C10.825 0.987503 5.91124 -0.667497 2.86999 1.4875C1.16874 2.69125 0.386237 4.84125 0.537487 7.88C0.588737 8.9025 1.17124 12.0475 2.09124 15.06C2.66624 16.9433 3.26332 18.4358 3.88249 19.5375C4.57415 20.7817 5.28832 21.5275 6.02499 21.775C6.58499 21.96 7.44124 21.9538 8.34749 20.8638C9.13362 19.9235 9.94432 19.004 10.7787 18.1063C11.3225 18.4 11.9112 18.5588 12.5162 18.5775V18.5825C12.4111 18.7077 12.3081 18.8348 12.2075 18.9638C11.7837 19.5013 11.695 19.6138 10.3325 19.895C9.94499 19.975 8.91499 20.1863 8.89999 20.9088C8.89777 21.0531 8.93727 21.195 9.01374 21.3175C9.29749 21.8463 10.1662 22.08 10.2825 22.1088C11.9512 22.525 13.4137 22.2238 14.4975 21.26C14.4762 24.0488 14.5937 26.7825 14.9287 27.62C15.205 28.3113 15.8812 30 18.0162 30C18.3287 30.0008 18.6742 29.9617 19.0525 29.8825C21.28 29.405 22.2475 28.42 22.6212 26.25C22.8087 25.1625 23.1237 22.6563 23.295 21.1238C23.3162 21.0363 23.34 20.9738 23.3662 20.9538C23.3662 20.9538 23.4537 20.8938 23.9 20.9913L23.955 21L24.2725 21.0275L24.2912 21.0288C25.35 21.0775 26.68 20.8513 27.455 20.4913C28.26 20.1163 29.7137 19.2 29.45 18.4038ZM2.96249 14.845C2.03249 11.8013 1.48999 8.73875 1.44749 7.88125C1.31124 5.16625 1.96874 3.2775 3.39999 2.265C5.69624 0.641253 9.44999 1.59 11.035 2.1025L11.0225 2.115C8.49374 4.6675 8.55374 9.0325 8.56249 9.3C8.56249 9.4025 8.56999 9.54875 8.58249 9.75C8.62499 10.4825 8.70749 11.85 8.48999 13.3975C8.28999 14.835 8.73249 16.2425 9.70624 17.2588C9.80624 17.3638 9.91124 17.4625 10.0212 17.555C9.58749 18.0188 8.64624 19.0463 7.64249 20.2525C6.93249 21.105 6.44249 20.9413 6.28249 20.8875C5.79249 20.725 5.26624 20.1538 4.73374 19.235C4.13374 18.1863 3.52999 16.695 2.96499 14.845M10.4737 21.205C10.2838 21.1577 10.1019 21.0827 9.93374 20.9825C10.045 20.9338 10.23 20.87 10.5375 20.8075C12.1425 20.4763 12.39 20.2438 12.9312 19.5575C13.0775 19.3675 13.2305 19.1828 13.39 19.0038C13.4308 18.9559 13.4621 18.9008 13.4825 18.8413C13.695 18.6525 13.8225 18.7038 14.0275 18.7888C14.2225 18.87 14.4125 19.1138 14.49 19.3825C14.5275 19.51 14.5675 19.7513 14.4337 19.9388C13.3037 21.5213 11.6562 21.5013 10.4737 21.205ZM13.0912 16.22L13.0262 16.395C12.86 16.8413 12.705 17.2563 12.6087 17.65C11.775 17.6475 10.9625 17.29 10.3462 16.6463C9.56124 15.8275 9.20499 14.6888 9.36749 13.5213C9.59624 11.8863 9.51249 10.4625 9.46749 9.6975L9.45124 9.4225C9.82124 9.095 11.5337 8.1775 12.755 8.4575C13.3125 8.585 13.6525 8.965 13.7925 9.6175C14.5237 12.9975 13.89 14.405 13.38 15.5375C13.2767 15.7618 13.1808 15.9894 13.0925 16.22M22.2975 21.935C22.2775 22.1567 22.2517 22.405 22.22 22.68L22.0375 23.2275C22.0238 23.2713 22.0163 23.3167 22.015 23.3625C22.0075 23.9563 21.9475 24.1738 21.8712 24.45C21.7471 24.8806 21.6717 25.3238 21.6462 25.7713C21.5087 27.5388 20.5487 28.555 18.625 28.9663C16.7312 29.3725 16.395 28.3463 16.1 27.44C16.0691 27.3449 16.0366 27.2503 16.0025 27.1563C15.7337 26.4238 15.765 25.3913 15.8062 23.9625C15.8262 23.2613 15.775 21.5863 15.3937 20.655C15.3987 20.2883 15.4067 19.9167 15.4175 19.54C15.4176 19.4922 15.4109 19.4446 15.3975 19.3988C15.3838 19.3112 15.3654 19.2244 15.3425 19.1388C15.19 18.6038 14.8175 18.1563 14.3675 17.97C14.19 17.8963 13.8637 17.7613 13.4712 17.8613C13.555 17.5163 13.7 17.1275 13.8575 16.705L13.9237 16.5275C13.9987 16.3275 14.0912 16.1213 14.19 15.9025C14.7225 14.7175 15.4525 13.095 14.66 9.43C14.3637 8.0575 13.3725 7.3875 11.87 7.5425C10.97 7.63625 10.145 8 9.73374 8.2075C9.65128 8.24932 9.5696 8.29266 9.48874 8.3375C9.60374 6.955 10.0375 4.37 11.6587 2.735C11.779 2.61361 11.9054 2.49845 12.0375 2.39C12.1032 2.37755 12.1652 2.35018 12.2187 2.31C13.1587 1.5975 14.3375 1.2475 15.7212 1.26875C16.2346 1.27709 16.7237 1.31084 17.1887 1.37C19.6137 1.81375 21.2437 3.17875 22.2337 4.34875C23.2512 5.55125 23.8025 6.7625 24.0225 7.41625C22.3687 7.24875 21.2437 7.575 20.6725 8.39125C19.4325 10.1638 21.3525 13.6063 22.275 15.2613C22.4437 15.5638 22.59 15.8263 22.6362 15.9363C22.9362 16.665 23.325 17.1513 23.6087 17.5063C23.6962 17.615 23.7812 17.72 23.845 17.8125C23.345 17.9575 22.445 18.2913 22.5262 19.9588C22.4952 20.2987 22.4602 20.6383 22.4212 20.9775C22.3637 21.2375 22.335 21.5525 22.2975 21.935ZM23.4087 19.9088C23.3587 18.8688 23.7462 18.76 24.155 18.6463L24.3237 18.595C24.3758 18.6426 24.4319 18.6856 24.4912 18.7238C25.2037 19.1938 26.47 19.25 28.25 18.8913C27.9975 19.1125 27.6012 19.3913 27.0587 19.6425C26.5462 19.88 25.6887 20.0588 24.875 20.0975C23.975 20.14 23.5175 19.9975 23.4087 19.9088ZM24.1212 8.32C24.1076 8.73969 24.0637 9.15786 23.99 9.57125C23.9212 10.0188 23.85 10.4813 23.8312 11.0425C23.8137 11.5875 23.8812 12.155 23.9475 12.705C24.0812 13.8138 24.2175 14.955 23.6887 16.0813C23.6019 15.9251 23.5234 15.7645 23.4537 15.6C23.3296 15.3371 23.194 15.0798 23.0475 14.8288C22.2775 13.4488 20.4762 10.2163 21.3975 8.89875C21.8725 8.22 23.075 8.19125 24.1212 8.32ZM24.4062 17.0863L24.3 16.9525L24.2562 16.8975C25.1637 15.3975 24.9862 13.9138 24.8275 12.5988C24.7625 12.0588 24.7025 11.5488 24.7175 11.0713C24.7337 10.5625 24.8 10.1275 24.865 9.70625C24.945 9.1875 25.0275 8.65125 25.0037 8.01875C25.0213 7.94089 25.0264 7.86071 25.0187 7.78125C24.9612 7.17375 24.2687 5.35875 22.8562 3.715C21.9357 2.63001 20.7889 1.75965 19.4962 1.165C20.3281 0.995394 21.1761 0.917429 22.025 0.932503C24.59 0.990003 26.6187 1.95 28.055 3.78625C28.0854 3.8262 28.1134 3.86794 28.1387 3.91125C29.0425 5.60625 27.795 11.755 24.4062 17.0863ZM13.385 9.44125C13.3537 9.66625 12.9975 9.97 12.6087 9.97L12.5075 9.9625C12.2538 9.91762 12.0272 9.77658 11.875 9.56875C11.8175 9.49375 11.725 9.34625 11.7425 9.2125C11.748 9.17514 11.7612 9.13932 11.7812 9.10727C11.8012 9.07523 11.8276 9.04765 11.8587 9.02625C12.0062 8.915 12.2987 8.87375 12.6212 8.91875C13.0162 8.97375 13.4237 9.16 13.3837 9.44125M23.2962 8.9275C23.31 9.0275 23.235 9.1775 23.105 9.315C22.9705 9.46176 22.7911 9.5598 22.595 9.59375L22.5012 9.6C22.135 9.6 21.825 9.3075 21.8012 9.13625C21.7712 8.915 22.1312 8.74875 22.5012 8.69625C22.8737 8.64375 23.2662 8.7075 23.2962 8.9275Z" fill="#C0A3CF"/>
</g>
<defs>
<clipPath id="clip0_75_326">
<rect width="30" height="30" fill="white"/>
</clipPath>
</defs>
</svg>
