<svg width="26" height="26" viewBox="0 0 26 26" fill="none" xmlns="http://www.w3.org/2000/svg">
<path d="M13.3301 7.34778H7.67786M7.67786 7.34778H5.76615C4.75251 7.34778 3.71501 7.58392 3.09076 8.38277C2.42505 9.23563 1.71161 10.6876 1.71161 13C1.71161 15.3112 2.42505 16.7644 3.09076 17.6173C3.71501 18.4161 4.75251 18.6523 5.76615 18.6523H7.67786M7.67786 7.34778V5.43607C7.67786 4.42244 7.914 3.38494 8.71285 2.76068C9.56571 2.09497 11.0177 1.38153 13.3301 1.38153C15.6412 1.38153 17.0945 2.09497 17.9474 2.76068C18.7462 3.38494 18.9823 4.42244 18.9823 5.43607V7.34778M13.3301 18.6523H18.9823M18.9823 18.6523H20.8928C21.9064 18.6523 22.9452 18.4161 23.5682 17.6173C24.2352 16.7644 24.9486 15.3124 24.9486 13C24.9486 10.6889 24.2352 9.23563 23.5695 8.38277C22.9452 7.58392 21.9064 7.34778 20.8941 7.34778H18.9823M18.9823 18.6523V20.5627C18.9823 21.5764 18.7462 22.6151 17.9474 23.2381C17.0945 23.9051 15.6425 24.6185 13.3301 24.6185C11.019 24.6185 9.56571 23.9051 8.71285 23.2394C7.914 22.6151 7.67786 21.5764 7.67786 20.564V18.6523M18.9823 7.34778V10.4879C18.9823 11.1542 18.7177 11.7931 18.2466 12.2642C17.7755 12.7354 17.1365 13 16.4702 13H10.19C9.52372 13 8.88475 13.2647 8.41364 13.7358C7.94253 14.2069 7.67786 14.8459 7.67786 15.5121V18.6523" stroke="#C0A3CF" stroke-width="1.5" stroke-linecap="round" stroke-linejoin="round"/>
<path d="M17.0983 21.1643C17.0983 21.4142 16.999 21.6538 16.8223 21.8305C16.6457 22.0071 16.4061 22.1064 16.1562 22.1064C15.9064 22.1064 15.6668 22.0071 15.4901 21.8305C15.3134 21.6538 15.2142 21.4142 15.2142 21.1643C15.2142 20.9145 15.3134 20.6749 15.4901 20.4982C15.6668 20.3216 15.9064 20.2223 16.1562 20.2223C16.4061 20.2223 16.6457 20.3216 16.8223 20.4982C16.999 20.6749 17.0983 20.9145 17.0983 21.1643ZM9.56194 4.83566C9.56194 4.58581 9.66119 4.3462 9.83785 4.16953C10.0145 3.99287 10.2541 3.89362 10.504 3.89362C10.7538 3.89362 10.9934 3.99287 11.1701 4.16953C11.3468 4.3462 11.446 4.58581 11.446 4.83566C11.446 5.0855 11.3468 5.32511 11.1701 5.50178C10.9934 5.67845 10.7538 5.7777 10.504 5.7777C10.2541 5.7777 10.0145 5.67845 9.83785 5.50178C9.66119 5.32511 9.56194 5.0855 9.56194 4.83566Z" fill="#C0A3CF"/>
</svg>
