<svg width="25" height="25" viewBox="0 0 25 25" fill="none" xmlns="http://www.w3.org/2000/svg">
<path d="M12.5052 0L5.15829 7.34687C4.19298 8.30242 3.42667 9.43985 2.9037 10.6934C2.38072 11.9469 2.11145 13.2917 2.11145 14.65C2.11145 16.0083 2.38072 17.3531 2.9037 18.6066C3.42667 19.8601 4.19298 20.9976 5.15829 21.9531C6.1139 22.9183 7.25135 23.6845 8.50489 24.2074C9.75843 24.7303 11.1032 24.9995 12.4614 24.9995C13.8196 24.9995 15.1644 24.7303 16.4179 24.2074C17.6715 23.6845 18.8089 22.9183 19.7645 21.9531C23.9145 17.8906 23.9166 11.3229 19.8531 7.34583L18.0364 9.16146C21.0614 12.1875 21.0614 17.1135 18.0364 20.1385C15.0114 23.1635 10.0843 23.1635 7.05933 20.1385C4.03433 17.1135 4.03433 12.1865 7.05933 9.16146L11.9 4.32188L12.5062 3.62917L12.5052 0ZM16.2218 4.06146C15.8552 4.06146 15.5036 4.20709 15.2444 4.46632C14.9852 4.72555 14.8395 5.07714 14.8395 5.44375C14.8394 5.62536 14.8751 5.80522 14.9445 5.97305C15.0139 6.14088 15.1157 6.29338 15.244 6.42185C15.3724 6.55032 15.5248 6.65223 15.6926 6.72176C15.8604 6.7913 16.0402 6.82708 16.2218 6.82708C16.4034 6.82708 16.5833 6.7913 16.751 6.72176C16.9188 6.65223 17.0713 6.55032 17.1996 6.42185C17.328 6.29338 17.4298 6.14088 17.4992 5.97305C17.5686 5.80522 17.6043 5.62536 17.6041 5.44375C17.6038 5.07732 17.4581 4.726 17.1989 4.467C16.9397 4.20799 16.5883 4.0625 16.2218 4.0625V4.06146Z" fill="#C0A3CF"/>
</svg>
