<svg width="30" height="30" viewBox="0 0 30 30" fill="none" xmlns="http://www.w3.org/2000/svg">
<path d="M13.8788 13.0475C13.4964 13.2683 13.1881 13.5975 12.9928 13.9935C12.7976 14.3895 12.7241 14.8345 12.7817 15.2722C12.8393 15.71 13.0255 16.1208 13.3166 16.4528C13.6077 16.7847 13.9907 17.0229 14.4171 17.1372C14.8436 17.2515 15.2944 17.2368 15.7125 17.0949C16.1306 16.9531 16.4972 16.6904 16.7661 16.3402C17.0349 15.9899 17.1939 15.5678 17.2228 15.1273C17.2518 14.6867 17.1494 14.2474 16.9288 13.865C16.7822 13.611 16.587 13.3884 16.3544 13.2099C16.1218 13.0313 15.8563 12.9004 15.5731 12.8245C15.2899 12.7485 14.9945 12.7292 14.7037 12.7674C14.413 12.8057 14.1327 12.9009 13.8788 13.0475ZM23.885 15.47C23.7383 15.3025 23.5838 15.1346 23.4213 14.9663C23.5346 14.8463 23.6446 14.7267 23.7513 14.6075C25.7575 12.3525 26.605 10.09 25.82 8.73125C25.0675 7.4275 22.8288 7.03875 20.025 7.58375C19.7492 7.63792 19.4746 7.69875 19.2013 7.76625C19.1488 7.58625 19.0933 7.40708 19.035 7.22875C18.0838 4.3625 16.5475 2.49875 14.9775 2.5C13.4725 2.5 12.0175 4.24625 11.0888 6.9475C10.9971 7.21417 10.9125 7.4825 10.835 7.7525C10.6525 7.7075 10.4692 7.66583 10.285 7.6275C7.3275 7.02125 4.94625 7.42125 4.1625 8.7825C3.41125 10.0863 4.19625 12.22 6.0725 14.3725C6.25917 14.585 6.45084 14.7933 6.6475 14.9975C6.415 15.2358 6.19625 15.4738 5.99125 15.7113C4.16 17.8338 3.42 19.9312 4.17 21.23C4.945 22.5725 7.2925 23.0113 10.1513 22.4488C10.3829 22.4029 10.6133 22.3512 10.8425 22.2938C10.9258 22.5863 11.0179 22.8767 11.1188 23.165C12.0438 25.8112 13.49 27.5 14.99 27.5C16.54 27.5 18.0925 25.6838 19.0338 22.9263C19.1079 22.7079 19.1783 22.4825 19.245 22.25C19.5408 22.3233 19.8388 22.3883 20.1388 22.445C22.8925 22.9662 25.0788 22.5575 25.8275 21.2575C26.6013 19.9138 25.8025 17.6613 23.885 15.47ZM5.0875 9.315C5.57 8.4775 7.51625 8.15 10.07 8.675C10.2333 8.70833 10.3996 8.74583 10.5688 8.7875C10.3192 9.89047 10.143 11.0088 10.0413 12.135C9.12056 12.7829 8.24249 13.4894 7.4125 14.25C7.23 14.0608 7.05209 13.8671 6.87875 13.6688C5.27 11.8263 4.635 10.1013 5.0875 9.315ZM9.94625 16.475C9.30875 15.9913 8.715 15.4963 8.17625 14.9988C8.71375 14.5038 9.3075 14.0113 9.945 13.5288C9.92167 14.0196 9.91042 14.5108 9.91125 15.0025C9.91125 15.4942 9.92292 15.985 9.94625 16.475ZM9.94625 21.4C8.86291 21.6424 7.74409 21.6822 6.64625 21.5175C6.34534 21.4937 6.05248 21.4085 5.78571 21.2673C5.51893 21.1261 5.28387 20.9317 5.095 20.6963C4.63875 19.9088 5.23375 18.2238 6.8 16.4088C6.99667 16.1813 7.2 15.9596 7.41 15.7438C8.24014 16.5093 9.11997 17.2192 10.0438 17.8688C10.1471 19.0092 10.325 20.1416 10.5763 21.2588C10.3679 21.3113 10.1575 21.3588 9.945 21.4013M18.82 11.3525C18.4008 11.0883 17.9767 10.8329 17.5475 10.5863C17.1242 10.3429 16.6963 10.1083 16.2638 9.8825C16.975 9.58275 17.7005 9.31785 18.4375 9.08875C18.6034 9.83633 18.7311 10.5919 18.82 11.3525ZM12.1 7.29375C12.895 4.98125 14.0725 3.56875 14.98 3.56875C15.9463 3.5675 17.2013 5.09125 18.0225 7.565C18.0758 7.72667 18.1258 7.88917 18.1725 8.0525C17.0944 8.38669 16.0397 8.79174 15.015 9.265C13.9939 8.78565 12.9415 8.37597 11.865 8.03875C11.9375 7.78875 12.0158 7.54042 12.1 7.29375ZM11.6 9.07375C12.3341 9.3041 13.0559 9.57195 13.7625 9.87625C12.8858 10.3279 12.0325 10.82 11.2025 11.3525C11.3025 10.555 11.4363 9.79125 11.6 9.07375ZM11.2038 18.6488C11.6179 18.9146 12.0383 19.17 12.465 19.415C12.9 19.665 13.3404 19.905 13.7863 20.135C13.0745 20.4496 12.3468 20.7271 11.6063 20.9663C11.4339 20.2013 11.2996 19.4283 11.2038 18.65M18.0238 22.5825C17.6921 23.6417 17.1675 24.6304 16.4763 25.4988C16.3056 25.7476 16.0858 25.959 15.8304 26.1198C15.575 26.2806 15.2895 26.3874 14.9913 26.4338C14.08 26.4338 12.9188 25.0775 12.1288 22.8137C12.0354 22.5462 11.9496 22.2763 11.8713 22.0038C12.9529 21.6553 14.0095 21.2335 15.0338 20.7413C16.0674 21.2178 17.1308 21.6265 18.2175 21.965C18.1575 22.1725 18.0929 22.3783 18.0238 22.5825ZM18.4763 20.9275C17.7292 20.6948 16.9942 20.4253 16.2738 20.12C16.6979 19.8975 17.125 19.6621 17.555 19.4138C17.9967 19.1588 18.4267 18.8975 18.845 18.63C18.7618 19.4017 18.6387 20.1685 18.4763 20.9275ZM19.035 14.9988C19.035 15.7579 19.0113 16.5163 18.9638 17.2738C18.3463 17.6921 17.6988 18.0971 17.0213 18.4888C16.3463 18.8779 15.6808 19.2346 15.025 19.5588C14.3358 19.2288 13.66 18.8729 12.9975 18.4913C12.3392 18.1121 11.6958 17.7083 11.0675 17.28C11.0092 16.5217 10.98 15.7625 10.98 15.0025C10.98 14.2433 11.0083 13.4846 11.065 12.7263C12.3211 11.8677 13.6408 11.1059 15.0125 10.4475C15.6925 10.7783 16.3604 11.1329 17.0163 11.5113C17.6746 11.8896 18.3204 12.2892 18.9538 12.71C19.0079 13.4717 19.035 14.2346 19.035 14.9988ZM20.23 8.6325C22.6325 8.16625 24.4425 8.48 24.8963 9.26625C25.38 10.1038 24.6875 11.9513 22.9538 13.8988C22.8579 14.0063 22.7588 14.1142 22.6563 14.2225C21.812 13.459 20.9166 12.754 19.9763 12.1125C19.8817 10.9987 19.7126 9.89244 19.47 8.80125C19.7283 8.73792 19.9817 8.68167 20.23 8.6325ZM20.0675 13.4888C20.7022 13.9515 21.3122 14.4472 21.895 14.9738C21.3148 15.5087 20.7069 16.0127 20.0738 16.4838C20.0929 15.9888 20.1025 15.4938 20.1025 14.9988C20.1025 14.4954 20.0908 13.9921 20.0675 13.4888ZM24.9038 20.725C24.4488 21.5138 22.6938 21.8425 20.3375 21.3975C20.0675 21.3467 19.7908 21.2858 19.5075 21.215C19.7444 20.1097 19.906 18.9897 19.9913 17.8625C20.9296 17.2098 21.8221 16.4936 22.6625 15.7188C22.81 15.8713 22.95 16.0229 23.0825 16.1738C23.8346 16.9901 24.4292 17.9386 24.8363 18.9713C24.9665 19.2435 25.0397 19.5395 25.0513 19.8411C25.0629 20.1427 25.0127 20.4435 24.9038 20.725Z" fill="#C0A3CF"/>
</svg>
