<svg width="25" height="25" viewBox="0 0 25 25" fill="none" xmlns="http://www.w3.org/2000/svg">
<mask id="mask0_75_276" style="mask-type:luminance" maskUnits="userSpaceOnUse" x="0" y="0" width="25" height="25">
<path d="M0 0H25V25H0V0Z" fill="white"/>
</mask>
<g mask="url(#mask0_75_276)">
<path d="M17.3229 17.2532C18.2448 17.1573 18.9448 16.3542 18.9136 15.3907C18.898 14.9275 18.7039 14.4884 18.3719 14.1651C18.0399 13.8419 17.5957 13.6595 17.1323 13.6563H17.0677C16.0813 13.6875 15.3177 14.523 15.349 15.5188C15.3823 16.0011 15.5729 16.4177 15.8594 16.7063C14.7771 18.8594 13.1229 20.4323 10.6406 21.749C8.95522 22.649 7.20522 22.9698 5.45626 22.7448C4.02397 22.5521 2.91043 21.9094 2.21043 20.85C1.19272 19.2771 1.09793 17.574 1.95626 15.8719C2.56043 14.6521 3.51564 13.7521 4.11981 13.3032C3.95596 12.7639 3.81796 12.2171 3.70626 11.6646C-0.907277 15.0375 -0.429152 19.598 0.968764 21.75C2.01876 23.3563 4.15001 24.3521 6.50522 24.3521C7.14817 24.3559 7.78913 24.2804 8.41356 24.1271C12.4865 23.325 15.5719 20.8834 17.3219 17.2542M22.9208 13.2719C20.5031 10.4136 16.9396 8.83962 12.8677 8.83962H12.3583C12.213 8.5507 11.9904 8.30771 11.7154 8.13762C11.4403 7.96754 11.1234 7.87701 10.8 7.87608H10.7354C9.75001 7.90837 8.98543 8.74379 9.01772 9.73962C9.04897 10.7032 9.8448 11.473 10.799 11.473H10.8636C11.1996 11.4557 11.524 11.3441 11.7996 11.1511C12.0752 10.958 12.2909 10.6912 12.4219 10.3813H12.9948C15.4125 10.3813 17.7031 11.0875 19.7708 12.4688C21.3615 13.5292 22.5073 14.9094 23.1427 16.5802C23.6844 17.9282 23.6531 19.2448 23.0802 20.3698C22.1886 22.0719 20.6938 23.0032 18.7208 23.0032C17.449 23.0032 16.2396 22.6177 15.6031 22.3282C15.1453 22.7368 14.6676 23.1227 14.1719 23.4844C15.5396 24.1271 16.9396 24.4802 18.2761 24.4802C21.3302 24.4802 23.5886 22.7782 24.4479 21.0761C25.3698 19.2136 25.3063 16.0021 22.9208 13.2719ZM6.76043 17.799C6.79168 18.7625 7.58751 19.5334 8.54168 19.5334H8.60522C9.59168 19.5021 10.3552 18.6667 10.324 17.6709C10.3084 17.2077 10.1143 16.7686 9.78227 16.4453C9.45027 16.1221 9.0061 15.9397 8.54272 15.9365H8.47814C8.40244 15.9305 8.32636 15.9412 8.25522 15.9677C6.95106 13.7844 6.41043 11.4084 6.60106 8.83858C6.72814 6.9115 7.3646 5.24171 8.47814 3.86046C9.40106 2.67296 11.1823 2.09483 12.3917 2.06254C15.7636 1.99796 17.1948 6.23754 17.2906 7.93962C17.7042 8.03546 18.4042 8.26046 18.8813 8.42087C18.499 3.21879 15.3188 0.520874 12.2636 0.520874C9.40106 0.520874 6.76043 2.60837 5.71043 5.69171C4.24689 9.80212 5.20106 13.7521 6.98335 16.8678C6.82397 17.0927 6.72814 17.4459 6.76043 17.799Z" fill="#C0A3CF"/>
</g>
</svg>
