<svg width="31" height="24" viewBox="0 0 31 24" fill="none" xmlns="http://www.w3.org/2000/svg">
<path d="M14.3374 17.7619C14.3089 17.8125 14.3231 17.79 14.3374 17.7619V17.7619ZM26.1711 13.6838C25.2157 13.6835 24.2731 13.9 23.4161 14.3166C23.1358 13.7588 22.8461 13.2713 22.7986 12.9057C22.7416 12.4791 22.6798 12.226 22.7463 11.7197C22.8128 11.2135 23.1121 10.4963 23.1073 10.4447C23.1026 10.3932 23.0408 10.1354 22.4281 10.1307C21.8153 10.126 21.2881 10.2479 21.2268 10.4072C21.1186 10.6985 21.0344 10.9979 20.975 11.3025C20.8658 11.851 19.75 13.8104 19.1183 14.8322C18.9093 14.4338 18.7335 14.0822 18.6955 13.801C18.6385 13.3744 18.5768 13.1213 18.6433 12.615C18.7098 12.1088 19.009 11.3916 19.0043 11.34C18.9995 11.2885 18.9378 11.0307 18.3255 11.026C17.7132 11.0213 17.1855 11.1432 17.1237 11.3025C17.062 11.4619 16.9955 11.8369 16.872 12.1979C16.7485 12.5588 15.2622 15.8213 14.8732 16.6697C14.6737 17.101 14.5027 17.4479 14.3792 17.6822C14.3602 17.7197 14.3459 17.7432 14.3364 17.7619C14.3507 17.7385 14.3602 17.715 14.3602 17.7244C14.2557 17.926 14.1939 18.0385 14.1939 18.0385V18.0432C14.1132 18.1932 14.0229 18.3291 13.9802 18.3291C13.9517 18.3291 13.8899 17.9354 13.9944 17.3963C14.2177 16.2619 14.7449 14.4994 14.7402 14.4385C14.7354 14.4057 14.8399 14.101 14.3934 13.9369C13.9612 13.7822 13.8044 14.04 13.7664 14.04C13.7284 14.04 13.6999 14.1338 13.6999 14.1338C13.6999 14.1338 14.1797 12.1463 12.7789 12.1463C11.9049 12.1463 10.6889 13.0932 10.0914 13.951C9.71611 14.1525 8.90386 14.5885 8.04886 15.0525C7.72111 15.2307 7.38386 15.4135 7.06561 15.5869C7.04186 15.5635 7.02286 15.54 6.99911 15.5166C5.29908 13.726 2.16028 12.4604 2.29328 10.0557C2.34078 9.17911 2.64953 6.87755 8.32911 4.0838C12.9841 1.7963 16.7057 2.42442 17.3465 3.8213C18.268 5.81348 15.3567 9.5213 10.5227 10.0557C8.68013 10.2572 7.71161 9.55411 7.46936 9.29161C7.21761 9.01505 7.17961 9.00098 7.08461 9.05255C6.92786 9.13692 7.02761 9.38067 7.08461 9.52598C7.22711 9.8963 7.82086 10.5525 8.83213 10.8807C9.72038 11.1666 11.8807 11.326 14.4927 10.3275C17.4273 9.21192 19.7115 6.10411 19.0418 3.50255C18.3597 0.858795 13.9175 -0.00839233 9.71706 1.46348C7.21428 2.34005 4.50773 3.71817 2.56071 5.51348C0.247933 7.65098 -0.122092 9.51192 0.0299083 10.29C0.570933 13.051 4.42698 14.851 5.97026 16.1822C5.89426 16.2244 5.82301 16.2619 5.75651 16.2994C4.98273 16.6791 2.04296 18.1979 1.30718 19.801C0.475933 21.6197 1.44493 22.9229 2.08096 23.101C4.06598 23.6447 6.09851 22.665 7.19053 21.0572C8.28256 19.4494 8.15003 17.3494 7.64653 16.3932C7.64178 16.3791 7.63228 16.3697 7.62753 16.3557C7.82703 16.2385 8.03128 16.1213 8.23553 16.0041C8.62931 15.7744 9.01406 15.5635 9.35131 15.3807C9.16131 15.8869 9.02356 16.4963 8.95231 17.3775C8.86681 18.4088 9.29906 19.7447 9.85956 20.2697C10.1066 20.4994 10.4053 20.5041 10.5906 20.5041C11.2461 20.5041 11.5406 19.9697 11.8679 19.3322C12.2716 18.5541 12.6279 17.6494 12.6279 17.6494C12.6279 17.6494 12.1814 20.0963 13.4021 20.0963C13.8481 20.0963 14.2946 19.5291 14.4946 19.2385V19.2432C14.4946 19.2432 14.5041 19.2244 14.5279 19.1869C14.5754 19.1166 14.5991 19.0744 14.5991 19.0744V19.0604C14.7796 18.7557 15.1739 18.0572 15.7671 16.9041C16.5366 15.4135 17.2724 13.5525 17.2724 13.5525C17.3435 13.9616 17.4419 14.3656 17.5669 14.7619C17.6999 15.2072 17.9802 15.6947 18.2034 16.1682C18.0229 16.4119 17.9137 16.5525 17.9137 16.5525C17.914 16.5562 17.9157 16.5595 17.9184 16.5619C17.7759 16.7494 17.6144 16.951 17.4482 17.1479C16.8406 17.8604 16.1182 18.676 16.0232 18.9104C15.9092 19.1869 15.9377 19.3932 16.1562 19.5525C16.3177 19.6744 16.6027 19.6932 16.9014 19.6697C17.4477 19.6322 17.8324 19.501 18.0177 19.4166C18.3592 19.2958 18.682 19.1285 18.9767 18.9197C19.5705 18.4885 19.9315 17.8697 19.8982 17.0541C19.8792 16.6041 19.732 16.1541 19.5515 15.7322C19.6037 15.6572 19.6607 15.5775 19.713 15.4979C20.653 14.1432 21.3797 12.6563 21.3797 12.6563C21.4508 13.0654 21.5492 13.4694 21.6742 13.8657C21.7882 14.2454 22.011 14.6625 22.2153 15.0704C21.3322 15.7782 20.786 16.5985 20.596 17.1375C20.2445 18.136 20.52 18.586 21.0377 18.6891C21.2705 18.736 21.603 18.6282 21.85 18.525C22.2168 18.4044 22.5627 18.229 22.8755 18.0047C23.4693 17.5735 24.0435 16.9688 24.0055 16.1485C23.9913 15.7782 23.8868 15.4079 23.749 15.0516C24.4948 14.7422 25.4633 14.5735 26.6983 14.7141C29.3431 15.0188 29.8609 16.65 29.7611 17.3297C29.6614 18.0094 29.1056 18.3891 28.9204 18.5016C28.7351 18.6141 28.6781 18.6563 28.6924 18.7407C28.7161 18.8625 28.8016 18.8579 28.9584 18.8297C29.1769 18.7922 30.3449 18.2766 30.3971 17.0157C30.4731 15.4219 28.9204 13.6688 26.1696 13.6829L26.1711 13.6838ZM5.78501 20.4666C4.91148 21.4088 3.68598 21.765 3.15921 21.465C2.59396 21.1407 2.81721 19.7541 3.89498 18.75C4.55048 18.1407 5.39551 17.5782 5.95601 17.2313C6.08426 17.1563 6.26951 17.0438 6.49751 16.9079C6.53551 16.8844 6.55451 16.875 6.55451 16.875C6.59726 16.8469 6.64476 16.8235 6.69226 16.7954C7.08603 18.2204 6.70651 19.4766 5.78501 20.4657V20.4666ZM12.1671 16.1822C11.8631 16.9182 11.2223 18.7932 10.8328 18.6947C10.5003 18.6104 10.2961 17.1807 10.7663 15.7744C11.0038 15.0666 11.5073 14.2229 11.8066 13.8947C12.2859 13.365 12.8131 13.1963 12.9366 13.4072C13.1029 13.6838 12.3571 15.7229 12.1671 16.1822ZM17.4396 18.6666C17.3114 18.7322 17.1926 18.7744 17.1356 18.7416C17.0929 18.7182 17.1879 18.6291 17.1879 18.6291C17.1879 18.6291 17.8481 17.9307 18.1094 17.6119C18.2614 17.4244 18.4371 17.2041 18.6266 16.9604C18.6266 16.9838 18.6314 17.0072 18.6314 17.0354C18.6252 17.8744 17.8087 18.4416 17.4382 18.6666H17.4396ZM21.5047 17.7525C21.4097 17.6869 21.4239 17.4666 21.7422 16.7822C21.8657 16.515 22.1502 16.065 22.6447 15.6338C22.7006 15.797 22.731 15.9678 22.7349 16.14C22.7302 17.1947 21.9654 17.5885 21.5051 17.7525H21.5047Z" fill="#C0A3CF"/>
</svg>
