<svg width="30" height="30" viewBox="0 0 30 30" fill="none" xmlns="http://www.w3.org/2000/svg">
<g clip-path="url(#clip0_75_382)">
<path d="M7.97807 15.3656C5.85229 13.2422 2.75854 12.8883 1.0687 14.5758C-0.621146 16.2656 -0.267239 19.357 1.85854 21.4805C3.98432 23.6062 8.04604 22.9898 8.76792 22.2703C9.35151 21.6867 10.1062 17.4891 7.97807 15.3656ZM24.3726 8.75624C21.4593 5.84531 16.1296 6.45468 12.4664 10.1156C8.80307 13.7766 9.86245 20.775 11.107 22.0172C12.1124 23.0227 19.3499 24.3187 23.0132 20.6578C23.2734 20.3976 23.5148 20.1305 23.7445 19.8539C23.7984 19.4883 23.9999 19.0289 24.3539 18.4711C24.1499 18.5766 23.9249 18.6492 23.6835 18.6914C23.5031 19.0219 23.2218 19.3781 22.8374 19.7601C22.3945 20.1797 22.0781 20.4539 21.8882 20.5805C21.6984 20.707 21.5156 20.7703 21.3421 20.7703C20.9062 20.7703 20.6999 20.3859 20.7257 19.6148C20.4492 20.0086 20.1937 20.3016 19.9617 20.4891C19.7273 20.6766 19.4882 20.7703 19.2374 20.7703C18.9867 20.7703 18.7874 20.6578 18.6187 20.4281C18.4851 20.25 18.4054 20.0367 18.3773 19.793C18.0421 20.1211 17.7374 20.3648 17.4679 20.5219C17.189 20.6859 16.882 20.768 16.5445 20.768C16.1695 20.768 15.8648 20.6484 15.6351 20.407C15.464 20.2289 15.3585 20.0109 15.314 19.7508V19.7555C14.939 20.1 14.6085 20.3555 14.3249 20.5195C14.0414 20.6836 13.7718 20.7656 13.514 20.7656C13.2187 20.7656 12.9796 20.6508 12.7992 20.4211C12.6187 20.1914 12.5273 19.8844 12.5273 19.4977C12.5273 18.9187 12.6539 18.2227 12.9046 17.4117C13.1554 16.6008 13.4601 15.8508 13.821 15.1664L14.8734 14.7773C14.9062 14.7656 14.932 14.7609 14.9484 14.7609C15.0281 14.7609 15.0937 14.8195 15.1453 14.9367C15.1968 15.0539 15.2226 15.2133 15.2226 15.4102C15.2226 15.9727 15.0937 16.5187 14.8335 17.0461C14.5734 17.5734 14.1679 18.1359 13.6148 18.7359C13.5937 19.0242 13.582 19.2211 13.582 19.3289C13.582 19.5703 13.6265 19.7602 13.7156 19.9008C13.8046 20.0414 13.9218 20.1117 14.0671 20.1117C14.2851 20.1117 14.3742 20.0578 14.5429 19.95C14.7093 19.8445 14.9601 19.6266 15.2953 19.2961C15.3304 18.7758 15.5296 18.2976 15.8976 17.8687C16.3031 17.3953 16.7531 17.1586 17.2476 17.1586C17.5054 17.1586 17.7093 17.2242 17.864 17.3578C18.0187 17.4914 18.096 17.6648 18.096 17.8805C18.096 18.4523 17.489 18.9164 16.2726 19.2727C16.3828 19.8117 16.671 20.0812 17.1374 20.0812C17.3203 20.0812 17.4937 20.032 17.6601 19.9336C17.8218 19.8375 18.0609 19.6312 18.3773 19.3125C18.4171 18.9984 18.5249 18.6937 18.7007 18.4031C18.9281 18.0281 19.221 17.7234 19.5773 17.4914C19.9335 17.2594 20.2476 17.1422 20.5218 17.1422C20.8664 17.1422 21.1101 17.3016 21.246 17.618L22.0921 17.1492H22.3242L21.9585 18.3633C21.771 18.9726 21.6773 19.3922 21.6773 19.6172C21.6773 19.8422 21.7617 19.9734 21.9304 19.9734C22.0382 19.9734 22.1554 19.9172 22.2867 19.8023C22.4109 19.6922 22.5867 19.5258 22.8093 19.3031C22.9968 19.1016 23.1703 18.8883 23.3249 18.6609C23.0859 18.5555 22.9687 18.4008 22.9687 18.1922C22.9687 17.9836 23.0414 17.7516 23.1867 17.5101C23.332 17.2687 23.5312 17.1492 23.7843 17.1492C23.9999 17.1492 24.1078 17.2594 24.1078 17.4797C24.1078 17.6531 24.0468 17.9016 23.9203 18.225C24.3796 18.1758 24.7804 17.8242 25.1226 17.1726L25.4062 17.1609C26.7304 14.1141 26.4421 10.8211 24.3703 8.74921L24.3726 8.75624ZM17.6765 15.6023C17.6343 15.668 17.5734 15.7172 17.4914 15.7523C17.4117 15.7875 17.3203 15.8062 17.2195 15.8062C17.0507 15.8062 16.9242 15.7711 16.8351 15.7008C16.746 15.6305 16.6898 15.5273 16.6664 15.3891L16.8843 15.3539C16.896 15.4406 16.9312 15.5086 16.9851 15.5531C17.0414 15.6 17.1187 15.6234 17.2195 15.6234C17.3203 15.6234 17.3953 15.6023 17.4445 15.5625C17.4937 15.5227 17.5171 15.4734 17.5171 15.4172C17.5171 15.368 17.496 15.3281 17.4515 15.3C17.421 15.2812 17.346 15.2555 17.2265 15.225C17.0648 15.1852 16.9546 15.15 16.8914 15.1195C16.8281 15.0891 16.7812 15.0492 16.7507 14.9953C16.7179 14.9437 16.7015 14.8852 16.7015 14.8219C16.7015 14.7633 16.7156 14.7117 16.7414 14.6625C16.7671 14.6133 16.8046 14.5734 16.8492 14.5406C16.8843 14.5148 16.9289 14.4937 16.9874 14.4773C17.046 14.4609 17.1093 14.4516 17.1773 14.4516C17.2781 14.4516 17.3671 14.4656 17.4445 14.4961C17.5218 14.5242 17.5781 14.5641 17.6156 14.6156C17.6531 14.6648 17.6765 14.7328 17.6906 14.8172L17.4749 14.8453C17.4656 14.7797 17.4374 14.7258 17.3906 14.6883C17.3437 14.6508 17.2781 14.632 17.1914 14.632C17.0906 14.632 17.0179 14.6484 16.9757 14.6812C16.9335 14.7141 16.9101 14.7539 16.9101 14.7984C16.9101 14.8266 16.9195 14.8523 16.9359 14.8758C16.9546 14.8992 16.9828 14.918 17.0203 14.9344C17.0414 14.9414 17.107 14.9601 17.2148 14.9906C17.3695 15.0328 17.4773 15.0656 17.5406 15.0914C17.6015 15.1172 17.6507 15.157 17.6859 15.2062C17.721 15.2555 17.7374 15.3187 17.7374 15.3937C17.7374 15.4687 17.7164 15.5367 17.6742 15.6L17.6765 15.6023ZM18.8812 15.6797C18.7851 15.7641 18.6656 15.8062 18.5226 15.8062C18.3445 15.8062 18.2039 15.7476 18.096 15.6328C17.9882 15.518 17.9343 15.3516 17.9343 15.1359C17.9343 14.9953 17.9578 14.8734 18.0046 14.768C18.0515 14.6625 18.1218 14.5852 18.2156 14.5312C18.3093 14.4797 18.4124 14.4516 18.5249 14.4516C18.6656 14.4516 18.7804 14.4867 18.8695 14.557C18.9585 14.6273 19.0171 14.7281 19.0406 14.8594L18.8273 14.8922C18.8062 14.8055 18.771 14.7398 18.7195 14.6953C18.6679 14.6508 18.6046 14.6297 18.532 14.6297C18.4218 14.6297 18.3328 14.6695 18.2624 14.7492C18.1921 14.8289 18.1593 14.9531 18.1593 15.1242C18.1593 15.2953 18.1921 15.4242 18.2601 15.5039C18.3257 15.5836 18.4148 15.6211 18.5203 15.6211C18.607 15.6211 18.6773 15.5953 18.7359 15.5414C18.7945 15.4898 18.8296 15.4078 18.846 15.2976L19.0617 15.3258C19.0382 15.4734 18.9773 15.5906 18.8812 15.675V15.6797ZM19.4718 15.7758H19.2515V14.482H19.4718V15.7758ZM19.4718 14.2406H19.2515V13.9875H19.4718V14.2406ZM20.6085 15.7758L20.1796 15.1148L20.0249 15.2625V15.7758H19.8046V13.9898H20.0249V15.0094L20.5453 14.482H20.8289L20.3343 14.9625L20.8804 15.7758H20.6085ZM21.2742 15.7758H21.0539V14.482H21.2742V15.7758ZM21.2742 14.2406H21.0539V13.9875H21.2742V14.2406ZM21.9539 15.7922C21.8742 15.7922 21.8132 15.7805 21.7687 15.7547C21.728 15.7331 21.6958 15.6984 21.6773 15.6562C21.6585 15.6141 21.6515 15.5297 21.6515 15.3984V14.6531H21.4898V14.482H21.6515V14.1609L21.8695 14.0297V14.482H22.0898V14.6531H21.8695V15.4102C21.8695 15.4734 21.8742 15.5133 21.8812 15.5297C21.8882 15.5484 21.9023 15.5625 21.9187 15.5719C21.9351 15.5836 21.9609 15.5883 21.9937 15.5883C22.0171 15.5883 22.0499 15.5859 22.0898 15.5789L22.1226 15.7734C22.0617 15.7875 22.0054 15.7922 21.9562 15.7922H21.9539ZM20.8499 17.6156C20.9179 17.7023 20.9531 17.8242 20.9531 17.9789C20.9531 18.3773 20.8312 18.8109 20.5874 19.282C20.3437 19.7531 20.0812 19.9875 19.807 19.9875C19.6945 19.9875 19.6007 19.9406 19.5281 19.8492C19.4554 19.7578 19.4179 19.6359 19.4179 19.4859C19.4179 19.0922 19.5421 18.6586 19.7882 18.1898C20.0343 17.7211 20.2968 17.4867 20.5734 17.4867C20.6882 17.4867 20.782 17.5289 20.8499 17.618V17.6156ZM17.3039 17.8922C17.3039 18.4289 16.9499 18.7945 16.2421 18.9937C16.2421 18.5484 16.3242 18.1875 16.4906 17.9109C16.657 17.632 16.8304 17.4937 17.0132 17.4937C17.2054 17.4937 17.3039 17.6273 17.3039 17.8922ZM14.9085 15.5812C14.9085 15.9305 14.8007 16.3453 14.5804 16.8305C14.3624 17.3133 14.0765 17.7516 13.7273 18.1406C13.9148 17.2242 14.107 16.5141 14.3015 16.0055C14.496 15.4969 14.646 15.2414 14.7468 15.2414C14.7937 15.2414 14.8335 15.2719 14.864 15.3351C14.8945 15.3961 14.9085 15.4805 14.9085 15.5812ZM30.0046 19.2844V19.7601C29.3671 20.4351 28.8187 20.7703 28.364 20.7703C28.1789 20.7703 28.0289 20.7047 27.9164 20.5758C27.8039 20.4469 27.7453 20.2711 27.7453 20.0531C27.7453 19.7578 27.8671 19.3055 28.1109 18.6984C28.2398 18.3727 28.3054 18.1641 28.3054 18.0773C28.3054 17.9906 28.2703 17.9437 28.2023 17.9437C28.1648 17.9437 28.1132 17.9625 28.0499 18.0023C27.9914 18.0398 27.9234 18.0961 27.846 18.1641C27.7781 18.2273 27.7007 18.3047 27.614 18.3961C27.539 18.4734 27.4593 18.5625 27.3749 18.6609L27.1429 18.9305C27.0398 19.0547 26.9765 19.1859 26.9531 19.3242C26.9109 19.5586 26.8851 19.7742 26.871 19.9711C26.8617 20.1164 26.8593 20.3133 26.8593 20.5641L25.9429 20.7797C25.9124 20.407 25.8984 20.1305 25.8984 19.9476C25.8984 19.8961 25.9007 19.8469 25.9031 19.7953C25.2281 20.4492 24.7054 20.7797 24.3374 20.7797C24.1687 20.7797 24.0257 20.7094 23.9109 20.5664C23.796 20.4234 23.7374 20.2477 23.7374 20.0391C23.7374 19.9805 23.7445 19.9195 23.7539 19.8562C24.457 19.0125 25.0148 18.1031 25.4203 17.168L25.514 17.1633L25.1296 18.2227C24.9703 18.6703 24.8648 18.975 24.8179 19.1367C24.771 19.2984 24.7476 19.4414 24.7476 19.5656C24.7476 19.6828 24.7757 19.7742 24.8273 19.8422C24.8812 19.9125 24.9539 19.9453 25.0453 19.9453C25.1437 19.9453 25.2398 19.9125 25.3312 19.8445C25.4226 19.7766 25.6265 19.5891 25.9429 19.2844C25.9687 19.0781 26.0062 18.8789 26.0578 18.6844C26.1609 18.2859 26.3273 17.8406 26.557 17.3414L27.5671 17.1469C27.3539 17.7187 27.2156 18.1687 27.1499 18.4969C27.6023 17.9906 27.9632 17.6414 28.2281 17.4469C28.4929 17.2523 28.7296 17.1562 28.9382 17.1562C29.0789 17.1562 29.196 17.2101 29.2898 17.3156C29.3835 17.4211 29.4304 17.5547 29.4304 17.7141C29.4304 17.9789 29.3109 18.4148 29.0742 19.0219C28.9101 19.4391 28.8304 19.7086 28.8304 19.8328C28.8304 19.9992 28.8984 20.0812 29.0343 20.0812C29.2359 20.0812 29.564 19.8141 30.014 19.282L30.0046 19.2844Z" fill="#C0A3CF"/>
</g>
<defs>
<clipPath id="clip0_75_382">
<rect width="30" height="30" fill="white"/>
</clipPath>
</defs>
</svg>
