<svg width="25" height="25" viewBox="0 0 25 25" fill="none" xmlns="http://www.w3.org/2000/svg">
<path d="M24.1396 3.6125L16.4146 12.2812C16.3922 12.3042 16.3655 12.3225 16.336 12.335C16.3065 12.3475 16.2748 12.3539 16.2427 12.3539C16.2106 12.3539 16.1789 12.3475 16.1494 12.335C16.1199 12.3225 16.0932 12.3042 16.0708 12.2812L12.1271 8.21875C12.0945 8.17673 12.0768 8.12506 12.0768 8.07187C12.0768 8.01869 12.0945 7.96702 12.1271 7.925L13.4083 6.25C13.4304 6.22026 13.4592 6.19611 13.4923 6.17947C13.5254 6.16283 13.5619 6.15416 13.599 6.15416C13.636 6.15416 13.6725 6.16283 13.7056 6.17947C13.7387 6.19611 13.7675 6.22026 13.7896 6.25L15.9833 8.69375C16.0056 8.71902 16.033 8.73926 16.0637 8.75312C16.0944 8.76699 16.1278 8.77416 16.1615 8.77416C16.1951 8.77416 16.2285 8.76699 16.2592 8.75312C16.2899 8.73926 16.3173 8.71902 16.3396 8.69375L22.5271 0.2625C22.5437 0.237728 22.5534 0.208995 22.5553 0.179228C22.5572 0.149462 22.5512 0.119725 22.5379 0.0930476C22.5245 0.0663698 22.5043 0.0437041 22.4794 0.0273591C22.4544 0.0110142 22.4256 0.00157392 22.3958 0L0.745825 0C0.697755 0 0.651653 0.0190959 0.617662 0.0530869C0.583671 0.0870779 0.564575 0.13318 0.564575 0.18125V24.8187C0.564575 24.8668 0.583671 24.9129 0.617662 24.9469C0.651653 24.9809 0.697755 25 0.745825 25H24.2521C24.3001 25 24.3462 24.9809 24.3802 24.9469C24.4142 24.9129 24.4333 24.8668 24.4333 24.8187V3.75C24.4391 3.71384 24.4329 3.67679 24.4157 3.64444C24.3986 3.61209 24.3714 3.5862 24.3382 3.57068C24.305 3.55516 24.2677 3.55084 24.2319 3.55839C24.1961 3.56593 24.1637 3.58492 24.1396 3.6125ZM7.22083 22.2562C5.67271 22.326 4.15869 21.7876 3.00208 20.7563C2.96601 20.7146 2.94616 20.6613 2.94616 20.6062C2.94616 20.5512 2.96601 20.4979 3.00208 20.4562L3.92083 19.1687C3.93974 19.1421 3.96409 19.1198 3.99227 19.1032C4.02044 19.0867 4.0518 19.0763 4.08428 19.0728C4.11675 19.0692 4.14961 19.0726 4.18069 19.0827C4.21177 19.0928 4.24036 19.1093 4.26458 19.1312C5.1039 19.9097 6.2073 20.3408 7.35208 20.3375C8.55833 20.3375 9.14583 19.7812 9.14583 19.1938C9.14583 17.3687 3.20833 18.6187 3.20833 14.7375C3.20833 13.0187 4.69583 11.6125 7.12083 11.6125C8.52237 11.5628 9.8945 12.0224 10.9833 12.9062C11.0229 12.9487 11.0449 13.0045 11.0449 13.0625C11.0449 13.1205 11.0229 13.1763 10.9833 13.2187L10.0396 14.4688C10.0208 14.4937 9.99721 14.5146 9.97012 14.5301C9.94303 14.5456 9.91306 14.5554 9.88204 14.5589C9.85102 14.5625 9.81961 14.5596 9.78974 14.5505C9.75987 14.5415 9.73217 14.5264 9.70833 14.5062C8.90772 13.8688 7.91295 13.5247 6.88958 13.5312C5.94583 13.5312 5.42083 13.95 5.42083 14.5687C5.42083 16.2062 11.3458 15.1125 11.3458 18.9438C11.3521 20.8313 10.0083 22.2562 7.22083 22.2562ZM20.1771 18.6812C20.1774 18.7076 20.1724 18.7337 20.1624 18.7581C20.1525 18.7825 20.1377 18.8047 20.1191 18.8233C20.1005 18.8419 20.0783 18.8566 20.0539 18.8666C20.0296 18.8765 20.0034 18.8815 19.9771 18.8812H14.5583C14.5496 18.8812 14.5409 18.883 14.5329 18.8865C14.5249 18.8901 14.5177 18.8952 14.5118 18.9017C14.5059 18.9082 14.5014 18.9158 14.4987 18.9242C14.4959 18.9325 14.495 18.9413 14.4958 18.95C14.5844 19.456 14.858 19.911 15.2635 20.2264C15.669 20.5417 16.1773 20.695 16.6896 20.6562C17.3627 20.6384 18.0154 20.4209 18.5646 20.0312C18.5859 20.0142 18.6106 20.0017 18.6369 19.9947C18.6633 19.9876 18.6909 19.9861 18.7179 19.9902C18.7449 19.9943 18.7708 20.004 18.7939 20.0186C18.817 20.0332 18.8368 20.0524 18.8521 20.075L19.5146 21.0437C19.5425 21.0869 19.5535 21.1389 19.5454 21.1896C19.5373 21.2404 19.5108 21.2864 19.4708 21.3187C18.5976 21.9551 17.5384 22.2847 16.4583 22.2562C15.9182 22.2863 15.3777 22.2031 14.8716 22.012C14.3655 21.8209 13.9049 21.5261 13.5194 21.1465C13.134 20.7669 12.8321 20.3109 12.6332 19.8078C12.4343 19.3047 12.3428 18.7656 12.3646 18.225C12.3493 17.6976 12.4411 17.1726 12.6346 16.6818C12.8281 16.1909 13.1191 15.7444 13.4901 15.3693C13.8612 14.9942 14.3044 14.6983 14.7931 14.4994C15.2818 14.3006 15.8058 14.203 16.3333 14.2125C18.6208 14.2125 20.1708 15.925 20.1708 18.4312L20.1771 18.6812ZM16.3396 15.8187C15.8803 15.8054 15.4327 15.9649 15.0854 16.2659C14.7382 16.5668 14.5166 16.9872 14.4646 17.4438C14.4637 17.4525 14.4647 17.4613 14.4674 17.4696C14.4702 17.4779 14.4746 17.4856 14.4805 17.492C14.4864 17.4985 14.4936 17.5037 14.5016 17.5072C14.5096 17.5107 14.5183 17.5125 14.5271 17.5125H18.1646C18.1733 17.5125 18.182 17.5107 18.19 17.5072C18.1981 17.5037 18.2052 17.4985 18.2111 17.492C18.217 17.4856 18.2215 17.4779 18.2242 17.4696C18.227 17.4613 18.228 17.4525 18.2271 17.4438C18.1898 16.9789 17.9707 16.5476 17.6173 16.2433C17.2639 15.9391 16.8048 15.7865 16.3396 15.8187Z" fill="#C0A3CF"/>
</svg>
