<svg width="87" height="50" viewBox="0 0 87 50" fill="none" xmlns="http://www.w3.org/2000/svg">
    <path d="M80.2193 12.2978C80.7429 13.7364 80.3958 15.4992 79.1475 17.5189C77.9029 19.5326 75.8062 21.7244 72.9948 23.9574C67.3763 28.42 58.9947 32.9751 49.181 36.547C39.3672 40.1189 30.0186 42.0171 22.8461 42.21C19.2571 42.3066 16.2421 41.9752 13.9943 41.2327C11.7398 40.488 10.3408 39.3607 9.81721 37.9221C9.2936 36.4834 9.64064 34.7206 10.889 32.701C12.1336 30.6873 14.2303 28.4955 17.0417 26.2625C22.6601 21.7999 31.0418 17.2448 40.8555 13.6729C50.6692 10.101 60.0179 8.20281 67.1904 8.00985C70.7793 7.9133 73.7944 8.24464 76.0422 8.98715C78.2967 9.73189 79.6956 10.8592 80.2193 12.2978Z" stroke="#C0A3CF"/>
    <path d="M75.2457 37.8121C74.7158 39.2678 73.3094 40.409 71.0509 41.1663C68.7985 41.9215 65.7794 42.2645 62.1871 42.1778C55.0079 42.0046 45.6552 40.1188 35.8419 36.547C26.0285 32.9752 17.6518 28.4081 12.0409 23.9261C9.23331 21.6834 7.14097 19.48 5.90098 17.4537C4.65762 15.4218 4.3138 13.6435 4.84362 12.1879C5.37344 10.7322 6.77986 9.591 9.0384 8.8337C11.2908 8.07845 14.3099 7.7355 17.9022 7.82218C25.0814 7.99542 34.434 9.88121 44.2474 13.453C54.0608 17.0248 62.4375 21.5919 68.0484 26.0739C70.856 28.3166 72.9483 30.52 74.1883 32.5463C75.4317 34.5782 75.7755 36.3565 75.2457 37.8121Z" stroke="#C0A3CF"/>
    <g clip-path="url(#clip0_73_41)">
        <rect width="12.2452" height="12.2452" transform="translate(74 4)" fill="white"/>
        <path d="M80.1226 11.2132C80.7249 11.2132 81.2132 10.7249 81.2132 10.1226C81.2132 9.52029 80.7249 9.03202 80.1226 9.03202C79.5203 9.03202 79.032 9.52029 79.032 10.1226C79.032 10.7249 79.5203 11.2132 80.1226 11.2132Z" fill="#61DAFB"/>
        <path d="M84.2649 8.32409C84.0544 8.24756 83.8344 8.17103 83.6048 8.10406C83.6622 7.87446 83.71 7.64486 83.7483 7.42483C83.9492 6.16205 83.7292 5.27235 83.1169 4.92796C82.9352 4.82273 82.7343 4.77489 82.5047 4.77489C81.835 4.77489 80.9836 5.27235 80.1226 6.10465C79.2616 5.27235 78.4102 4.77489 77.7405 4.77489C77.5109 4.77489 77.31 4.82273 77.1282 4.92796C76.516 5.28192 76.296 6.17161 76.4969 7.42483C76.5351 7.64486 76.583 7.87446 76.6404 8.10406C76.4108 8.17103 76.1907 8.23799 75.9803 8.32409C74.7844 8.78329 74.1339 9.41468 74.1339 10.1226C74.1339 10.8305 74.794 11.4619 75.9803 11.9211C76.1907 11.9977 76.4108 12.0742 76.6404 12.1412C76.583 12.3707 76.5351 12.6003 76.4969 12.8204C76.296 14.0832 76.516 14.9729 77.1282 15.3173C77.31 15.4225 77.5109 15.4703 77.7405 15.4703C78.4197 15.4703 79.2712 14.9729 80.1226 14.1406C80.9836 14.9729 81.835 15.4703 82.5047 15.4703C82.7343 15.4703 82.9352 15.4225 83.1169 15.3173C83.7292 14.9633 83.9492 14.0736 83.7483 12.8204C83.71 12.6003 83.6622 12.3707 83.6048 12.1412C83.8344 12.0742 84.0544 12.0072 84.2649 11.9211C85.4607 11.4619 86.1113 10.8305 86.1113 10.1226C86.1113 9.41468 85.4607 8.78329 84.2649 8.32409ZM82.8491 5.40629C83.2413 5.63588 83.3752 6.34381 83.2126 7.3483C83.1839 7.5492 83.1361 7.75966 83.0787 7.97969C82.5812 7.86489 82.055 7.78836 81.5002 7.74053C81.1749 7.28133 80.8401 6.86997 80.5052 6.49688C81.2132 5.79852 81.9307 5.32019 82.5142 5.32019C82.6386 5.32019 82.7534 5.34889 82.8491 5.40629ZM81.7776 11.0793C81.6054 11.3854 81.4045 11.6915 81.194 11.9977C80.8401 12.0264 80.4861 12.0359 80.1226 12.0359C79.7495 12.0359 79.3955 12.0264 79.0511 11.9977C78.8407 11.6915 78.6493 11.3854 78.4771 11.0793C78.2954 10.7636 78.1232 10.4383 77.9701 10.1226C78.1232 9.80691 78.2954 9.48164 78.4771 9.16595C78.6493 8.85982 78.8502 8.55369 79.0607 8.24756C79.4147 8.21886 79.7686 8.20929 80.1321 8.20929C80.5052 8.20929 80.8592 8.21886 81.2036 8.24756C81.4141 8.55369 81.6054 8.85982 81.7776 9.16595C81.9594 9.48164 82.1316 9.80691 82.2846 10.1226C82.122 10.4383 81.9594 10.754 81.7776 11.0793ZM82.5716 10.7636C82.7151 11.0984 82.8299 11.4237 82.9352 11.7489C82.6099 11.8255 82.2655 11.8829 81.902 11.9307C82.0168 11.7489 82.1411 11.5576 82.2464 11.3567C82.3612 11.1558 82.4664 10.9549 82.5716 10.7636ZM80.1226 13.3561C79.893 13.1074 79.673 12.8395 79.4625 12.5621C79.6825 12.5716 79.9026 12.5812 80.1226 12.5812C80.3426 12.5812 80.5626 12.5716 80.7827 12.5621C80.5722 12.8395 80.3522 13.1074 80.1226 13.3561ZM78.3432 11.9211C77.9797 11.8733 77.6353 11.8159 77.31 11.7394C77.4152 11.4237 77.53 11.0888 77.6735 10.754C77.7788 10.9453 77.884 11.1462 77.9988 11.3376C78.1136 11.548 78.2284 11.7298 78.3432 11.9211ZM77.6735 9.48164C77.53 9.14681 77.4152 8.82155 77.31 8.49629C77.6353 8.41976 77.9797 8.36236 78.3432 8.31452C78.2284 8.49629 78.104 8.68762 77.9988 8.88852C77.884 9.08942 77.7788 9.29031 77.6735 9.48164ZM80.1226 6.8891C80.3522 7.13784 80.5722 7.4057 80.7827 7.68313C80.5626 7.67356 80.3426 7.664 80.1226 7.664C79.9026 7.664 79.6825 7.67356 79.4625 7.68313C79.673 7.4057 79.893 7.13784 80.1226 6.8891ZM82.2464 8.89808L81.902 8.32409C82.2655 8.37192 82.6099 8.42932 82.9352 8.50585C82.8299 8.82155 82.7151 9.15638 82.5716 9.49121C82.4664 9.29031 82.3612 9.08942 82.2464 8.89808ZM77.0326 7.3483C76.8699 6.34381 77.0039 5.63588 77.3961 5.40629C77.4918 5.34889 77.6066 5.32019 77.7309 5.32019C78.3049 5.32019 79.0224 5.78895 79.7399 6.49688C79.4051 6.8604 79.0703 7.28133 78.745 7.74053C78.1901 7.78836 77.664 7.87446 77.1665 7.97969C77.1091 7.75966 77.0708 7.5492 77.0326 7.3483ZM74.6696 10.1226C74.6696 9.67298 75.2149 9.19465 76.1716 8.84068C76.3629 8.76415 76.5734 8.69719 76.7839 8.63979C76.9369 9.11811 77.1282 9.62514 77.3578 10.1322C77.1282 10.6392 76.9273 11.1367 76.7839 11.615C75.4637 11.2323 74.6696 10.6583 74.6696 10.1226ZM77.3961 14.8389C77.0039 14.6093 76.8699 13.9014 77.0326 12.8969C77.0613 12.696 77.1091 12.4855 77.1665 12.2655C77.664 12.3803 78.1901 12.4568 78.745 12.5047C79.0703 12.9639 79.4051 13.3752 79.7399 13.7483C79.032 14.4467 78.3145 14.925 77.7309 14.925C77.6066 14.925 77.4918 14.8963 77.3961 14.8389ZM83.2126 12.8969C83.3752 13.9014 83.2413 14.6093 82.8491 14.8389C82.7534 14.8963 82.6386 14.925 82.5142 14.925C81.9402 14.925 81.2227 14.4563 80.5052 13.7483C80.8401 13.3848 81.1749 12.9639 81.5002 12.5047C82.055 12.4568 82.5812 12.3707 83.0787 12.2655C83.1361 12.4855 83.1743 12.696 83.2126 12.8969ZM84.0736 11.4045C83.8822 11.4811 83.6718 11.548 83.4613 11.6054C83.3083 11.1271 83.1169 10.6201 82.8873 10.113C83.1169 9.60601 83.3178 9.10855 83.4613 8.63022C84.7815 9.01288 85.5755 9.58688 85.5755 10.1226C85.5755 10.5722 85.0207 11.0506 84.0736 11.4045Z" fill="#61DAFB"/>
    </g>
    <rect width="12.2452" height="12.2452" transform="translate(52 15)" fill="white"/>
    <path d="M62.3089 23.3635C61.0492 25.0416 58.3594 24.4752 56.6343 24.5564C56.6343 24.5564 56.3287 24.5737 56.0215 24.6242C56.0215 24.6242 56.1379 24.5747 56.2863 24.5232C57.4976 24.1043 58.0701 24.0201 58.8063 23.6421C60.189 22.9339 61.5656 21.3905 61.8457 19.7874C61.3191 21.3292 59.7181 22.6563 58.2604 23.1951C57.2629 23.5635 55.4583 23.9217 55.4578 23.9217L55.3848 23.8829C54.1577 23.2859 54.122 20.6277 56.3511 19.771C57.3287 19.3955 58.2629 19.6016 59.3196 19.3501C60.4461 19.0822 61.7513 18.2378 62.2814 17.1337C62.8758 18.8981 63.5901 21.6573 62.3089 23.3635ZM62.3304 16.5878C62.1879 16.9295 62.0055 17.2532 61.787 17.5521C61.3121 17.0626 60.7437 16.6734 60.1156 16.4078C59.4874 16.1421 58.8123 16.0054 58.1303 16.0056C55.3123 16.0056 53.0204 18.2975 53.0204 21.115C53.02 21.8178 53.1651 22.513 53.4465 23.157C53.728 23.801 54.1396 24.3798 54.6557 24.8569L54.7679 24.9559C54.6861 24.8739 54.6402 24.7628 54.6403 24.647C54.6403 24.5312 54.6864 24.4202 54.7683 24.3383C54.8502 24.2565 54.9613 24.2105 55.0771 24.2105C55.1929 24.2106 55.304 24.2566 55.3858 24.3385C55.4677 24.4204 55.5137 24.5314 55.5138 24.6472C55.5138 24.763 55.4678 24.8741 55.386 24.956C55.3041 25.0379 55.1931 25.084 55.0773 25.084C54.9615 25.0841 54.8504 25.0382 54.7685 24.9564L54.8445 25.0237C55.7631 25.8003 56.9274 26.2259 58.1303 26.2248C60.8232 26.2248 63.035 24.1288 63.2243 21.4838C63.3641 20.1884 62.9814 18.5435 62.3304 16.5878Z" fill="#14AE0F"/>
    <g clip-path="url(#clip1_73_41)">
        <rect width="12.2452" height="12.2452" transform="translate(19.5923 15.0172)" fill="white"/>
        <path d="M25.6566 16.1889C25.2527 16.1908 24.8672 16.2252 24.5278 16.2852C23.5281 16.4618 23.3467 16.8315 23.3467 17.5133V18.4136H25.709V18.7137H22.4601C21.7736 18.7137 21.1724 19.1263 20.9843 19.9115C20.7674 20.8113 20.7578 21.3728 20.9843 22.3124C21.1522 23.0118 21.5533 23.51 22.2398 23.51H23.0521V22.4307C23.0521 21.6509 23.7267 20.9632 24.5279 20.9632H26.8875C27.5443 20.9632 28.0686 20.4223 28.0686 19.7628V17.5134C28.0686 16.8731 27.5284 16.3922 26.8875 16.2853C26.4815 16.2178 26.0604 16.1871 25.6566 16.1889ZM24.3791 16.913C24.6231 16.913 24.8224 17.1155 24.8224 17.3646C24.8224 17.6127 24.6232 17.8133 24.3791 17.8133C24.1342 17.8133 23.9359 17.6127 23.9359 17.3646C23.9358 17.1155 24.1342 16.913 24.3791 16.913Z" fill="url(#paint0_linear_73_41)"/>
        <path d="M28.3631 18.7137V19.7628C28.3631 20.5759 27.6735 21.2604 26.8874 21.2604H24.5278C23.8815 21.2604 23.3467 21.8137 23.3467 22.4609V24.7105C23.3467 25.3506 23.9033 25.7273 24.5278 25.9108C25.2755 26.1306 25.9926 26.1704 26.8874 25.9108C27.482 25.7385 28.0685 25.392 28.0685 24.7105V23.8101H25.709V23.5099H29.2497C29.9362 23.5099 30.1922 23.0311 30.431 22.3123C30.6776 21.5723 30.667 20.8606 30.431 19.9115C30.2613 19.2279 29.9373 18.7136 29.2497 18.7136L28.3631 18.7137ZM27.0359 24.4103C27.2809 24.4103 27.4792 24.6109 27.4792 24.8592C27.4792 25.1081 27.2808 25.3106 27.0359 25.3106C26.792 25.3106 26.5927 25.1081 26.5927 24.8592C26.5927 24.6109 26.792 24.4103 27.0359 24.4103Z" fill="url(#paint1_linear_73_41)"/>
        <path opacity="0.444" d="M28.9014 26.4585C28.9014 26.7975 27.484 27.0723 25.7357 27.0723C23.9873 27.0723 22.5699 26.7975 22.5699 26.4585C22.5699 26.1196 23.9872 25.8446 25.7357 25.8446C27.484 25.8446 28.9014 26.1194 28.9014 26.4585Z" fill="url(#paint2_radial_73_41)"/>
    </g>
    <g clip-path="url(#clip2_73_41)">
    <rect width="11.4289" height="11.4289" transform="translate(20.4087 1.1393)" fill="white"/>
        <path d="M24.6603 9.90024C24.6603 9.90024 24.2347 10.1479 24.9636 10.2315C25.8469 10.3324 26.2982 10.3179 27.2713 10.134C27.2713 10.134 27.5276 10.2943 27.885 10.4332C25.7029 11.368 22.9466 10.379 24.6603 9.90024ZM24.3935 8.68012C24.3935 8.68012 23.916 9.03361 24.6456 9.10915C25.5891 9.20656 26.334 9.21451 27.6237 8.96628C27.6237 8.96628 27.8017 9.14709 28.0819 9.24585C25.4442 10.0173 22.5063 9.30656 24.3935 8.68012Z" fill="#0074BD"/>
        <path d="M26.6412 6.61007C27.1791 7.22928 26.5001 7.78599 26.5001 7.78599C26.5001 7.78599 27.8652 7.08142 27.2384 6.19872C26.6528 5.37593 26.2038 4.96726 28.6344 3.55758C28.6344 3.55767 24.8191 4.51028 26.6412 6.61007Z" fill="#EA2D2E"/>
        <path d="M29.527 10.8028C29.527 10.8028 29.8421 11.0627 29.1799 11.2635C27.9207 11.6449 23.9381 11.7599 22.832 11.2788C22.4346 11.1057 23.1802 10.8658 23.4147 10.8152C23.6593 10.7622 23.7989 10.7719 23.7989 10.7719C23.3567 10.4605 20.9406 11.3835 22.5719 11.6482C27.0203 12.3693 30.6807 11.3235 29.527 10.8028ZM24.8652 7.41571C24.8652 7.41571 22.8396 7.89688 24.148 8.0718C24.7005 8.14573 25.8014 8.12876 26.8276 8.04269C27.666 7.97224 28.5074 7.82179 28.5074 7.82179C28.5074 7.82179 28.212 7.94849 27.9981 8.09439C25.9407 8.63556 21.9672 8.3835 23.1112 7.83027C24.0784 7.36249 24.8652 7.41571 24.8652 7.41571ZM28.499 9.44674C30.5902 8.36038 29.6232 7.31633 28.9483 7.45696C28.7833 7.49134 28.7092 7.52125 28.7092 7.52125C28.7092 7.52125 28.7707 7.42491 28.8878 7.38348C30.2229 6.91427 31.2496 8.76771 28.4572 9.50183C28.4572 9.50166 28.4892 9.47264 28.499 9.44674Z" fill="#0074BD"/>
        <path d="M27.2384 1.281C27.2384 1.281 28.3963 2.4396 26.1399 4.22063C24.3304 5.64977 25.7273 6.46444 26.1393 7.39562C25.0829 6.44265 24.3081 5.60361 24.8278 4.82279C25.5911 3.67687 27.7055 3.12105 27.2384 1.281Z" fill="#EA2D2E"/>
        <path d="M25.0708 12.3915C27.0776 12.5198 30.1602 12.32 30.2331 11.3704C30.2331 11.3704 30.0929 11.7304 28.5744 12.016C26.8614 12.3385 24.7481 12.3009 23.4951 12.094C23.4951 12.0941 23.7518 12.3066 25.0708 12.3915Z" fill="#0074BD"/>
    </g>
    <g clip-path="url(#clip3_73_41)">
    <rect width="11.4289" height="11.4289" transform="translate(5 33)" fill="white"/>
        <path d="M13.376 41.2245C13.4461 40.6412 13.4251 40.5555 13.8596 40.6501L13.9699 40.6597C14.304 40.6749 14.7411 40.606 14.9979 40.4867C15.5506 40.2302 15.8783 39.802 15.3334 39.9145C14.0901 40.171 14.0047 39.75 14.0047 39.75C15.3175 37.8022 15.8663 35.3295 15.3925 34.7242C14.1005 33.0734 11.8641 33.854 11.8267 33.8742L11.8147 33.8765C11.5691 33.8255 11.2942 33.795 10.9853 33.79C10.4227 33.7807 9.99585 33.9375 9.672 34.1831C9.672 34.1831 5.68235 32.5394 5.86798 36.2502C5.90744 37.0396 6.99943 42.2234 8.30197 40.6576C8.77805 40.0851 9.23806 39.601 9.23806 39.601C9.46646 39.7527 9.74004 39.8302 10.0268 39.8023L10.0491 39.7834C10.0421 39.8545 10.0451 39.924 10.0579 40.0063C9.72245 40.3813 9.82102 40.4471 9.1502 40.5851C8.47144 40.7249 8.8702 40.974 9.13047 41.039C9.4461 41.118 10.1762 41.2298 10.6696 40.5392L10.65 40.618C10.7816 40.7233 10.7727 41.3749 10.7913 41.8403C10.81 42.3059 10.8411 42.7402 10.9361 42.9964C11.031 43.2526 11.1429 43.9122 12.0246 43.7232C12.7614 43.5657 13.3247 43.3385 13.376 41.2245Z" fill="black"/>
        <path d="M11.7375 44.1839C11.3476 44.1839 11.0936 44.033 10.9394 43.8874C10.7067 43.6678 10.6143 43.3848 10.5591 43.2158L10.5353 43.1453C10.4242 42.8454 10.3866 42.4137 10.3642 41.8578C10.3608 41.7743 10.3585 41.6883 10.3559 41.5972C10.3541 41.5305 10.3517 41.4468 10.3483 41.3593C10.2079 41.4263 10.0588 41.4734 9.90529 41.4993C9.63038 41.5463 9.33483 41.5311 9.0267 41.4541C8.80928 41.3997 8.58338 41.287 8.45463 41.113C8.07935 41.4416 7.7214 41.3971 7.52639 41.332C7.18237 41.2173 6.8745 40.8948 6.58512 40.3465C6.37895 39.9559 6.17957 39.447 5.99243 38.8337C5.66653 37.7658 5.45947 36.6411 5.44107 36.2718C5.38321 35.1159 5.69438 34.2893 6.36574 33.8151C7.42478 33.0671 9.02938 33.507 9.61439 33.7067C10.0074 33.4698 10.4699 33.3546 10.9924 33.3629C11.273 33.3674 11.5402 33.3921 11.7885 33.4364C12.0474 33.3549 12.5588 33.238 13.1443 33.2454C14.223 33.2582 15.1169 33.6786 15.7291 34.461C16.1661 35.0192 15.95 36.1915 15.7824 36.8406C15.5465 37.7537 15.1332 38.7248 14.6255 39.5702C14.7634 39.5712 14.9631 39.5546 15.247 39.496C15.8072 39.3803 15.9711 39.6807 16.0155 39.8152C16.1937 40.3547 15.4194 40.7623 15.1778 40.8745C14.8684 41.0182 14.3638 41.1057 13.9506 41.0867L13.9325 41.0856L13.824 41.076L13.8132 41.1665L13.8029 41.255C13.7751 42.3264 13.6221 43.0049 13.3072 43.4532C12.9771 43.9232 12.5183 44.0549 12.1142 44.1415C11.9763 44.171 11.8511 44.1839 11.7375 44.1839ZM10.9169 40.2846C11.1686 40.486 11.1907 40.865 11.2104 41.5733C11.2129 41.6617 11.2152 41.7454 11.2184 41.8235C11.2278 42.0601 11.2501 42.6142 11.3368 42.8483C11.3491 42.8814 11.3601 42.915 11.3717 42.9506C11.4684 43.2467 11.5169 43.3952 11.935 43.3058C12.286 43.2305 12.4664 43.163 12.6077 42.962C12.813 42.6696 12.9278 42.0816 12.9489 41.2141L13.3759 41.2245L12.9518 41.1736L12.9643 41.0677C13.0049 40.7186 13.0342 40.4664 13.2675 40.2997C13.4548 40.1659 13.6681 40.1788 13.838 40.2095C13.6513 40.0684 13.5997 39.9029 13.5859 39.8351L13.5503 39.6596L13.6504 39.5111C14.2269 38.6558 14.7023 37.6045 14.9548 36.6268C15.2143 35.6222 15.1352 35.0887 15.056 34.9878C14.0088 33.6497 12.1928 34.2022 12.0031 34.2649L11.9711 34.2822L11.8103 34.3121L11.728 34.295C11.501 34.2479 11.2489 34.2218 10.9786 34.2174C10.554 34.2103 10.2114 34.3107 9.93047 34.5238L9.73556 34.6716L9.50939 34.5784C9.02616 34.3808 7.60684 33.9836 6.85789 34.5141C6.44217 34.8085 6.25279 35.3855 6.29493 36.229C6.30886 36.5075 6.49806 37.5617 6.81021 38.5842C7.24156 39.9971 7.63354 40.4665 7.7972 40.5211C7.82578 40.5307 7.89989 40.4731 7.97364 40.3846C8.28116 40.0159 8.59958 39.6565 8.92848 39.3069L9.17581 39.0466L9.47484 39.2452C9.59537 39.3253 9.72832 39.3708 9.86485 39.3794L10.578 38.7711L10.4747 39.8254C10.4724 39.8491 10.4712 39.8813 10.4805 39.9412L10.5116 40.141L10.3767 40.2917L10.3612 40.3092L10.753 40.49L10.9169 40.2846Z" fill="black"/>
        <path d="M15.3334 39.9145C14.0901 40.171 14.0046 39.75 14.0046 39.75C15.3174 37.8021 15.8662 35.3293 15.3926 34.7242C14.1006 33.0735 11.864 33.8541 11.8267 33.8744L11.8147 33.8765C11.569 33.8256 11.2941 33.7952 10.9851 33.7902C10.4225 33.781 9.99578 33.9377 9.67193 34.1832C9.67193 34.1832 5.68219 32.5396 5.86773 36.2504C5.90719 37.0398 6.99918 42.2236 8.30172 40.6579C8.7778 40.0854 9.23772 39.6012 9.23772 39.6012C9.46621 39.7529 9.7397 39.8304 10.0264 39.8026L10.0487 39.7837C10.0418 39.8547 10.045 39.9243 10.0577 40.0066C9.72211 40.3815 9.82068 40.4473 9.14986 40.5854C8.4711 40.7252 8.86986 40.9742 9.13022 41.0393C9.44576 41.1182 10.176 41.23 10.6693 40.5395L10.6495 40.6182C10.7811 40.7236 10.8734 41.3032 10.8579 41.8287C10.8425 42.3542 10.832 42.715 10.9357 42.9968C11.0393 43.2786 11.1425 43.9125 12.0243 43.7236C12.7611 43.5657 13.1429 43.1565 13.1961 42.474C13.2338 41.9887 13.3191 42.0605 13.3245 41.6266L13.393 41.4213C13.4719 40.7635 13.4055 40.5514 13.8595 40.65L13.9698 40.6597C14.3039 40.6748 14.7412 40.6059 14.9979 40.4866C15.5506 40.2303 15.8783 39.802 15.3334 39.9145Z" fill="#336791"/>
        <path d="M11.782 43.9205C11.047 43.9205 10.8142 43.3385 10.7189 43.1004C10.5794 42.7516 10.5493 41.3978 10.5804 40.2876C10.5809 40.2689 10.585 40.2504 10.5927 40.2333C10.6003 40.2162 10.6112 40.2008 10.6248 40.1879C10.6384 40.1751 10.6544 40.165 10.672 40.1584C10.6895 40.1517 10.7081 40.1486 10.7268 40.1492C10.7455 40.1497 10.764 40.1539 10.781 40.1615C10.7981 40.1692 10.8135 40.1801 10.8264 40.1937C10.8392 40.2073 10.8493 40.2233 10.8559 40.2407C10.8626 40.2582 10.8658 40.2768 10.8652 40.2955C10.8294 41.576 10.8802 42.7364 10.9835 42.9946C11.1445 43.3972 11.3888 43.7494 12.0795 43.6014C12.7351 43.4608 12.9806 43.2122 13.09 42.5782C13.174 42.0917 13.3399 40.7075 13.3604 40.4344C13.3618 40.4157 13.3668 40.3975 13.3752 40.3808C13.3836 40.3641 13.3953 40.3492 13.4094 40.337C13.4236 40.3248 13.4401 40.3155 13.4579 40.3096C13.4756 40.3038 13.4944 40.3015 13.5131 40.303C13.5507 40.3058 13.5857 40.3235 13.6104 40.3521C13.635 40.3807 13.6473 40.418 13.6445 40.4556C13.6232 40.74 13.458 42.1215 13.3708 42.6267C13.2417 43.3755 12.9079 43.7152 12.1392 43.88C12.0086 43.908 11.8899 43.9205 11.782 43.9205ZM7.79658 41.0775C7.73234 41.0773 7.66854 41.0668 7.60765 41.0463C7.13023 40.887 6.67548 40.1095 6.25601 38.7351C5.93672 37.6889 5.73439 36.5969 5.71662 36.242C5.66403 35.1898 5.93493 34.4454 6.522 34.0296C7.68337 33.2067 9.63708 33.9903 9.71967 34.024C9.75466 34.0383 9.78254 34.0659 9.79717 34.1008C9.81181 34.1356 9.812 34.1749 9.79771 34.2099C9.78342 34.2448 9.75581 34.2727 9.72096 34.2874C9.68612 34.302 9.64689 34.3022 9.6119 34.2879C9.59306 34.2802 7.71962 33.5297 6.68611 34.2624C6.18413 34.6183 5.95368 35.2796 6.00109 36.2278C6.016 36.5268 6.20503 37.5925 6.52843 38.6518C6.9029 39.8788 7.32907 40.6531 7.69774 40.776C7.7556 40.7953 7.93168 40.854 8.18338 40.5513C8.4769 40.1987 8.78143 39.8555 9.09653 39.5221C9.12289 39.4958 9.1585 39.4809 9.19574 39.4805C9.23298 39.4802 9.26888 39.4944 9.29576 39.5201C9.32265 39.5459 9.33838 39.5812 9.33959 39.6184C9.3408 39.6556 9.3274 39.6918 9.30225 39.7193C9.29796 39.7237 8.86947 40.1717 8.40249 40.7335C8.18133 40.9995 7.96936 41.0775 7.79658 41.0775ZM13.9958 39.8771C13.9699 39.877 13.9446 39.87 13.9225 39.8566C13.9003 39.8433 13.8822 39.8242 13.8701 39.8014C13.858 39.7786 13.8523 39.753 13.8536 39.7272C13.855 39.7014 13.8633 39.6764 13.8777 39.655C15.2048 37.6857 15.6706 35.3063 15.2717 34.7965C14.7695 34.1549 14.0605 33.8198 13.1641 33.8004C12.5005 33.7861 11.9729 33.9556 11.8867 33.9851L11.865 33.994C11.7783 34.0212 11.7118 33.9737 11.6867 33.9181C11.6724 33.8863 11.6702 33.8504 11.6806 33.8171C11.691 33.7838 11.7132 33.7554 11.743 33.7373C11.7471 33.7349 11.7602 33.7294 11.7813 33.7216C11.9278 33.668 12.4634 33.5072 13.1267 33.5148C14.1185 33.5254 14.9378 33.9078 15.4959 34.6209C15.7599 34.9584 15.7605 35.7357 15.4976 36.7538C15.2295 37.7917 14.7252 38.9072 14.1139 39.8143C14.0866 39.8551 14.0416 39.8771 13.9958 39.8771ZM14.0636 40.7887C13.837 40.7887 13.6339 40.7567 13.5123 40.6839C13.3873 40.6089 13.3634 40.5072 13.3603 40.4531C13.3262 39.854 13.6567 39.7497 13.8253 39.7021C13.8018 39.6666 13.7684 39.6248 13.7339 39.5817C13.6356 39.4588 13.5009 39.2906 13.3972 39.039C13.3809 38.9997 13.33 38.9084 13.2711 38.8026C12.9515 38.2295 12.2866 37.0371 12.7138 36.4264C12.9114 36.1438 13.3051 36.0326 13.8851 36.0946C13.7145 35.5748 12.902 33.9487 10.974 33.9171C10.3942 33.9074 9.9186 34.0857 9.56127 34.4466C8.76125 35.2545 8.79018 36.7164 8.79063 36.7311C8.79112 36.7498 8.78792 36.7684 8.78122 36.7859C8.77452 36.8033 8.76444 36.8193 8.75157 36.8329C8.73869 36.8465 8.72327 36.8574 8.70618 36.865C8.68909 36.8726 8.67067 36.8767 8.65196 36.8772C8.63326 36.8777 8.61465 36.8745 8.59718 36.8678C8.57971 36.8611 8.56374 36.8511 8.55016 36.8382C8.53659 36.8253 8.52569 36.8099 8.51807 36.7928C8.51046 36.7757 8.50629 36.7573 8.5058 36.7386C8.50401 36.6737 8.47419 35.1395 9.35886 34.246C9.77288 33.8279 10.3179 33.6214 10.9787 33.6322C12.2121 33.6525 13.0061 34.2796 13.4549 34.802C13.9441 35.3714 14.1839 35.9995 14.2036 36.2091C14.2184 36.365 14.1065 36.3962 14.0839 36.4008L14.0325 36.402C13.4632 36.3108 13.0981 36.3741 12.9471 36.5898C12.6222 37.0542 13.2512 38.1822 13.5198 38.6639C13.5883 38.7868 13.6378 38.8756 13.6605 38.9304C13.7487 39.1444 13.8638 39.2881 13.9562 39.4036C14.0375 39.5053 14.108 39.5934 14.1332 39.6968C14.1449 39.7173 14.3109 39.9629 15.2958 39.7595C15.5427 39.7087 15.6907 39.7521 15.736 39.889C15.825 40.1582 15.3255 40.4722 15.049 40.6006C14.8012 40.7158 14.4058 40.7887 14.0636 40.7887ZM13.6443 40.4297C13.6756 40.4612 13.8319 40.5155 14.1557 40.5016C14.4435 40.4893 14.7471 40.4267 14.9293 40.3422C15.1622 40.2339 15.3178 40.1129 15.3983 40.0304L15.3537 40.0386C14.7239 40.1686 14.2784 40.1513 14.0297 39.9871C14.013 39.976 13.9969 39.9641 13.9815 39.9512C13.9545 39.9619 13.9296 39.9688 13.9118 39.9738C13.7708 40.0134 13.6249 40.0544 13.6443 40.4297ZM9.57618 41.2257C9.41975 41.2257 9.2551 41.2043 9.08697 41.1623C8.91277 41.1187 8.61911 40.9875 8.62357 40.7721C8.62866 40.5304 8.98019 40.4579 9.11251 40.4306C9.59056 40.3322 9.62172 40.2927 9.7711 40.1029C9.81467 40.0477 9.86887 39.9788 9.9428 39.8963C10.0525 39.7735 10.1724 39.7112 10.2992 39.7112C10.3875 39.7112 10.46 39.7412 10.5078 39.7611C10.6603 39.8243 10.7876 39.9771 10.8399 40.1599C10.8871 40.3248 10.8645 40.4836 10.7765 40.6069C10.4875 41.0116 10.0724 41.2257 9.57618 41.2257ZM8.93135 40.7843C8.97429 40.8175 9.06037 40.8619 9.15617 40.8858C9.3018 40.9223 9.44305 40.9407 9.57627 40.9407C9.98218 40.9407 10.3081 40.7727 10.5448 40.4413C10.5942 40.3722 10.5793 40.2844 10.5661 40.2382C10.5384 40.1415 10.4697 40.0536 10.3989 40.0242C10.3605 40.0083 10.3286 39.9962 10.2993 39.9962C10.2836 39.9962 10.2358 39.9962 10.1552 40.0863C10.0996 40.1488 10.0462 40.2131 9.99503 40.2793C9.80896 40.5155 9.72369 40.5957 9.1701 40.7098C9.03501 40.7374 8.96572 40.7656 8.93135 40.7843ZM10.0268 40.1271C9.99281 40.1271 9.95994 40.1149 9.93415 40.0927C9.90836 40.0705 9.89135 40.0399 9.88619 40.0063C9.88262 39.9826 9.88023 39.9588 9.87905 39.9349C9.51618 39.9281 9.16608 39.7724 8.90027 39.4951C8.56419 39.1444 8.41124 38.6586 8.48071 38.1623C8.55616 37.6232 8.52794 37.1474 8.51276 36.8918C8.50857 36.8207 8.50553 36.7694 8.50571 36.7338C8.50598 36.6888 8.50687 36.5692 8.90652 36.3666C9.04867 36.2945 9.33368 36.1688 9.64502 36.1366C10.1608 36.0833 10.5008 36.313 10.6026 36.7836C10.8774 38.054 10.6244 38.6159 10.4397 39.0262C10.4053 39.1027 10.3728 39.1748 10.3468 39.2447L10.3239 39.3063C10.2263 39.568 10.1419 39.7941 10.1678 39.9629C10.1706 39.9814 10.1698 40.0003 10.1654 40.0185C10.1609 40.0367 10.1529 40.0538 10.1419 40.0689C10.1308 40.0839 10.1169 40.0967 10.1009 40.1064C10.0849 40.1161 10.0671 40.1225 10.0486 40.1254L10.0268 40.1271ZM8.79152 36.7733L8.79706 36.875C8.81277 37.1406 8.84206 37.6347 8.76277 38.2018C8.70554 38.6112 8.83054 39.0108 9.1059 39.2979C9.3235 39.5249 9.60984 39.6502 9.90414 39.6502H9.91021C9.94316 39.5113 9.99789 39.3647 10.0568 39.2068L10.0796 39.1455C10.109 39.0666 10.1433 38.9902 10.1798 38.9093C10.3575 38.5142 10.5789 38.0225 10.324 36.8438C10.2735 36.6104 10.1511 36.4753 9.94994 36.4307C9.53672 36.3395 8.9209 36.6503 8.79152 36.7733ZM9.65136 36.7129C9.64422 36.7632 9.7436 36.8977 9.87324 36.9156C10.0026 36.9338 10.1133 36.8286 10.1204 36.7782C10.1274 36.7279 10.0282 36.6723 9.89851 36.6543C9.76887 36.6363 9.65824 36.6625 9.65136 36.7129ZM9.90298 36.9652L9.86664 36.9627C9.78628 36.9515 9.70503 36.9009 9.6494 36.8272C9.62985 36.8013 9.59797 36.7511 9.60431 36.7063C9.61333 36.6405 9.69351 36.6012 9.8186 36.6012C9.84655 36.6012 9.87566 36.6032 9.90494 36.6073C9.97334 36.6168 10.0368 36.6365 10.0837 36.6627C10.1649 36.708 10.1709 36.7587 10.1673 36.7848C10.1573 36.8574 10.0418 36.9652 9.90298 36.9652ZM9.6986 36.7213C9.70262 36.7523 9.77958 36.8548 9.87976 36.8687L9.90307 36.8703C9.99557 36.8703 10.0647 36.7975 10.0728 36.7737C10.0642 36.7574 10.0048 36.7171 9.89199 36.7013C9.86771 36.6979 9.84322 36.6962 9.81869 36.6961C9.74619 36.6961 9.7077 36.7124 9.6986 36.7213ZM13.592 36.6101C13.5991 36.6605 13.4998 36.7949 13.3702 36.813C13.2407 36.831 13.1299 36.7259 13.1228 36.6755C13.116 36.6252 13.2153 36.5696 13.3448 36.5516C13.4742 36.5335 13.5849 36.5598 13.592 36.6101ZM13.3403 36.8387C13.2157 36.8387 13.1081 36.7417 13.0992 36.6788C13.089 36.6032 13.2133 36.5458 13.3414 36.528C13.3696 36.5241 13.3975 36.5221 13.4244 36.5221C13.5349 36.5221 13.6082 36.5546 13.6155 36.6069C13.6202 36.6407 13.5942 36.693 13.5495 36.7401C13.5199 36.7711 13.4579 36.8247 13.3733 36.8364L13.3403 36.8387ZM13.4245 36.5696C13.3997 36.5696 13.3743 36.5715 13.3481 36.5751C13.2194 36.593 13.1426 36.6446 13.1464 36.6723C13.1506 36.7028 13.2328 36.7913 13.3404 36.7913L13.3669 36.7894C13.4372 36.7797 13.4899 36.7338 13.5151 36.7073C13.5547 36.6658 13.5704 36.6267 13.5685 36.6134C13.566 36.5957 13.5185 36.5696 13.4245 36.5696ZM13.7785 39.5021C13.7527 39.5021 13.7274 39.4951 13.7052 39.4819C13.6831 39.4686 13.665 39.4495 13.6529 39.4268C13.6407 39.404 13.635 39.3783 13.6363 39.3526C13.6376 39.3268 13.6459 39.3019 13.6603 39.2804C13.9637 38.8273 13.9082 38.3652 13.8545 37.9183C13.8316 37.728 13.808 37.5311 13.8141 37.3422C13.8203 37.1478 13.845 36.9874 13.8689 36.8323C13.8972 36.6486 13.924 36.475 13.9129 36.2689C13.9119 36.2502 13.9146 36.2316 13.9208 36.2139C13.927 36.1963 13.9366 36.18 13.9491 36.1661C13.9616 36.1522 13.9767 36.1409 13.9936 36.1328C14.0105 36.1247 14.0288 36.12 14.0475 36.119C14.0661 36.118 14.0848 36.1207 14.1025 36.1269C14.1201 36.1331 14.1364 36.1427 14.1503 36.1552C14.1784 36.1805 14.1953 36.2158 14.1974 36.2536C14.2101 36.4891 14.1798 36.6855 14.1505 36.8756C14.1279 37.0223 14.1045 37.174 14.0989 37.3513C14.0934 37.5186 14.1148 37.6963 14.1374 37.8843C14.1945 38.3595 14.2592 38.8981 13.8971 39.4389C13.884 39.4584 13.8664 39.4743 13.8457 39.4853C13.825 39.4964 13.802 39.5021 13.7785 39.5021Z" fill="white"/>
    </g>
    <g clip-path="url(#clip4_73_41)">
        <path d="M8.75022 5H2.67864C1.19927 5 0 6.19927 0 7.67864V13.7502C0 15.2296 1.19927 16.4289 2.67864 16.4289H8.75022C10.2296 16.4289 11.4289 15.2296 11.4289 13.7502V7.67864C11.4289 6.19927 10.2296 5 8.75022 5Z" fill="#F0DB4F"/>
        <path d="M3.00505 14.5508L3.87963 14.0215C4.04838 14.3206 4.20187 14.5738 4.57004 14.5738C4.92296 14.5738 5.14546 14.4357 5.14546 13.8988V10.247H6.21951V13.9139C6.21951 15.0263 5.56744 15.5327 4.61607 15.5327C3.7569 15.5327 3.25818 15.0877 3.005 14.5507M6.80287 14.4357L7.67735 13.9294C7.90758 14.3053 8.20679 14.5815 8.73609 14.5815C9.18114 14.5815 9.4649 14.359 9.4649 14.0521C9.4649 13.6839 9.17338 13.5534 8.68238 13.3387L8.41394 13.2236C7.63905 12.8937 7.12502 12.4794 7.12502 11.6049C7.12502 10.7993 7.73879 10.1855 8.69778 10.1855C9.38057 10.1855 9.87156 10.4234 10.2244 11.0448L9.3882 11.5818C9.20405 11.2519 9.00467 11.1215 8.69778 11.1215C8.38322 11.1215 8.18375 11.321 8.18375 11.5818C8.18375 11.904 8.38322 12.0345 8.8435 12.234L9.11199 12.349C10.0249 12.7403 10.5389 13.1392 10.5389 14.0367C10.5389 15.0035 9.77946 15.5328 8.75912 15.5328C7.76182 15.5328 7.11739 15.0571 6.80287 14.4357Z" fill="#323330"/>
    </g>
    <g clip-path="url(#clip5_73_41)">
        <rect width="11.4289" height="11.4289" transform="translate(69 33)" fill="white"/>
        <path fill-rule="evenodd" clip-rule="evenodd" d="M69.1088 38.0141C69.1088 38.0768 69.1273 38.1183 69.1377 38.1585C69.2052 38.4204 69.3503 38.6451 69.5224 38.8501C69.7676 39.1423 70.0679 39.3775 70.3755 39.5986C70.6423 39.7904 70.9145 39.9779 71.1824 40.1683C71.2283 40.201 71.2718 40.2386 71.3217 40.2787C71.2788 40.3019 71.2431 40.3223 71.2059 40.3412C70.8524 40.5205 70.5123 40.7214 70.1989 40.9649C70.0099 41.1117 69.8272 41.2677 69.6982 41.4716C69.4906 41.7994 69.4171 42.1487 69.5719 42.5217C69.6171 42.6306 69.686 42.7247 69.7832 42.7943C69.8147 42.8168 69.8501 42.8391 69.887 42.8478C69.9814 42.8701 70.0777 42.8846 70.1733 42.9022L70.4441 42.902C70.7436 42.8753 71.0162 42.7727 71.2625 42.6027C71.6476 42.337 71.9069 41.9808 72.0185 41.5235C72.0995 41.1912 72.1028 40.8585 72.0073 40.5277C71.9981 40.4971 71.9876 40.4668 71.9757 40.4372C71.9641 40.4074 71.9504 40.3785 71.9343 40.3414L72.5483 39.9884L72.5575 39.9962C72.5463 40.0328 72.5344 40.0692 72.5244 40.1061C72.4514 40.3725 72.4029 40.6436 72.4203 40.9201C72.4389 41.2148 72.5211 41.4906 72.6936 41.7367C72.8331 41.9359 73.1654 41.9433 73.3137 41.7434C73.3663 41.6725 73.4172 41.5983 73.4555 41.5191C73.5556 41.3124 73.6483 41.102 73.7439 40.8931L73.7606 40.8548C73.7538 40.9538 73.7457 41.0406 73.7421 41.1276C73.7364 41.2634 73.7443 41.3984 73.7907 41.5276C73.8305 41.6382 73.8981 41.7208 74.0247 41.7353C74.1113 41.7452 74.1803 41.7056 74.244 41.6553C74.3426 41.5773 74.4243 41.4802 74.4842 41.3697C74.654 41.058 74.8283 40.7481 74.9821 40.4286C75.1485 40.0829 75.2941 39.7272 75.4486 39.3757L75.4742 39.3134C75.5107 39.4569 75.5361 39.5974 75.583 39.7304C75.6375 39.8848 75.7049 40.0355 75.7783 40.1821C75.813 40.2513 75.809 40.2962 75.7609 40.3542C75.5594 40.5971 75.3615 40.8429 75.1634 41.0884C75.1195 41.1426 75.0759 41.1978 75.0393 41.257C75.0172 41.2944 75.0026 41.3358 74.9965 41.3788C74.9903 41.4184 74.9998 41.4588 75.0228 41.4916C75.0458 41.5245 75.0806 41.5471 75.12 41.5548C75.1994 41.5718 75.2807 41.5776 75.3618 41.572C75.6383 41.5516 75.8894 41.4546 76.1113 41.2901C76.3989 41.0771 76.4912 40.7864 76.4216 40.4418C76.4028 40.3483 76.3695 40.2574 76.337 40.1673C76.3225 40.1267 76.3215 40.0982 76.348 40.0604C76.5779 39.732 76.7744 39.3837 76.9571 39.0274C76.9643 39.0134 76.9717 38.9993 76.9844 38.9843C77.0436 39.2924 77.1327 39.5893 77.2923 39.8587C77.2109 39.9371 77.1303 40.0083 77.0573 40.0867C76.8967 40.2594 76.7574 40.4469 76.6847 40.6756C76.6535 40.7741 76.6295 40.8743 76.6434 40.9796C76.665 41.1431 76.7989 41.2493 76.9597 41.2121C77.3039 41.1324 77.6009 40.9703 77.818 40.6831C77.9641 40.4897 77.9774 40.2739 77.9162 40.0479C77.8994 39.9865 77.8795 39.9261 77.8581 39.8556C77.943 39.8293 78.0257 39.7977 78.1114 39.7781C78.5559 39.6767 78.9957 39.6944 79.4241 39.8549C79.6742 39.9487 79.8762 40.1055 79.9961 40.3523C80.1424 40.654 80.0615 40.9403 79.7771 41.131C79.7506 41.1488 79.7203 41.1628 79.6983 41.185C79.6913 41.1932 79.686 41.2027 79.6828 41.213C79.6797 41.2233 79.6787 41.2342 79.68 41.2449C79.6819 41.2558 79.7109 41.2696 79.7276 41.2694C79.8211 41.2687 79.8969 41.2197 79.9696 41.1693C80.152 41.0431 80.285 40.8734 80.3137 40.6499L80.3193 40.6331L80.3124 40.4876C80.3096 40.4792 80.3145 40.4709 80.3138 40.4646C80.2751 40.1391 80.1012 39.8867 79.8484 39.6888C79.5555 39.4598 79.2097 39.3655 78.844 39.3506C78.5474 39.3378 78.2511 39.3834 77.9721 39.4848C77.892 39.5138 77.8126 39.5482 77.7321 39.5806C77.7213 39.5611 77.7097 39.5423 77.7001 39.5229C77.6174 39.3536 77.5173 39.1919 77.4951 38.9977C77.4794 38.8599 77.4601 38.7222 77.4929 38.5859C77.5244 38.4547 77.5655 38.3258 77.6041 38.1964C77.624 38.1298 77.61 38.0924 77.5464 38.0624C77.5242 38.0516 77.5006 38.0438 77.4763 38.0394C77.32 38.0167 77.1659 38.0297 77.0146 38.0737C76.961 38.0893 76.9221 38.1193 76.9102 38.1786C76.9034 38.2126 76.8896 38.2452 76.8799 38.2788C76.8404 38.4184 76.8123 38.5606 76.7484 38.6935C76.5882 39.027 76.4053 39.3479 76.2182 39.6665C76.1979 39.7009 76.1766 39.7346 76.1511 39.7763C76.0853 39.6388 76.0153 39.5154 75.994 39.3708C75.97 39.2072 75.9511 39.0439 75.9918 38.8816C76.022 38.7605 76.0616 38.6417 76.098 38.5222C76.1153 38.4654 76.1073 38.4356 76.0559 38.4057C76.0299 38.3906 76.0005 38.3772 75.9712 38.3728C75.811 38.3484 75.6473 38.3618 75.4932 38.4119C75.4447 38.4276 75.4193 38.459 75.4044 38.509C75.3609 38.6565 75.3237 38.8076 75.2626 38.9478C75.0149 39.5157 74.76 40.0806 74.5055 40.6455C74.4524 40.7634 74.3901 40.8773 74.3302 40.9921C74.315 41.0212 74.2929 41.0468 74.274 41.0741C74.2588 41.0562 74.2529 41.0439 74.253 41.0315C74.2534 40.959 74.2448 40.8842 74.2586 40.814C74.3011 40.6018 74.3481 40.3904 74.3995 40.1802C74.4415 40.0064 74.4903 39.8343 74.5368 39.6617C74.5524 39.6039 74.5527 39.5499 74.5112 39.5013C74.4415 39.42 74.2957 39.4021 74.2093 39.4648L74.1711 39.4864L74.1785 39.4248C74.1967 39.2927 74.2004 39.1611 74.1641 39.031C74.119 38.8689 74.0032 38.7756 73.835 38.7808C73.7566 38.7832 73.6743 38.7966 73.6017 38.8251C73.2964 38.9448 73.0617 39.1567 72.8619 39.4116C72.8433 39.4352 72.8204 39.4551 72.7943 39.47C72.536 39.6132 72.2769 39.7546 72.0178 39.8966L71.7295 40.0546C71.6522 39.9808 71.5819 39.9043 71.5022 39.8394C71.2587 39.6408 71.0113 39.4471 70.7661 39.2508C70.5488 39.0768 70.3382 38.8955 70.1772 38.6651C70.0573 38.4936 69.9801 38.306 69.9727 38.0941C69.9633 37.824 70.0399 37.5772 70.1774 37.3474C70.3533 37.0535 70.5932 36.8176 70.857 36.6039C71.136 36.378 71.4378 36.1862 71.7506 36.0111C72.1882 35.7662 72.6383 35.5494 73.1209 35.4063C73.6157 35.2595 74.1178 35.1755 74.6357 35.2341C74.8392 35.2571 75.0369 35.3037 75.2184 35.4033C75.3575 35.4794 75.4715 35.5792 75.5245 35.7351C75.5768 35.8885 75.5752 36.0439 75.539 36.1997C75.4653 36.5153 75.2926 36.7754 75.0751 37.0078C74.7185 37.3888 74.2835 37.6482 73.7938 37.8195C73.5122 37.9181 73.2192 37.9806 72.9219 38.0055C72.6782 38.0259 72.4396 38.0043 72.2089 37.9196C72.0561 37.8634 71.9231 37.7775 71.8161 37.6529C71.797 37.6306 71.7726 37.6064 71.7369 37.6273C71.702 37.6478 71.6959 37.681 71.7076 37.7147C71.7271 37.7706 71.7451 37.8288 71.7756 37.8788C71.8521 38.0042 71.9637 38.0952 72.0866 38.1733C72.3226 38.3233 72.5863 38.3738 72.8598 38.3855C73.2748 38.4034 73.6797 38.3415 74.079 38.2301C74.6489 38.0712 75.1444 37.7905 75.5418 37.3476C75.8727 36.9788 76.1091 36.5627 76.1597 36.0602C76.1845 35.8149 76.1581 35.5746 76.0433 35.3509C75.9187 35.1084 75.7207 34.9282 75.4839 34.804C75.1391 34.6232 74.7669 34.5179 74.3828 34.5179H73.998C73.5328 34.5179 73.083 34.6512 72.6459 34.8102C72.315 34.9307 71.9905 35.0728 71.6755 35.2301C70.9895 35.5729 70.3506 35.9862 69.8259 36.5546C69.5645 36.8377 69.3431 37.1501 69.2158 37.518C69.1774 37.6278 69.1443 37.7394 69.1166 37.8524M71.6023 41.068C71.5725 41.4661 71.3921 41.7889 71.0972 42.0503C70.9313 42.1973 70.741 42.3019 70.5194 42.3387C70.439 42.352 70.3568 42.3552 70.2789 42.3219C70.1677 42.2744 70.1428 42.1758 70.1406 42.0707C70.1373 41.9032 70.196 41.7517 70.2764 41.6076C70.3814 41.4198 70.5354 41.2765 70.6998 41.1428C70.9587 40.932 71.2396 40.7536 71.5273 40.5852L71.549 40.5763C71.5934 40.7406 71.6146 40.9028 71.6023 41.068ZM73.8486 39.3377C73.8276 39.4648 73.8014 39.592 73.7642 39.7153C73.6358 40.1418 73.4709 40.5551 73.2926 40.9629C73.2596 41.0383 73.2117 41.1072 73.17 41.1787C73.1629 41.1897 73.1544 41.1997 73.1447 41.2085C73.0931 41.2595 73.0442 41.2568 73.0181 41.1901C72.9878 41.1126 72.9691 41.0297 72.953 40.9476C72.9422 40.8925 72.9448 40.8347 72.9414 40.7782C72.9449 40.377 73.0673 40.0123 73.275 39.6728C73.3606 39.5328 73.4538 39.3994 73.5963 39.3109C73.6406 39.2834 73.6885 39.2621 73.7387 39.2478C73.8146 39.2265 73.8612 39.2616 73.8486 39.3377ZM75.3811 41.2902L75.9319 40.6471C75.9549 40.8859 75.5489 41.3627 75.3811 41.2902ZM77.1404 40.8574C77.1014 40.8798 77.059 40.8958 77.0191 40.9164C76.9826 40.9354 76.9705 40.9163 76.9695 40.8848C76.969 40.8631 76.9718 40.8414 76.9778 40.8205C77.0522 40.5581 77.189 40.3342 77.3927 40.1521L77.407 40.1447C77.5039 40.4157 77.3919 40.7133 77.1404 40.8574Z" fill="#CB6699"/>
    </g>
    <g clip-path="url(#clip6_73_41)">
        <rect width="10.9273" height="6.53078" transform="translate(53.8789 5.22103)" fill="white"/>
        <path d="M56.9689 7.58739C56.9689 7.72129 56.9834 7.82984 57.0088 7.90945C57.0409 7.99901 57.0796 8.08608 57.1245 8.16995C57.1426 8.19889 57.1498 8.22783 57.1498 8.25319C57.1498 8.28934 57.1281 8.32554 57.0811 8.36174L56.8532 8.51369C56.8206 8.53542 56.788 8.54626 56.759 8.54626C56.7229 8.54626 56.6867 8.52816 56.6505 8.49559C56.6017 8.44324 56.5581 8.38629 56.5203 8.32554C56.4841 8.26407 56.4479 8.19526 56.4081 8.11207C56.1258 8.44493 55.7712 8.61137 55.3443 8.6114C55.0404 8.6114 54.7979 8.52453 54.6206 8.35089C54.4434 8.17717 54.3529 7.9456 54.3529 7.65616C54.3529 7.34861 54.4615 7.09895 54.6822 6.91079C54.9029 6.72264 55.196 6.62856 55.5687 6.62856C55.6917 6.62856 55.8183 6.6394 55.9522 6.6575C56.0861 6.6756 56.2236 6.70454 56.3683 6.73711V6.47297C56.3683 6.19796 56.3104 6.00622 56.1982 5.89404C56.0825 5.78186 55.887 5.72757 55.6084 5.72757C55.4818 5.72757 55.3516 5.74208 55.2177 5.77465C55.0838 5.80722 54.9535 5.847 54.8269 5.89767C54.769 5.92298 54.7256 5.93745 54.7002 5.94471C54.6749 5.95196 54.6568 5.95555 54.6424 5.95555C54.5917 5.95555 54.5664 5.91935 54.5664 5.84337V5.66606C54.5664 5.60818 54.5736 5.56477 54.5917 5.53946C54.6098 5.5141 54.6424 5.48879 54.693 5.46348C54.8196 5.39831 54.9716 5.34403 55.1489 5.30064C55.3262 5.2536 55.5144 5.23191 55.7134 5.23191C56.144 5.23191 56.4588 5.32958 56.6614 5.52499C56.8604 5.72036 56.9618 6.01706 56.9618 6.41509V7.58739H56.9689ZM55.4999 8.13738C55.6193 8.13738 55.7423 8.1157 55.8726 8.07225C56.0028 8.02884 56.1186 7.94923 56.2163 7.84068C56.2742 7.77196 56.3176 7.69598 56.3393 7.60912C56.3611 7.5223 56.3755 7.41733 56.3755 7.29432V7.14236C56.2658 7.11567 56.1547 7.09513 56.0426 7.08085C55.9298 7.06654 55.8162 7.05928 55.7025 7.05912C55.4601 7.05912 55.2828 7.10616 55.1634 7.20387C55.044 7.30157 54.9861 7.43906 54.9861 7.61996C54.9861 7.79001 55.0295 7.91666 55.12 8.00352C55.2068 8.09397 55.3335 8.13738 55.4999 8.13738ZM58.4054 8.52816C58.3403 8.52816 58.2969 8.51732 58.2679 8.49197C58.239 8.47028 58.2136 8.41962 58.1919 8.35089L57.3417 5.55393C57.3199 5.48153 57.309 5.4345 57.309 5.40918C57.309 5.3513 57.338 5.31869 57.3959 5.31869H57.7505C57.8192 5.31869 57.8663 5.32958 57.8916 5.35489C57.9205 5.37662 57.9423 5.42728 57.964 5.496L58.5718 7.89135L59.1363 5.496C59.1544 5.42365 59.1761 5.37662 59.205 5.35489C59.234 5.3332 59.2847 5.31873 59.3498 5.31873H59.6393C59.708 5.31873 59.7551 5.32958 59.784 5.35489C59.8129 5.37662 59.8382 5.42728 59.8527 5.496L60.4244 7.92029L61.0504 5.496C61.0721 5.42365 61.0974 5.37662 61.1227 5.35489C61.1517 5.3332 61.1987 5.31873 61.2638 5.31873H61.6003C61.6582 5.31873 61.6908 5.34767 61.6908 5.40918C61.6908 5.42728 61.6872 5.44538 61.6836 5.46706C61.6799 5.48875 61.6727 5.51773 61.6582 5.55756L60.7862 8.35448C60.7645 8.42687 60.7392 8.47391 60.7102 8.49559C60.6813 8.51732 60.6342 8.53179 60.5728 8.53179H60.2616C60.1928 8.53179 60.1458 8.52095 60.1168 8.49559C60.0879 8.47028 60.0626 8.42324 60.0481 8.35089L59.4872 6.01706L58.93 8.34722C58.9119 8.41962 58.8902 8.46665 58.8613 8.49197C58.8323 8.51732 58.7817 8.52816 58.7166 8.52816H58.4054ZM63.0549 8.62587C62.8668 8.62587 62.6786 8.60414 62.4977 8.56073C62.3168 8.51732 62.1757 8.47024 62.0816 8.41603C62.0237 8.38342 61.9839 8.34727 61.9695 8.3147C61.9554 8.28275 61.948 8.24827 61.9477 8.21336V8.02884C61.9477 7.95286 61.9767 7.91666 62.031 7.91666C62.0531 7.91674 62.0751 7.92042 62.0961 7.92755C62.1178 7.9348 62.1504 7.94923 62.1866 7.9637C62.3143 8.01994 62.4478 8.0624 62.5845 8.09035C62.7263 8.11908 62.8705 8.13362 63.0152 8.13376C63.2431 8.13376 63.4204 8.09397 63.5434 8.01437C63.6664 7.93476 63.7316 7.819 63.7316 7.67063C63.7316 7.56933 63.699 7.4861 63.6339 7.41733C63.5687 7.34857 63.4457 7.2871 63.2684 7.22918L62.7438 7.06638C62.4796 6.98314 62.2843 6.86013 62.1648 6.69728C62.0454 6.53807 61.9839 6.3608 61.9839 6.17264C61.9839 6.02069 62.0165 5.8868 62.0816 5.77098C62.1467 5.65522 62.2336 5.55393 62.3421 5.47432C62.4507 5.39109 62.5737 5.32958 62.7184 5.28617C62.8631 5.24276 63.0151 5.22466 63.1743 5.22466C63.2539 5.22466 63.3372 5.22829 63.4168 5.23913C63.5 5.24997 63.576 5.26444 63.652 5.27891C63.7243 5.29701 63.7931 5.31511 63.8582 5.33683C63.9233 5.35852 63.974 5.38021 64.0102 5.40193C64.0608 5.43091 64.097 5.45985 64.1187 5.49242C64.1404 5.52136 64.1513 5.56116 64.1513 5.61181V5.78186C64.1513 5.85784 64.1224 5.89767 64.0681 5.89767C64.0391 5.89767 63.9921 5.88316 63.9306 5.85422C63.7243 5.76014 63.4927 5.7131 63.2359 5.7131C63.0296 5.7131 62.8668 5.74567 62.7546 5.81443C62.6425 5.88316 62.5845 5.98812 62.5845 6.13645C62.5845 6.23778 62.6207 6.3246 62.6931 6.39337C62.7654 6.46213 62.8993 6.53086 63.0911 6.59236L63.6049 6.75521C63.8654 6.83844 64.0536 6.9542 64.1658 7.10253C64.2779 7.25086 64.3322 7.42096 64.3322 7.60912C64.3322 7.7647 64.2996 7.90582 64.2381 8.02884C64.173 8.15185 64.0862 8.2604 63.974 8.34727C63.8618 8.43771 63.7279 8.50285 63.5724 8.54989C63.4095 8.60056 63.2395 8.62587 63.0549 8.62587Z" fill="#252F3E"/>
        <path d="M63.7388 10.3844C62.5484 11.2636 60.8188 11.7304 59.3317 11.7304C57.2475 11.7304 55.3697 10.9597 53.9513 9.67878C53.8391 9.57748 53.9404 9.44 54.0743 9.51956C55.6084 10.4097 57.5008 10.9488 59.4584 10.9488C60.779 10.9488 62.23 10.6738 63.5651 10.1094C63.7641 10.0189 63.9342 10.2397 63.7388 10.3844ZM64.2345 9.81989C64.0826 9.62452 63.2286 9.72581 62.8415 9.77285C62.7257 9.78737 62.7076 9.68603 62.8125 9.61005C63.4927 9.13241 64.6108 9.26994 64.7411 9.42911C64.8713 9.59195 64.7049 10.71 64.0681 11.2455C63.9704 11.3288 63.8763 11.2853 63.9197 11.1768C64.0644 10.8185 64.3865 10.0117 64.2345 9.81989Z" fill="#FF9900"/>
    </g>
    <defs>
        <linearGradient id="paint0_linear_73_41" x1="20.5812" y1="16.4704" x2="26.0297" y2="21.1169" gradientUnits="userSpaceOnUse">
            <stop stop-color="#5A9FD4"/>
            <stop offset="1" stop-color="#306998"/>
        </linearGradient>
        <linearGradient id="paint1_linear_73_41" x1="28.0796" y1="24.0052" x2="26.1257" y2="21.2651" gradientUnits="userSpaceOnUse">
            <stop stop-color="#FFD43B"/>
            <stop offset="1" stop-color="#FFE873"/>
        </linearGradient>
        <radialGradient id="paint2_radial_73_41" cx="0" cy="0" r="1" gradientUnits="userSpaceOnUse" gradientTransform="translate(25.7229 26.4409) rotate(-90) scale(0.614013 2.6991)">
            <stop stop-color="#B8B8B8" stop-opacity="0.498"/>
            <stop offset="1" stop-color="#7F7F7F" stop-opacity="0"/>
        </radialGradient>
        <clipPath id="clip0_73_41">
            <rect width="12.2452" height="12.2452" fill="white" transform="translate(74 4)"/>
        </clipPath>
        <clipPath id="clip1_73_41">
            <rect width="12.2452" height="12.2452" fill="white" transform="translate(19.5923 15.0172)"/>
        </clipPath>
        <clipPath id="clip2_73_41">
            <rect width="11.4289" height="11.4289" fill="white" transform="translate(20.4087 1.1393)"/>
        </clipPath>
        <clipPath id="clip3_73_41">
            <rect width="11.4289" height="11.4289" fill="white" transform="translate(5 33)"/>
        </clipPath>
        <clipPath id="clip4_73_41">
            <rect width="11.4289" height="11.4289" fill="white" transform="translate(0 5)"/>
        </clipPath>
        <clipPath id="clip5_73_41">
            <rect width="11.4289" height="11.4289" fill="white" transform="translate(69 33)"/>
        </clipPath>
        <clipPath id="clip6_73_41">
            <rect width="10.9273" height="6.53078" fill="white" transform="translate(53.8789 5.22103)"/>
        </clipPath>
    </defs>
</svg>
