<svg width="30" height="30" viewBox="0 0 30 30" fill="none" xmlns="http://www.w3.org/2000/svg">
<path d="M25.2563 20.49C22.17 24.6012 15.58 23.2137 11.3538 23.4125C11.3538 23.4125 10.605 23.455 9.8525 23.5787C9.8525 23.5787 10.1375 23.4575 10.5013 23.3312C13.4688 22.305 14.8713 22.0987 16.675 21.1725C20.0625 19.4375 23.435 15.6562 24.1213 11.7287C22.8313 15.5062 18.9088 18.7575 15.3375 20.0775C12.8938 20.98 8.4725 21.8575 8.47125 21.8575L8.2925 21.7625C5.28625 20.3 5.19875 13.7875 10.66 11.6887C13.055 10.7687 15.3438 11.2737 17.9325 10.6575C20.6925 10.0012 23.89 7.9325 25.1888 5.2275C26.645 9.55 28.395 16.31 25.2563 20.49ZM25.3088 3.89C24.9597 4.72724 24.5129 5.52025 23.9775 6.2525C22.8141 5.05319 21.4215 4.09983 19.8826 3.44899C18.3437 2.79816 16.6897 2.46311 15.0188 2.46375C8.115 2.46375 2.5 8.07875 2.5 14.9812C2.49897 16.7031 2.85438 18.4065 3.54386 19.9842C4.23335 21.5619 5.24197 22.9799 6.50625 24.1487L6.78125 24.3912C6.58081 24.1905 6.46831 23.9183 6.46848 23.6346C6.46866 23.3509 6.5815 23.0789 6.78219 22.8783C6.98288 22.6778 7.255 22.5652 7.5387 22.5653C7.82241 22.5653 8.09448 22.6781 8.29509 22.8787C8.4957 23.0793 8.60842 23.3513 8.60848 23.635C8.60854 23.9188 8.49593 24.1909 8.2954 24.3916C8.09487 24.5923 7.82285 24.7051 7.53914 24.7053C7.25544 24.7054 6.98328 24.5929 6.7825 24.3925L6.96875 24.5575C9.21926 26.4602 12.0717 27.5028 15.0188 27.5C21.6163 27.5 27.035 22.365 27.4988 15.885C27.8413 12.7112 26.9038 8.68125 25.3088 3.89Z" fill="#C0A3CF"/>
</svg>
