<svg width="30" height="30" viewBox="0 0 30 30" fill="none" xmlns="http://www.w3.org/2000/svg">
<path d="M15 1.93362C14.1879 1.93549 13.3758 1.97205 12.5665 2.04541C12.0748 2.09016 11.5847 2.15058 11.0969 2.22659C10.6574 2.29799 10.2211 2.38588 9.78796 2.49026C9.41249 2.58166 9.04077 2.69182 8.67468 2.81791C8.51609 2.87635 8.3589 2.93987 8.20312 3.00846C7.9989 3.09846 7.80116 3.20127 7.60992 3.3169C7.55351 3.35127 7.49796 3.38729 7.44327 3.42495C7.26093 3.55264 7.09996 3.7084 6.96632 3.88643C6.91466 3.96269 6.87277 4.04513 6.84163 4.13182C6.80347 4.24767 6.79162 4.37058 6.80695 4.49159C6.81788 4.56659 6.83835 4.63893 6.86835 4.70862C6.90116 4.78174 6.94241 4.85159 6.99187 4.91463C7.07624 5.02526 7.17234 5.12604 7.27851 5.21487C7.4522 5.36159 7.64239 5.48759 7.84523 5.59034C8.08776 5.72044 8.33991 5.83178 8.59945 5.92338L8.51624 5.9501C9.03772 6.11717 9.56618 6.26161 10.1001 6.38299C10.6348 6.5058 11.175 6.60471 11.7187 6.67971C12.2616 6.75565 12.8081 6.80791 13.3566 6.83627C13.9039 6.8645 14.4523 6.86841 15 6.84799C15.5327 6.86276 16.0664 6.85455 16.5984 6.82338C17.1301 6.79023 17.6601 6.73471 18.187 6.65698C18.2967 6.64291 18.4031 6.62651 18.5081 6.61198C18.6509 6.59104 18.7932 6.56877 18.9349 6.54518C19.2408 6.49748 19.5448 6.43916 19.8466 6.37034C20.3734 6.25463 20.8924 6.10598 21.4005 5.92526C21.6091 5.84557 21.8154 5.75768 22.0167 5.65971C22.1904 5.57319 22.3585 5.47597 22.5201 5.36862C22.6525 5.27655 22.7763 5.17269 22.89 5.0583C22.9814 4.96034 23.0604 4.84971 23.1216 4.72971C23.171 4.62166 23.1977 4.50448 23.2003 4.38518C23.2007 4.25528 23.1679 4.12742 23.1051 4.0137C23.0606 3.92642 23.0047 3.84547 22.9387 3.77299C22.8648 3.69081 22.7846 3.61456 22.6987 3.54495C22.6523 3.50527 22.6043 3.46743 22.5548 3.43151C22.4431 3.3543 22.327 3.28364 22.207 3.21987C21.9251 3.0617 21.6294 2.92966 21.3234 2.82541C20.7533 2.62597 20.1695 2.46806 19.5766 2.35291C19.1165 2.25907 18.6528 2.183 18.1868 2.12487C17.6762 2.0599 17.1636 2.0123 16.6498 1.98213C16.1004 1.94815 15.5503 1.93291 15 1.93362ZM4.31671 4.70041V25.2996C4.31671 27.4165 9.0171 29.1331 14.8498 29.1668H15C20.8997 29.1668 25.6833 27.4997 25.6833 25.2996V4.70041C25.6833 6.8501 20.8997 8.56666 15 8.56666C9.1003 8.56666 4.31671 6.90026 4.31671 4.70041ZM9.50038 13.2504C10.068 13.2277 10.6338 13.3184 11.1668 13.5169V14.9496C10.6795 14.6097 10.0939 14.4399 9.50038 14.4664C9.25128 14.4545 9.00521 14.5249 8.80007 14.6667C8.71876 14.7214 8.653 14.7961 8.60917 14.8838C8.56534 14.9714 8.54496 15.0688 8.54999 15.1667C8.546 15.2644 8.56161 15.362 8.5959 15.4537C8.6302 15.5453 8.68248 15.6292 8.74968 15.7003C9.00299 15.9179 9.29033 16.0923 9.60023 16.2167C10.1229 16.4329 10.5942 16.7567 10.9835 17.1671C11.2601 17.492 11.4083 17.9069 11.4002 18.3335C11.4327 18.6116 11.3999 18.8934 11.3043 19.1566C11.2088 19.4197 11.0532 19.657 10.8499 19.8495C10.2744 20.2475 9.58205 20.4412 8.88351 20.3998C8.2645 20.4217 7.65027 20.2839 7.09991 19.9997V18.4498C7.6005 18.8957 8.24599 19.1445 8.91632 19.1501C9.17899 19.163 9.43976 19.0994 9.66702 18.9671C9.74944 18.9083 9.81663 18.8307 9.86298 18.7407C9.90934 18.6508 9.93352 18.551 9.93351 18.4498C9.93314 18.3481 9.91056 18.2477 9.86737 18.1557C9.82417 18.0636 9.7614 17.9821 9.68343 17.9168C9.3651 17.6746 9.01791 17.4729 8.64984 17.3164C7.5164 16.8164 6.98343 16.1499 6.98343 15.3003C6.97411 15.0151 7.03268 14.7319 7.15431 14.4739C7.27595 14.2159 7.45717 13.9904 7.68304 13.8162C8.20155 13.4161 8.8464 13.2153 9.50038 13.2504ZM15.4999 13.3163C16.0841 13.3121 16.659 13.4618 17.167 13.7503C17.6682 14.0457 18.0733 14.4797 18.3335 15C18.6572 15.5359 18.846 16.1423 18.8836 16.7672C18.9026 17.5049 18.7119 18.2328 18.3335 18.8663C17.9489 19.4761 17.3567 19.9261 16.6662 20.1333L18.7169 21.9661H16.7001L15.2665 20.2999C14.6774 20.2786 14.1036 20.1065 13.6001 19.8C13.1045 19.5102 12.7048 19.0815 12.4502 18.567C12.1904 18.0494 12.0535 17.4788 12.0501 16.8996C12.0399 16.2408 12.1884 15.5892 12.4833 15C12.7631 14.4815 13.1852 14.0536 13.6999 13.7667C14.2487 13.4581 14.8704 13.3025 15.4999 13.3163ZM19.9997 13.3339H21.5001V18.9999H24.1003V20.2167H19.9997V13.3339ZM15.4331 14.4837C15.1841 14.4826 14.9381 14.5374 14.713 14.644C14.488 14.7507 14.2898 14.9064 14.133 15.0999C13.7822 15.5821 13.6112 16.1719 13.6495 16.767C13.6101 17.362 13.7813 17.9519 14.133 18.4334C14.2813 18.6269 14.4736 18.7822 14.694 18.8865C14.9144 18.9907 15.1564 19.0409 15.4001 19.0329C15.6418 19.0403 15.882 18.9915 16.1017 18.8903C16.3214 18.7891 16.5146 18.6383 16.6662 18.4498C17.0252 17.9662 17.1917 17.3664 17.1333 16.767C17.1698 16.1764 17.0114 15.5914 16.6837 15.0999C16.544 14.9002 16.3561 14.739 16.1375 14.6313C15.9189 14.5235 15.6766 14.4729 15.4331 14.4837Z" fill="#C0A3CF"/>
</svg>
