<svg width="24" height="27" viewBox="0 0 24 27" fill="none" xmlns="http://www.w3.org/2000/svg">
<path d="M12 13.2768L5.94124 9.77823M12 13.2768L18.0588 9.77823M12 13.2768V20.2739M5.94124 9.77823L1.36764 7.13839M5.94124 9.77823C5.82179 9.98263 5.75676 10.2202 5.75676 10.4644V16.0878C5.75676 16.3334 5.82312 16.5683 5.94124 16.774M5.94124 9.77823C6.05936 9.57251 6.23057 9.39865 6.44293 9.27522L11.3138 6.46416C11.5262 6.34206 11.7624 6.27968 12 6.27968M18.0588 9.77823L22.6324 7.13839M18.0588 9.77823C17.9388 9.56928 17.7657 9.39574 17.5571 9.27522L12.6862 6.46416C12.4777 6.34326 12.241 6.27962 12 6.27968M18.0588 9.77823C18.1782 9.98395 18.2432 10.2202 18.2432 10.4644V16.0878C18.2432 16.332 18.1782 16.5656 18.0627 16.77M12 20.2739V25.5536M12 20.2739C12.2376 20.2739 12.4738 20.2115 12.6862 20.0894L17.5571 17.2784C17.7708 17.1549 17.9433 16.9771 18.0627 16.77M12 20.2739C11.7624 20.2739 11.5262 20.2115 11.3138 20.0894L6.44293 17.2784C6.23057 17.1549 6.05936 16.9797 5.94124 16.774M1.36897 19.4152C1.60521 19.8266 1.94896 20.1757 2.37367 20.4199L10.6263 25.1846C11.051 25.4315 11.5262 25.5536 12 25.5536M1.36897 19.4152C1.12753 18.9976 1.00027 18.5238 1 18.0415V8.51206C1 8.02099 1.1314 7.5485 1.36764 7.13839M1.36897 19.4152L5.94124 16.774M12 25.5536C12.4822 25.5537 12.956 25.4269 13.3737 25.1859L21.6263 20.4212C22.051 20.1757 22.3961 19.8253 22.6324 19.4152M1.36764 7.13839C1.60389 6.72828 1.94896 6.3779 2.37367 6.13236L10.6263 1.36764C11.044 1.12666 11.5178 0.999868 12 1M22.6324 19.4152L18.2432 16.8802L18.0627 16.77M22.6324 19.4152C22.8686 19.0037 23 18.5326 23 18.0415V8.51206C23 8.02099 22.8686 7.5485 22.6324 7.13839M22.6324 7.13839C22.391 6.72102 22.044 6.37451 21.6263 6.13369L13.3737 1.36897C12.9561 1.12753 12.4823 1.00027 12 1M12 1V6.27968" stroke="#C0A3CF" stroke-width="1.5" stroke-linecap="round" stroke-linejoin="round"/>
</svg>
